<?xml version="1.0" encoding="UTF-8" standalone="no"?>
<svg xmlns:rdf="http://www.w3.org/1999/02/22-rdf-syntax-ns#" xmlns="http://www.w3.org/2000/svg" height="200" width="800" version="1.1" xmlns:cc="http://creativecommons.org/ns#" xmlns:dc="http://purl.org/dc/elements/1.1/" viewBox="0 0 800 200">


  <g fill = "navy">
    <path d="M30,52 20,55 30 58 M20,55 120,55 " stroke="red" stroke-width="3" fill="none" />
    <text x="60" y="51"><tspan>c</tspan></text>
    <path d="M60,40 70,40 M66,37 70,40 66,42" stroke="black" stroke-width="1" fill="none" />
  </g>
  <g fill = "navy">
    <path d="M160,55 220,55 M110,52 120,55 110 58" stroke="red" stroke-width="3" fill="none" />
    <text x="60" y="51"><tspan>c</tspan></text>
    <path d="M60,40 70,40 M66,37 70,40 66,42" stroke="black" stroke-width="1" fill="none" />
  </g>
  <g fill = "navy">
    <path d="M20,55 120,55 M110,52 120,55 110 58" stroke="red" stroke-width="3" fill="none" />
    <text x="60" y="51"><tspan>c</tspan></text>
    <path d="M60,40 70,40 M66,37 70,40 66,42" stroke="black" stroke-width="1" fill="none" />
  </g>
  <g fill = "navy">
    <path d="M20,55 120,55 M110,52 120,55 110 58" stroke="red" stroke-width="3" fill="none" />
    <text x="60" y="51"><tspan>c</tspan></text>
    <path d="M60,40 70,40 M66,37 70,40 66,42" stroke="black" stroke-width="1" fill="none" />
  </g>
  <g fill = "navy">
    <path d="M20,55 120,55 M110,52 120,55 110 58" stroke="red" stroke-width="3" fill="none" />
    <text x="60" y="51"><tspan>c</tspan></text>
    <path d="M60,40 70,40 M66,37 70,40 66,42" stroke="black" stroke-width="1" fill="none" />
  </g>
  <g fill = "navy">
    <path d="M20,55 120,55 M110,52 120,55 110 58" stroke="red" stroke-width="3" fill="none" />
    <text x="60" y="51"><tspan>c</tspan></text>
    <path d="M60,40 70,40 M66,37 70,40 66,42" stroke="black" stroke-width="1" fill="none" />
  </g>
  <g fill = "navy">
    <path d="M760,37 700,37 M710,40 702,37 710 34" stroke="red" stroke-width="3" fill="none" />
    <g transform="translate(670,-20)">
      <text x="60" y="51"><tspan>v</tspan></text>
      <path d="M60,40 70,40 M66,37 70,40 66,42" stroke="black" stroke-width="1" fill="none" />
    </g>
  </g>
  <g fill = "navy">
    <path d="M700,190 760,40 M750,50 760,40 760 52" stroke="red" stroke-width="3" fill="none" />
    <g transform="translate(680,68)">
      <text x="60" y="51"><tspan>c</tspan></text>
      <path d="M60,40 70,40 M66,37 70,40 66,42" stroke="black" stroke-width="1" fill="none" />
    </g>
  </g>
  <g fill = "navy">
    <path d="M700,190 700,40 M696,50 700,40 704 50" stroke="red" stroke-width="3" fill="none" />
    <path d="M640,120 645,120 647,125 650,95 697,95" stroke="black" stroke-width="1" fill="none" />
    <text x="650" y="120"><tspan>c<tspan baseline-shift="super">2</tspan> - v<tspan baseline-shift="super">2</tspan></tspan></text>
    <path d="M60,40 70,40 M66,37 70,40 66,42" stroke="black" stroke-width="1" fill="none" />
  </g>





    <line x1="0" y1="0" x2="800" y2="200" style="stroke:rgb(255,0,0);stroke-width:0.2" />
    <line x1="0" y1="200" x2="800" y2="0" style="stroke:rgb(255,0,0);stroke-width:0.2" />
</svg>
