<?xml version="1.0" standalone="no"?>
<!DOCTYPE svg PUBLIC "-//W3C//DTD SVG 20010904//EN"
 "http://www.w3.org/TR/2001/REC-SVG-20010904/DTD/svg10.dtd">
<svg version="1.0" xmlns="http://www.w3.org/2000/svg"
 width="1280.000000pt" height="720.000000pt" viewBox="0 0 1280.000000 720.000000"
 preserveAspectRatio="xMidYMid meet">
<metadata>
Created by potrace 1.16, written by Peter Selinger 2001-2019
</metadata>
<g transform="translate(0.000000,720.000000) scale(0.100000,-0.100000)"
fill="#000000" stroke="none">
<path d="M5360 6380 c0 -10 15 -66 70 -260 13 -45 108 -445 164 -690 28 -119
35 -151 60 -260 60 -261 66 -295 66 -401 0 -59 -4 -110 -10 -114 -5 -3 -37 21
-72 54 -275 257 -512 421 -678 467 -88 24 -552 38 -794 24 -109 -6 -220 -15
-245 -19 -25 -5 -77 -14 -116 -21 -215 -37 -508 -137 -710 -241 -78 -41 -88
-62 -40 -88 427 -228 827 -584 1189 -1055 102 -132 335 -475 370 -543 33 -66
20 -76 -116 -98 -51 -9 -120 -20 -153 -26 -33 -6 -82 -15 -110 -20 -160 -28
-321 -63 -395 -86 -178 -53 -378 -169 -570 -328 -117 -98 -342 -302 -353 -321
-11 -20 -1 -22 168 -28 179 -6 253 -15 488 -57 62 -11 305 -71 362 -89 248
-79 526 -182 527 -195 1 -9 -118 -99 -419 -317 -62 -44 -113 -85 -113 -89 0
-4 4 -10 10 -14 11 -7 1061 -7 1068 0 3 2 -7 21 -22 40 -37 48 -110 207 -124
270 -31 134 -44 335 -22 335 5 0 26 -33 46 -72 49 -97 101 -173 158 -228 52
-51 136 -105 180 -116 27 -6 29 -5 22 17 -41 142 -49 191 -49 297 -1 62 4 117
9 122 9 9 32 -27 132 -210 60 -111 84 -150 91 -150 4 0 13 39 20 88 29 205 88
382 173 526 58 96 195 253 210 238 5 -5 5 -45 -1 -98 -24 -211 -44 -464 -38
-471 18 -17 185 57 283 126 92 65 154 132 252 276 137 202 215 300 237 299 11
-1 60 -12 109 -25 84 -23 91 -27 122 -69 18 -25 43 -76 56 -115 20 -62 23 -88
22 -235 -1 -150 -3 -176 -32 -288 -17 -67 -47 -162 -67 -211 -19 -49 -35 -91
-35 -95 0 -19 33 3 123 81 299 262 478 413 487 413 19 0 10 -23 -65 -177 -78
-160 -87 -188 -57 -179 49 16 186 36 192 29 4 -4 -12 -48 -36 -98 -49 -102
-55 -130 -24 -120 11 3 81 42 156 86 75 43 138 79 140 79 1 0 31 16 64 36 34
20 64 33 67 30 3 -3 -24 -92 -61 -199 -36 -107 -66 -200 -66 -207 0 -10 24
-12 123 -7 67 4 235 11 372 17 294 12 345 17 345 35 0 8 -10 17 -22 21 -12 4
-86 37 -163 74 -77 37 -157 73 -178 81 -23 8 -37 19 -35 27 2 9 85 42 218 86
768 258 757 254 744 265 -5 5 -79 19 -164 30 -85 12 -186 26 -225 32 -130 19
-200 28 -253 35 -33 4 -52 10 -49 18 2 6 35 27 73 46 70 36 314 164 479 250
50 26 185 96 300 156 116 59 232 119 259 134 27 14 51 30 53 36 2 6 -46 22
-114 37 -248 57 -444 82 -755 99 -164 8 -228 15 -228 24 0 6 6 14 13 17 6 2
75 51 152 109 77 57 178 132 225 166 148 109 149 114 30 102 -41 -4 -133 -13
-205 -19 -159 -14 -319 -29 -445 -41 -52 -5 -178 -17 -279 -27 l-184 -18 -15
24 c-9 13 -32 71 -52 130 -48 143 -91 219 -169 303 -93 101 -177 158 -376 258
-91 46 -94 54 -115 370 -19 285 -31 414 -50 545 -41 280 -86 379 -252 565
-207 232 -509 465 -789 607 -167 86 -239 114 -469 183 -41 13 -81 25 -87 27
-7 3 -13 0 -13 -7z"/>
</g>
</svg>
