<?xml version="1.0" encoding="UTF-8" standalone="no"?>
<svg xmlns:rdf="http://www.w3.org/1999/02/22-rdf-syntax-ns#" xmlns="http://www.w3.org/2000/svg" height="200" width="800" version="1.1" xmlns:cc="http://creativecommons.org/ns#" xmlns:dc="http://purl.org/dc/elements/1.1/" viewBox="0 0 800 200">


  <path d="M17,65 20,60 23,65 M20,60 20,180 120,180 M115,177 120,180 115 183" stroke="red" stroke-width="3" fill="none" />
  <g fill = "navy">
      <text x="20" y="50"><tspan>S<tspan x="30" y="47" baseline-shift = "sub">1</tspan></tspan></text>
  </g>

  <g id="evento">
    <g>
      <text x="-20" y="0" fill="blue">Evento</text>
      <path xmlns="http://www.w3.org/2000/svg" fill="brown" transform="scale(0.05) rotate(40)" d="M288 167.2v-28.1c-28.2-36.3-47.1-79.3-54.1-125.2-2.1-13.5-19-18.8-27.8-8.3-21.1 24.9-37.7 54.1-48.9 86.5 34.2 38.3 80 64.6 130.8 75.1zM400 64c-44.2 0-80 35.9-80 80.1v59.4C215.6 197.3 127 133 87 41.8c-5.5-12.5-23.2-13.2-29-.9C41.4 76 32 115.2 32 156.6c0 70.8 34.1 136.9 85.1 185.9 13.2 12.7 26.1 23.2 38.9 32.8l-143.9 36C1.4 414-3.4 426.4 2.6 435.7 20 462.6 63 508.2 155.8 512c8 .3 16-2.6 22.1-7.9l65.2-56.1H320c88.4 0 160-71.5 160-159.9V128l32-64H400zm0 96.1c-8.8 0-16-7.2-16-16s7.2-16 16-16 16 7.2 16 16-7.2 16-16 16z"/>
      <line x1="0" y1="30" x2="0" y2="180" style="stroke:rgb(0,0,0);stroke-width:2"/>
      <path d="M-5,120 0,123 -5,126" stroke="red" stroke-width="1" fill="none"/>
      <path d="M-5,47 0,50 -5,53" stroke="red" stroke-width="1" fill="none"/>
      <line x1="20" y1="20" x2="50" y2="20" stroke="brown" stroke-width="2"/>
      <path d="M40,17 50,20 40,23" stroke="brown" stroke-width="2" fill="none"/>
      <text x="40" y="40"><tspan style="font-style:italic; font-family: Times New Roman; font-size:2em;">v<tspan style="font-size:0.5em; font-style:normal;" baseline-shift="sub">?</tspan></tspan>
      </text>
    </g>
    <animateMotion dur="9s" fill="freeze" repeatCount="indefinite" path="M150,40 800,40" />
  </g>

    <g id="marco">
      <path xmlns="http://www.w3.org/2000/svg" fill="green" transform="scale(0.1)" d="M621.3 237.3 l-58.5 -58.5c-12-12-28.3-18.7-45.3-18.7H480V64c0-17.7-14.3-32-32-32H32C14.3 32 0 46.3 0 64v336c0 44.2 35.8 80 80 80 26.3 0 49.4-12.9 64-32.4 14.6 19.6 37.7 32.4 64 32.4 44.2 0 80-35.8 80-80 0-5.5-.6-10.8-1.6-16h163.2c-1.1 5.2-1.6 10.5-1.6 16 0 44.2 35.8 80 80 80s80-35.8 80-80c0-5.5-.6-10.8-1.6-16H624c8.8 0 16-7.2 16-16v-85.5c0-17-6.7-33.2-18.7-45.2zM80 432c-17.6 0-32-14.4-32-32s14.4-32 32-32 32 14.4 32 32-14.4 32-32 32zm128 0c-17.6 0-32-14.4-32-32s14.4-32 32-32 32 14.4 32 32-14.4 32-32 32zm272-224h37.5c4.3 0 8.3 1.7 11.3 4.7l43.3 43.3H480v-48zm48 224c-17.6 0-32-14.4-32-32s14.4-32 32-32 32 14.4 32 32-14.4 32-32 32z"/>
      <path d="M17,105 20,100 23,105 M20,100 20,150 70,150 M65,147 70,150 65 153" stroke="red" stroke-width="2" fill="none" transform="translate(30,-130)" />
      <text x="50" y="-35"><tspan >S<tspan x="60" y="-37" baseline-shift="sub">2</tspan></tspan></text>
      <path d="M15,123 20,120 15,117" stroke="red" stroke-width="1" fill="none" transform="translate(30,-130)" />
      <line x1="70" y1="30" x2="100" y2="30" stroke="green" stroke-width="2"/>
      <path d="M90,27 100,30 90,33" stroke="green" stroke-width="2" fill="none"/>
      <text x="90" y="50">
        <tspan style="font-style:italic; font-family: Times New Roman; font-size:2em;">v<tspan style="font-size:0.5em; font-style: normal;" baseline-shift="sub">?</tspan></tspan>
      </text>
    <animateMotion dur="9s" fill="freeze" repeatCount="indefinite" path="M0,100 600,100" />
    </g>

    <line
      x1="20" y1="163" x2="0" y2="163" style="stroke:rgb(0,0,0);stroke-width:2">
      <animate attributeType="XML" attributeName="x2" from="150" to="800"
        dur="9s" repeatCount="indefinite"/>
    </line>
    <rect x="30" y="150" width="30" height="25" rx="15" fill="white" stroke="white">
      <animate attributeType="XML" attributeName="x" from="53" to="393" dur="9s" repeatCount="indefinite"/>
    </rect>
    <text x="50" y="170"><tspan style="font-style:italic; font-family: Times New Roman; font-size:2em;">x<tspan style="font-size:0.5em; font-style:normal;" baseline-shift = "sub">1</tspan></tspan>
      <animate attributeType="XML" attributeName="x" from="60" to="400" dur="9s" repeatCount="indefinite"/>
    </text>

    <line
      x1="20" y1="90" x2="0" y2="90" style="stroke:rgb(0,0,0);stroke-width:2">
      <animate attributeType="XML" attributeName="x2" from="150" to="800"
        dur="9s" repeatCount="indefinite"/>
    </line>
    <rect x="10" y="77" width="37" height="25" rx="15" fill="white" stroke="white">
      <animate attributeType="XML" attributeName="x" from="10" to="343" dur="9s" repeatCount="indefinite"/>
    </rect>
    <text x="30" y="97"><tspan style="font-style:italic; font-family: Times New Roman; font-size:2em; background-color:red;">vt</tspan>
      <animate attributeType="XML" attributeName="x" from="15" to="350" dur="9s" repeatCount="indefinite"/>
    </text>

    <rect x="10" y="77" width="37" height="25" rx="15" fill="white" stroke="white">
      <animate attributeType="XML" attributeName="x" from="80" to="700" dur="9s" repeatCount="indefinite"/>
    </rect>
    <text x="30" y="97"><tspan style="font-style:italic; font-family: Times New Roman; font-size:2em; background-color:red;">x<tspan style="font-size:0.5em; font-style:normal;" baseline-shift = "sub">2</tspan></tspan>
      <animate attributeType="XML" attributeName="x" from="88" to="713" dur="9s" repeatCount="indefinite"/>
    </text>


    <!-- <line x1="0" y1="0" x2="800" y2="200" style="stroke:rgb(255,0,0);stroke-width:0.2" />
    <line x1="0" y1="200" x2="800" y2="0" style="stroke:rgb(255,0,0);stroke-width:0.2" /> -->
</svg>
