<?xml version="1.0" standalone="no"?>
<!DOCTYPE svg PUBLIC "-//W3C//DTD SVG 20010904//EN"
 "http://www.w3.org/TR/2001/REC-SVG-20010904/DTD/svg10.dtd">
<svg version="1.0" xmlns="http://www.w3.org/2000/svg"
 width="500.000000pt" height="381.000000pt" viewBox="0 0 500.000000 381.000000"
 preserveAspectRatio="xMidYMid meet">

<g transform="translate(0.000000,381.000000) scale(0.100000,-0.100000)"
fill="#000000" stroke="none">
<path d="M2130 3599 c-85 -10 -156 -18 -157 -18 -5 -2 -3 -77 3 -98 4 -13 12
-23 20 -23 14 0 20 -25 33 -145 8 -70 7 -82 -8 -93 -14 -10 -16 -21 -11 -62 4
-27 9 -52 12 -56 4 -3 88 2 187 12 l181 17 -6 56 c-9 99 -11 101 -48 101 -51
0 -96 -11 -90 -22 8 -13 -15 -28 -43 -28 -19 0 -23 6 -23 29 0 27 3 29 56 36
l56 7 -6 36 c-3 21 -6 48 -6 61 0 23 -2 24 -60 18 l-60 -7 0 30 c0 26 3 30 29
30 16 0 31 -5 33 -12 5 -13 107 -12 121 1 5 5 5 41 1 80 -8 83 17 77 -214 50z
m170 -54 c0 -14 1 -28 3 -32 1 -5 -8 -9 -20 -11 -13 -2 -23 2 -23 9 0 9 -19
10 -72 5 -39 -3 -73 -8 -76 -10 -2 -2 0 -32 4 -66 l7 -62 59 6 c58 7 59 7 56
-16 -3 -20 -9 -23 -55 -26 -59 -3 -59 -4 -47 -96 7 -51 11 -53 108 -40 36 5
46 11 46 25 0 23 35 26 44 3 8 -22 8 -64 -1 -64 -5 0 -66 -7 -138 -15 -71 -8
-133 -15 -137 -15 -5 0 -8 11 -8 25 0 16 6 25 15 25 18 0 18 4 0 165 -8 72
-15 133 -15 138 0 4 -7 7 -15 7 -14 0 -17 4 -19 33 -1 12 135 33 237 36 44 1
47 -1 47 -24z"/>
<path d="M2480 3565 c0 -41 5 -61 16 -69 13 -10 14 -28 8 -124 -6 -100 -9
-112 -25 -112 -17 0 -19 -8 -19 -64 l0 -64 100 -1 100 -2 0 61 c0 33 -4 60
-10 60 -5 0 -10 14 -10 30 0 20 5 30 15 30 27 0 37 -38 30 -114 l-7 -73 93 -6
c52 -2 97 -3 102 0 4 2 7 31 7 64 0 51 -3 59 -19 59 -13 0 -25 15 -39 49 l-20
49 23 23 c17 18 24 41 29 89 l6 65 -42 48 -43 47 -147 6 -148 7 0 -58z m303
-23 c23 -22 27 -34 27 -81 0 -47 -4 -59 -29 -86 l-29 -30 28 -70 c16 -39 36
-71 44 -73 9 -2 16 -12 16 -23 0 -17 -7 -19 -61 -19 -58 0 -60 1 -53 23 4 12
11 25 15 28 5 3 -2 32 -15 65 -25 61 -38 71 -98 73 -28 1 -28 0 -28 -63 0 -36
5 -68 10 -71 6 -3 10 -15 10 -26 0 -18 -6 -20 -57 -17 -51 3 -58 6 -61 26 -3
17 2 22 17 22 18 0 21 6 21 43 0 23 3 93 7 155 5 100 4 112 -10 112 -12 0 -17
8 -17 26 l0 26 118 -7 c107 -7 119 -9 145 -33z"/>
<path d="M2614 3517 c-3 -8 -4 -39 -2 -68 l3 -54 53 -3 c64 -4 78 6 87 60 9
52 -4 64 -78 73 -45 5 -58 3 -63 -8z m96 -58 c0 -27 -3 -30 -27 -27 -20 2 -28
9 -29 23 -1 29 4 35 32 35 20 0 24 -5 24 -31z"/>
<path d="M2986 3499 c-10 -45 -16 -82 -14 -83 10 -9 101 -26 109 -21 5 4 9 15
9 26 0 10 5 19 10 19 14 0 13 -12 -12 -127 -17 -85 -25 -103 -39 -103 -12 0
-21 -10 -25 -27 -3 -16 -10 -42 -14 -60 -9 -37 -16 -33 103 -58 42 -10 83 -15
91 -12 7 3 16 23 20 45 3 22 9 47 12 56 4 11 1 16 -10 16 -21 0 -20 16 6 133
13 60 26 97 34 97 8 0 12 -11 11 -27 -2 -25 2 -28 46 -36 26 -5 50 -7 52 -5 8
8 38 158 33 163 -7 7 -365 85 -388 85 -13 0 -21 -20 -34 -81z m233 1 c79 -16
146 -31 147 -33 3 -2 -17 -89 -21 -95 -1 -1 -10 0 -19 4 -10 4 -15 15 -14 32
3 23 -2 27 -40 35 -24 5 -46 7 -48 5 -2 -2 -18 -71 -36 -152 -28 -133 -30
-149 -16 -157 10 -5 14 -17 11 -29 -5 -20 -18 -20 -93 0 -32 8 -42 50 -12 50
17 0 23 12 36 73 31 140 48 229 44 232 -1 1 -22 6 -46 10 -39 6 -44 5 -49 -14
-3 -12 -13 -21 -25 -21 -18 0 -19 4 -13 43 9 53 13 59 33 53 10 -3 82 -19 161
-36z"/>
<path d="M1608 3502 c-76 -21 -138 -41 -138 -45 0 -5 7 -33 15 -62 11 -37 21
-52 32 -51 12 1 22 -20 39 -81 37 -135 38 -143 19 -143 -11 0 -15 -6 -11 -17
3 -10 10 -39 16 -65 l12 -46 91 24 c51 14 97 27 104 29 8 3 7 20 -4 65 -13 51
-18 60 -34 55 -13 -4 -19 -1 -19 8 0 9 20 20 53 29 46 13 55 20 83 66 l32 52
-21 79 c-21 77 -22 80 -73 110 -29 17 -54 31 -56 30 -1 -1 -65 -17 -140 -37z
m177 -29 c26 -13 38 -26 45 -53 23 -85 23 -98 0 -134 -21 -35 -30 -39 -122
-62 -31 -7 -33 -19 -17 -76 7 -27 15 -38 29 -38 13 0 20 -7 20 -18 0 -14 -14
-23 -55 -34 -52 -15 -56 -14 -65 3 -8 13 -6 20 7 27 15 9 13 23 -22 161 -33
127 -42 150 -56 146 -11 -4 -18 2 -22 17 -4 12 -5 23 -4 24 6 6 186 52 204 53
12 1 38 -7 58 -16z"/>
<path d="M1668 3428 c-43 -11 -44 -18 -24 -95 20 -74 19 -74 79 -57 70 21 78
33 62 94 -7 26 -16 53 -19 59 -8 13 -47 13 -98 -1z m75 -65 c4 -20 5 -38 4
-39 -1 0 -14 -4 -29 -8 -25 -6 -28 -3 -34 30 -5 26 -3 39 7 45 30 19 46 10 52
-28z"/>
<path d="M3481 3413 c-12 -32 -18 -59 -14 -60 27 -10 34 -29 46 -115 15 -107
7 -153 -23 -145 -15 4 -23 -7 -41 -50 -12 -31 -18 -58 -13 -62 10 -9 171 -71
184 -71 7 0 50 94 50 111 0 5 -7 9 -15 9 -8 0 -15 2 -15 4 0 46 153 193 190
181 15 -5 22 1 35 31 34 81 35 77 -60 113 -47 18 -88 31 -89 30 -9 -12 -36
-92 -36 -107 0 -9 -9 -23 -20 -30 -17 -11 -20 -9 -26 14 -4 14 -3 29 2 33 12
8 44 78 44 95 0 11 -145 76 -169 76 -5 0 -18 -26 -30 -57z m103 -13 c25 -10
46 -21 46 -24 0 -17 -15 -36 -27 -36 -8 0 -13 -6 -10 -13 3 -8 8 -44 12 -80 4
-37 9 -67 12 -67 2 0 31 23 63 51 38 33 56 56 54 67 -9 37 10 44 59 23 26 -11
47 -24 47 -28 0 -17 -18 -35 -28 -29 -6 3 -50 -29 -98 -71 -67 -60 -92 -90
-108 -127 -14 -36 -17 -51 -8 -54 14 -4 16 -38 3 -46 -5 -3 -32 4 -60 15 -36
15 -51 27 -51 40 0 13 7 19 23 19 18 0 26 10 40 49 16 46 16 56 1 163 -8 62
-20 115 -25 116 -15 6 -9 52 7 52 1 0 23 -9 48 -20z"/>
<path d="M1170 3350 c-83 -36 -85 -38 -106 -91 -14 -35 -19 -61 -14 -74 40
-103 115 -263 129 -275 10 -9 36 -22 59 -29 38 -13 45 -12 109 13 97 39 107
47 127 108 l19 53 -58 135 c-31 74 -62 140 -68 147 -7 6 -34 20 -62 31 l-50
20 -85 -38z m122 -22 c44 -13 48 -19 113 -175 l44 -104 -18 -42 c-17 -39 -25
-46 -88 -71 l-70 -28 -39 20 c-36 19 -43 30 -92 147 l-53 127 18 43 c16 39 25
47 78 68 33 14 62 26 64 26 2 1 21 -4 43 -11z"/>
<path d="M1203 3270 c-22 -10 -44 -27 -47 -38 -8 -24 84 -242 110 -258 16 -11
27 -9 66 7 26 12 48 29 51 40 6 24 -85 238 -109 256 -22 16 -19 16 -71 -7z
m97 -130 c24 -58 39 -105 34 -110 -5 -4 -19 -11 -31 -15 -18 -5 -25 -1 -32 17
-5 13 -25 60 -45 105 l-35 83 27 14 c15 8 29 13 33 11 3 -2 25 -49 49 -105z"/>
<path d="M685 3094 c-149 -89 -140 -78 -107 -136 21 -38 31 -48 47 -44 16 4
30 -12 78 -89 59 -98 65 -111 45 -117 -11 -4 34 -92 54 -104 10 -6 168 85 168
97 0 4 -12 28 -27 53 -19 30 -33 44 -44 40 -20 -6 -46 45 -28 56 13 9 69 -20
69 -35 0 -5 13 -31 28 -57 l27 -46 83 50 82 51 -21 36 c-38 67 -47 75 -63 62
-13 -11 -23 -8 -59 16 -41 26 -44 30 -39 65 3 29 -2 47 -29 91 -31 49 -39 56
-82 66 -27 6 -54 11 -60 11 -7 0 -61 -30 -122 -66z m178 10 c42 -10 81 -82 72
-133 l-6 -39 62 -38 c34 -22 70 -38 79 -36 14 2 38 -26 28 -33 -54 -40 -83
-53 -95 -43 -7 6 -11 18 -8 28 4 12 -10 27 -51 54 l-56 38 -35 -19 c-20 -10
-37 -23 -40 -30 -7 -16 60 -114 74 -108 7 2 17 -4 23 -15 8 -16 3 -23 -39 -49
-42 -25 -51 -28 -61 -15 -10 11 -10 17 0 29 10 12 -1 37 -67 142 -64 103 -83
128 -100 126 -23 -3 -39 25 -24 40 26 26 187 116 201 112 8 -2 27 -7 43 -11z"/>
<path d="M762 3039 c-51 -29 -53 -31 -40 -52 8 -12 24 -39 37 -59 l22 -37 47
30 c59 37 69 61 42 104 -16 26 -39 46 -53 45 -1 0 -26 -14 -55 -31z m72 -36
c5 -11 -1 -23 -16 -34 -21 -17 -23 -16 -37 3 -13 19 -12 22 4 34 25 19 42 18
49 -3z"/>
<path d="M4179 3118 c-49 -10 -47 -8 -166 -196 l-52 -83 13 -57 c12 -56 14
-58 90 -108 l77 -51 62 13 c34 7 63 16 64 21 2 4 40 64 84 132 l81 124 -13 60
c-12 60 -12 60 -88 108 -80 52 -81 52 -152 37z m137 -74 c47 -31 55 -41 61
-78 4 -22 6 -44 5 -47 -1 -4 -35 -59 -76 -122 -72 -110 -77 -115 -116 -122
-36 -6 -48 -2 -103 32 -57 35 -63 43 -71 84 -8 44 -7 46 65 161 69 109 77 118
114 126 49 12 53 11 121 -34z"/>
<path d="M4138 2926 c-38 -57 -71 -111 -74 -120 -7 -19 47 -73 82 -82 33 -8
43 2 119 122 74 115 76 130 19 163 -62 37 -72 31 -146 -83z m127 48 l23 -15
-60 -95 c-33 -52 -66 -94 -72 -94 -7 0 -21 6 -31 14 -19 13 -18 15 11 62 17
27 44 70 60 96 16 26 33 48 37 48 4 0 18 -7 32 -16z"/>
<path d="M4545 2855 c-26 -33 -34 -49 -27 -58 15 -17 -136 -191 -153 -177 -8
7 -25 -4 -56 -36 l-44 -46 40 -35 c72 -63 125 -106 128 -102 1 2 20 23 40 47
32 36 36 46 26 58 -10 12 -9 18 3 31 14 14 20 11 57 -22 23 -21 43 -36 45 -34
3 2 20 24 39 49 l35 45 -39 35 -39 35 20 24 c20 23 21 23 40 6 14 -13 17 -22
10 -30 -7 -9 2 -24 35 -54 24 -22 48 -41 53 -41 4 0 29 25 55 56 40 48 45 59
35 72 -16 19 -254 222 -261 222 -2 0 -21 -20 -42 -45z m156 -102 c54 -47 99
-88 99 -91 0 -2 -9 -17 -21 -34 -20 -28 -22 -28 -40 -12 -13 12 -16 21 -9 29
8 9 -3 25 -42 59 l-53 46 -47 -53 -48 -52 41 -37 c35 -32 39 -40 29 -53 -11
-13 -18 -11 -55 19 l-42 35 -24 -27 c-62 -68 -64 -73 -49 -82 13 -8 13 -12 -2
-26 -15 -15 -19 -14 -62 22 -25 21 -46 41 -46 45 0 16 30 31 43 22 18 -15 210
210 202 237 -7 22 1 40 16 40 6 0 55 -39 110 -87z"/>
<path d="M287 2801 c-50 -42 -101 -85 -114 -96 l-23 -20 41 -48 c31 -36 44
-45 54 -37 18 15 168 -159 153 -177 -8 -10 -1 -25 26 -58 21 -25 41 -45 45
-45 4 0 43 30 85 66 l77 65 -42 50 c-31 38 -44 47 -54 39 -9 -7 -15 -7 -19 -1
-4 5 11 27 33 48 35 34 40 45 45 98 l6 60 -54 59 c-51 57 -56 60 -111 66 l-59
6 -89 -75z m231 -26 c39 -49 42 -56 36 -95 -5 -33 -16 -49 -55 -82 -27 -23
-49 -44 -49 -47 0 -3 15 -24 34 -46 27 -32 36 -37 48 -28 11 10 16 8 25 -7 11
-16 6 -23 -33 -55 -43 -35 -47 -37 -62 -21 -14 14 -15 18 -3 25 20 13 -174
236 -205 236 -13 0 -28 5 -34 11 -9 9 11 31 78 91 87 75 92 78 134 75 38 -4
48 -10 86 -57z"/>
<path d="M351 2743 l-41 -38 53 -59 54 -60 46 43 c26 24 47 50 47 57 0 24 -71
94 -95 94 -12 0 -41 -17 -64 -37z m89 -28 l24 -25 -23 -23 -22 -22 -24 30
c-22 27 -23 31 -8 47 21 23 25 23 53 -7z"/>
<path d="M2170 2856 c-110 -13 -132 -21 -191 -67 l-36 -28 -24 25 c-48 52 -95
67 -187 61 -108 -6 -180 -42 -286 -140 -77 -71 -78 -73 -97 -152 -11 -44 -22
-125 -25 -180 -6 -99 -6 -100 25 -145 l30 -45 -33 -35 c-79 -84 -85 -114 -25
-138 39 -15 41 -18 36 -49 -15 -93 -39 -412 -33 -437 6 -26 10 -28 44 -24 20
3 43 7 50 9 9 3 41 -53 96 -171 154 -328 154 -330 203 -344 16 -5 31 1 56 24
l35 30 128 -46 c71 -25 148 -52 172 -59 24 -7 63 -29 87 -49 40 -33 48 -36
110 -36 l66 0 59 -56 59 -56 59 56 59 56 68 0 c65 0 71 2 105 34 23 22 59 41
105 56 39 12 118 40 178 62 l107 40 36 -31 c41 -36 37 -35 74 -16 35 18 35 18
166 295 70 147 106 214 115 211 43 -13 76 -12 88 3 12 14 11 47 -3 204 -9 103
-20 208 -23 233 l-5 45 41 16 c26 10 41 23 41 34 0 23 -33 75 -70 108 -31 27
-31 28 -14 54 53 81 57 160 14 339 -21 90 -23 93 -82 149 -124 114 -208 154
-325 154 -75 0 -117 -16 -157 -58 l-29 -31 -36 28 c-58 45 -76 51 -198 67
-150 18 -221 18 -278 -2 -36 -12 -50 -13 -61 -3 -21 17 -173 20 -294 5z m280
-76 c14 -11 32 -20 40 -20 8 0 26 9 40 20 30 23 139 27 285 9 98 -12 126 -23
180 -70 l34 -30 68 48 c65 46 70 48 134 47 87 -1 154 -33 248 -120 77 -72 81
-79 107 -233 13 -73 14 -102 5 -131 -11 -38 -47 -84 -71 -92 -8 -2 4 -22 36
-57 70 -75 71 -80 33 -93 -31 -11 -31 -12 -25 -61 12 -104 28 -397 23 -412 -5
-12 -12 -13 -32 -5 -15 6 -28 10 -31 10 -2 0 -36 -66 -74 -147 -93 -194 -190
-373 -203 -373 -6 0 -21 9 -33 21 l-22 21 -143 -46 c-79 -24 -171 -52 -204
-61 -40 -11 -72 -29 -95 -51 -34 -33 -39 -34 -112 -34 l-76 0 -37 -43 -36 -42
-38 42 -37 43 -72 0 c-68 0 -74 2 -109 34 -27 24 -61 40 -118 56 -44 12 -136
40 -203 62 l-124 40 -23 -22 c-13 -13 -30 -20 -38 -17 -8 3 -72 119 -142 259
l-127 253 -35 -3 -36 -4 7 134 c4 73 12 178 17 232 9 101 6 115 -28 116 -29 0
-21 24 26 77 28 31 51 60 51 64 0 4 -10 13 -23 22 -13 8 -31 34 -42 57 -18 40
-18 45 -2 149 28 170 29 173 110 241 89 76 155 108 232 115 54 6 65 3 110 -24
28 -17 62 -41 77 -53 l27 -21 36 31 c19 18 48 38 64 46 36 19 149 33 276 34
85 1 104 -1 125 -18z"/>
<path d="M2185 2759 c-105 -14 -130 -25 -183 -85 l-49 -55 -61 60 c-73 72
-109 85 -184 67 -29 -7 -64 -18 -78 -26 -48 -25 -151 -112 -164 -139 -21 -41
-40 -150 -41 -223 0 -60 3 -71 27 -94 l26 -27 131 98 c72 54 131 100 131 102
0 2 -10 3 -22 1 -30 -4 -35 29 -13 71 15 29 14 31 -2 31 -26 0 -90 -46 -98
-70 -4 -12 -2 -27 4 -34 9 -10 5 -17 -14 -30 -14 -9 -25 -15 -25 -14 0 2 -4
17 -9 35 -9 30 -6 35 50 89 52 52 123 104 141 104 8 0 25 -80 31 -143 l5 -48
-82 -62 c-44 -34 -128 -108 -186 -166 -101 -100 -104 -105 -81 -115 22 -9 23
-14 17 -72 -13 -122 -26 -367 -20 -376 3 -5 14 -6 25 -3 16 5 23 -3 41 -47 27
-66 183 -381 210 -426 19 -31 21 -32 38 -17 17 16 26 14 122 -18 152 -52 319
-100 324 -94 3 3 -14 50 -37 105 l-42 100 -125 32 -124 33 -36 56 c-20 31 -74
127 -120 214 -66 123 -88 157 -104 157 -19 0 -20 4 -13 58 4 31 22 117 41 191
19 74 34 136 34 138 0 2 -9 3 -20 3 -31 0 -24 13 33 66 104 98 342 264 379
264 11 0 112 -45 224 -99 l203 -99 203 99 c112 54 213 99 224 99 50 0 434
-285 434 -322 0 -4 -9 -8 -20 -8 -11 0 -20 -2 -20 -4 0 -3 15 -67 34 -143 18
-76 37 -162 41 -190 6 -49 5 -53 -14 -53 -15 0 -31 -21 -67 -87 -79 -148 -175
-317 -188 -330 -6 -7 -65 -27 -131 -44 -66 -17 -123 -36 -127 -43 -15 -23 -79
-189 -74 -193 5 -6 110 25 289 84 130 42 139 44 157 28 17 -16 20 -13 64 68
53 98 167 335 187 390 12 34 16 37 42 31 l29 -6 -6 93 c-7 99 -27 329 -30 341
0 4 8 13 18 21 19 14 18 15 -10 52 -35 47 -209 203 -282 253 l-52 37 6 60 c7
74 22 135 33 135 15 0 92 -57 141 -104 52 -51 67 -100 35 -112 -22 -9 -48 15
-35 31 23 28 -45 105 -93 105 -14 0 -14 -4 0 -39 20 -50 12 -77 -17 -61 -11 6
-20 7 -20 2 0 -5 57 -52 126 -105 138 -105 148 -107 179 -47 19 37 19 74 -3
186 -20 101 -34 124 -117 191 -65 52 -98 69 -165 82 -48 8 -61 7 -97 -10 -22
-11 -62 -43 -89 -71 l-47 -50 -46 49 c-25 28 -54 56 -63 62 -22 16 -192 41
-284 41 -106 0 -110 -6 -125 -203 -7 -86 -15 -157 -19 -157 -3 0 -12 71 -19
157 -15 200 -17 204 -135 202 -45 -1 -112 -6 -151 -10z"/>
<path d="M1964 2351 c-34 -22 -94 -76 -135 -118 -123 -129 -159 -208 -159
-355 0 -63 5 -101 20 -137 24 -61 102 -231 150 -326 l35 -69 140 -46 c160 -53
138 -30 220 -226 l46 -111 65 -2 c52 -1 74 -7 105 -28 l39 -26 38 27 c32 22
49 26 104 26 l66 0 57 140 c32 77 63 144 69 149 6 5 72 29 146 53 156 52 127
19 255 293 l80 170 0 116 c0 114 0 116 -39 194 -31 63 -59 98 -135 175 -53 52
-117 106 -142 119 l-46 25 -69 -23 c-82 -27 -304 -140 -311 -157 -6 -17 15
-54 30 -54 7 0 64 20 127 43 115 44 115 44 200 36 46 -5 89 -15 96 -21 28 -30
153 -222 148 -227 -3 -3 -15 8 -27 24 -47 65 -132 146 -180 170 -50 24 -104
31 -140 16 -15 -6 -13 -9 17 -24 45 -21 45 -31 1 -49 l-35 -14 57 -41 c71 -50
173 -141 173 -154 0 -5 -7 -9 -15 -9 -9 0 -15 -9 -15 -21 0 -27 -37 -171 -57
-220 -13 -35 -21 -41 -69 -55 l-54 -15 -50 -162 c-28 -89 -66 -207 -84 -262
l-32 -100 -61 -10 c-34 -6 -70 -18 -82 -29 -21 -19 -22 -19 -44 1 -14 13 -43
23 -81 27 -33 4 -61 8 -62 9 -1 1 -32 99 -68 217 -37 118 -74 236 -82 261 -14
45 -18 48 -72 65 l-56 19 -33 100 c-18 55 -32 114 -33 132 0 20 -7 36 -17 42
-16 9 -14 14 22 51 22 23 75 68 117 100 l77 57 -31 9 c-44 13 -45 31 -3 51 30
14 33 18 18 24 -54 22 -150 -7 -213 -64 -19 -17 -112 -124 -127 -146 -2 -2 -6
-2 -9 2 -3 3 29 56 72 119 43 62 78 114 79 115 0 1 40 6 89 11 94 9 83 11 274
-59 64 -24 74 -22 86 18 6 19 -4 27 -86 71 -97 53 -227 108 -275 118 -22 4
-42 -4 -89 -35z"/>
<path d="M2267 2105 c-71 -20 -155 -74 -198 -128 -22 -27 -39 -54 -39 -60 0
-23 20 -192 26 -219 5 -25 15 -31 97 -56 l91 -28 18 -119 c10 -66 33 -181 51
-255 l33 -135 141 -3 142 -3 15 51 c25 84 64 269 77 369 15 105 7 96 126 131
80 24 78 20 88 140 3 41 8 89 10 106 11 80 -150 202 -290 219 l-59 8 26 -44
c14 -24 44 -79 67 -121 l43 -78 -34 -60 c-45 -83 -64 -80 -33 5 26 73 21 88
-41 131 -47 32 -65 39 -119 42 -69 5 -119 -13 -180 -62 -29 -24 -30 -24 -18
-77 7 -30 15 -64 19 -76 16 -57 -37 3 -65 73 -12 30 -10 37 48 139 34 59 61
111 61 116 0 12 -46 10 -103 -6z m148 -244 c-3 -10 -1 -30 4 -45 10 -24 8 -26
-13 -26 -18 0 -27 8 -34 30 -9 26 -8 32 11 45 29 20 40 19 32 -4z m193 -19 c5
-33 -15 -61 -38 -55 -15 4 -19 10 -14 22 4 9 7 28 7 43 0 23 3 25 21 19 12 -5
22 -18 24 -29z m-30 -227 c42 -13 52 -20 52 -38 0 -27 -31 -117 -41 -117 -4 0
-10 25 -14 56 -6 50 -8 54 -21 37 -13 -17 -15 -17 -28 0 -16 21 -26 22 -26 2
0 -21 -16 -19 -25 3 -6 16 -8 16 -21 -3 -14 -19 -16 -19 -28 -3 -18 25 -26 12
-26 -44 0 -76 -16 -62 -49 41 -6 18 -8 37 -5 42 8 14 95 38 140 38 22 1 64 -6
92 -14z m-124 -380 c5 14 9 15 22 4 13 -10 17 -10 25 2 9 12 12 11 22 -3 10
-15 14 -14 40 15 l28 32 -6 -35 c-12 -68 -8 -65 -97 -64 -83 2 -83 2 -89 30
-14 64 -10 71 20 35 24 -29 29 -31 35 -16z"/>
<path d="M2920 919 c0 -5 5 -9 10 -9 6 0 10 -12 10 -27 0 -33 5 -28 13 12 5
26 2 31 -14 32 -10 1 -19 -2 -19 -8z"/>
<path d="M2981 888 c1 -19 3 -25 6 -15 5 18 5 18 19 0 9 -12 13 -14 14 -4 0
11 3 11 15 1 13 -11 15 -8 15 19 0 21 -5 31 -15 31 -8 0 -15 -8 -15 -17 -1
-17 -1 -17 -14 0 -19 25 -26 21 -25 -15z"/>
<path d="M780 615 c0 -51 3 -65 15 -65 13 0 15 -20 15 -120 0 -91 -3 -119 -12
-117 -9 1 -14 -17 -16 -61 l-3 -62 101 0 100 0 0 66 c0 55 -3 65 -15 60 -12
-4 -15 5 -14 52 0 48 2 54 12 38 34 -52 50 -66 77 -66 18 0 31 6 34 18 4 9 15
28 26 42 l20 25 0 -52 c0 -41 -4 -53 -15 -53 -12 0 -15 -14 -15 -65 l0 -65
100 0 100 0 0 64 c0 54 -3 64 -17 62 -15 -1 -18 12 -21 112 -3 108 -3 114 17
119 19 5 21 13 21 69 l0 64 -83 0 -83 0 -22 -37 c-12 -21 -32 -55 -45 -77
l-24 -39 -44 77 -43 76 -83 0 -83 0 0 -65z m201 -66 c60 -105 50 -106 122 18
l42 73 53 0 c49 0 52 -1 52 -25 0 -18 -5 -25 -19 -25 -18 0 -20 -9 -20 -154
-1 -146 0 -154 19 -159 12 -3 20 -13 20 -26 0 -19 -6 -21 -60 -21 -57 0 -60 1
-60 25 0 16 6 25 15 25 13 0 15 23 15 147 l0 147 -57 -94 c-32 -51 -63 -95
-68 -97 -6 -2 -36 41 -68 94 l-57 98 0 -147 c0 -125 2 -148 15 -148 9 0 15 -9
15 -25 0 -24 -3 -25 -60 -25 -57 0 -60 1 -60 25 0 16 6 25 15 25 13 0 15 24
15 155 0 131 -2 155 -15 155 -9 0 -15 9 -15 25 0 24 3 25 54 25 l54 0 53 -91z"/>
<path d="M1370 615 c0 -51 3 -65 15 -65 12 0 15 -19 15 -115 0 -96 -3 -115
-15 -115 -12 0 -15 -14 -15 -65 l0 -65 186 2 187 3 1 78 1 77 -67 0 c-54 0
-68 -3 -68 -15 0 -10 -10 -15 -30 -15 -25 0 -30 4 -30 25 0 26 8 29 78 25 31
-1 32 0 33 39 1 23 2 51 2 64 1 20 -4 22 -56 25 -53 3 -57 5 -57 27 0 22 5 25
35 25 23 0 34 -4 32 -12 -1 -9 16 -13 62 -13 l63 0 0 63 c-1 34 -1 69 -1 77
-1 13 -28 15 -186 15 l-185 0 0 -65z m330 -16 c0 -36 -2 -40 -22 -37 -13 2
-22 9 -20 16 1 9 -20 12 -75 12 l-78 0 3 -65 4 -65 54 0 c47 0 54 -2 54 -20 0
-18 -7 -20 -54 -20 l-54 0 -4 -70 -3 -70 78 0 c55 0 76 3 75 12 -2 7 7 14 20
16 20 3 22 -1 22 -37 l0 -41 -145 0 c-140 0 -145 1 -145 21 0 11 8 23 18 25
15 5 17 20 16 147 -2 175 -1 167 -19 167 -9 0 -15 9 -15 25 l0 25 145 0 145 0
0 -41z"/>
<path d="M1842 637 l-42 -43 0 -159 0 -159 42 -43 42 -43 86 0 86 0 47 48 c44
45 47 51 47 100 l0 52 -70 0 -70 0 0 -35 c0 -32 -2 -35 -29 -35 -28 0 -30 2
-35 53 -6 63 -6 124 0 155 3 17 11 22 34 22 27 0 30 -3 30 -30 l0 -30 70 0 70
0 0 48 c0 42 -5 52 -46 95 l-45 47 -87 0 -88 0 -42 -43z m230 -24 c37 -36 39
-83 3 -83 -17 0 -25 5 -25 18 0 10 -5 23 -12 30 -16 16 -110 16 -126 0 -15
-15 -17 -251 -2 -279 9 -15 22 -19 63 -19 58 0 77 12 77 47 0 18 6 23 25 23
37 0 34 -45 -7 -87 -30 -31 -37 -33 -97 -33 -60 0 -68 3 -98 32 l-33 32 0 140
0 140 32 33 c30 31 36 33 102 33 62 0 73 -3 98 -27z"/>
<path d="M2284 503 c-32 -98 -62 -181 -67 -185 -6 -3 -16 -4 -24 -1 -10 4 -13
-10 -13 -61 l0 -66 100 0 100 0 0 60 c0 48 -3 60 -16 60 -9 0 -14 6 -12 13 3
7 26 13 56 15 42 2 52 0 52 -12 0 -9 -7 -16 -15 -16 -12 0 -15 -13 -15 -60 l0
-60 103 0 102 0 0 63 c0 55 -2 62 -20 62 -21 0 -38 42 -105 263 l-32 102 -68
0 -69 0 -57 -177z m194 40 c17 -54 42 -134 56 -178 15 -52 30 -81 40 -83 9 -2
16 -14 16 -28 0 -24 -2 -25 -57 -22 -47 2 -58 7 -61 21 -2 12 3 20 16 24 18 4
18 8 7 46 l-12 42 -78 0 -78 0 -12 -42 c-11 -37 -11 -42 6 -46 12 -3 16 -11
12 -26 -5 -18 -13 -21 -59 -21 -48 0 -53 2 -51 22 1 11 8 23 17 25 10 3 35 67
73 184 l58 179 38 0 39 0 30 -97z"/>
<path d="M2377 512 c-15 -44 -27 -85 -27 -91 0 -7 21 -11 55 -11 35 0 55 4 55
11 0 18 -41 153 -49 162 -4 4 -20 -28 -34 -71z m43 -59 c0 -7 -7 -13 -16 -13
-11 0 -14 5 -10 16 3 9 6 21 6 27 0 16 20 -14 20 -30z"/>
<path d="M2687 673 c-4 -3 -7 -31 -7 -61 0 -46 3 -55 20 -59 19 -5 20 -12 18
-122 -2 -95 -6 -116 -18 -116 -11 0 -16 -15 -18 -62 l-3 -63 101 0 100 0 0 60
c0 53 -2 60 -20 60 -18 0 -20 7 -20 58 1 69 4 66 80 -79 l53 -99 63 0 64 0 0
179 c0 166 1 179 19 184 15 4 18 14 17 63 l-2 59 -94 0 -95 0 -1 -57 c-1 -47
2 -57 17 -61 15 -4 19 -15 19 -48 0 -54 -5 -48 -70 74 l-52 97 -82 0 c-46 0
-86 -3 -89 -7z m185 -101 c20 -37 59 -107 87 -157 l51 -90 0 133 c0 111 -2
132 -15 132 -9 0 -15 9 -15 25 0 25 2 26 57 23 46 -2 57 -6 59 -22 2 -11 -5
-20 -17 -23 -18 -5 -19 -16 -19 -185 l0 -179 -32 3 c-31 3 -37 12 -123 166
-49 89 -92 162 -95 162 -3 0 -4 -63 -2 -140 2 -114 6 -140 18 -140 8 0 14 -10
14 -25 0 -24 -3 -25 -58 -25 -55 0 -59 2 -57 22 1 13 9 24 18 26 15 3 17 22
17 158 0 130 -2 154 -15 154 -9 0 -15 9 -15 25 0 24 3 25 53 25 l52 0 37 -68z"/>
<path d="M3200 619 c0 -53 3 -62 20 -66 19 -5 20 -12 18 -122 -2 -95 -6 -116
-18 -116 -11 0 -16 -15 -18 -63 l-3 -62 111 0 110 0 0 61 c0 52 -3 62 -20 66
-19 5 -20 14 -20 118 0 105 1 113 21 118 18 5 20 12 17 64 l-3 58 -107 3 -108
3 0 -62z m170 -4 c0 -16 -6 -25 -15 -25 -13 0 -15 -24 -15 -154 0 -144 1 -154
19 -159 14 -3 18 -11 14 -26 -5 -18 -13 -21 -64 -21 -56 0 -59 1 -59 25 0 16
6 25 15 25 13 0 15 24 15 155 0 131 -2 155 -15 155 -9 0 -15 9 -15 25 0 24 3
25 60 25 57 0 60 -1 60 -25z"/>
<path d="M3529 636 l-45 -44 -3 -153 -2 -152 47 -48 48 -49 86 0 86 0 42 43
c39 40 42 46 42 100 l0 57 -69 0 -68 0 1 -32 c1 -30 -2 -33 -32 -36 l-32 -3 0
115 0 116 29 0 c30 0 45 -19 35 -45 -5 -12 6 -15 65 -15 l71 0 0 53 c0 49 -3
56 -43 95 l-43 42 -84 0 -85 0 -46 -44z m228 -28 c41 -40 45 -78 8 -78 -17 0
-25 5 -25 18 0 10 -5 23 -12 30 -16 16 -110 16 -126 0 -18 -18 -17 -272 2
-287 8 -7 37 -11 68 -9 50 3 53 5 63 36 7 24 15 32 32 32 35 0 31 -46 -9 -87
-30 -31 -37 -33 -97 -33 -60 0 -68 3 -98 32 l-33 32 0 142 0 143 33 30 c29 28
38 31 97 31 59 0 67 -3 97 -32z"/>
<path d="M4025 668 c-3 -7 -31 -89 -63 -183 -47 -135 -62 -169 -75 -167 -14 2
-17 -7 -17 -63 l0 -65 95 0 95 0 0 60 c0 33 -4 60 -10 60 -5 0 -10 7 -10 15 0
11 12 15 50 15 38 0 50 -4 50 -15 0 -8 -7 -15 -15 -15 -12 0 -15 -13 -15 -60
l0 -60 105 0 106 0 -3 63 c-3 54 -6 62 -24 65 -18 3 -27 21 -53 110 -18 59
-42 139 -54 177 l-22 70 -68 3 c-48 2 -69 -1 -72 -10z m146 -153 c21 -66 46
-146 55 -177 12 -37 24 -58 36 -61 10 -3 18 -14 18 -26 0 -19 -6 -21 -60 -21
-57 0 -60 1 -60 25 0 16 6 25 15 25 18 0 18 2 3 51 l-11 39 -76 0 -76 0 -13
-42 c-12 -36 -11 -43 2 -50 9 -5 16 -18 16 -28 0 -17 -7 -20 -55 -20 -52 0
-55 1 -55 25 0 15 6 25 15 25 10 0 32 54 72 180 l58 181 39 -3 39 -3 38 -120z"/>
<path d="M4063 516 c-13 -41 -26 -81 -29 -90 -5 -14 3 -16 56 -16 52 0 61 2
56 16 -3 8 -16 49 -27 90 -12 41 -25 74 -28 74 -3 0 -16 -33 -28 -74z m37 -56
c0 -11 -4 -20 -10 -20 -5 0 -10 9 -10 20 0 11 5 20 10 20 6 0 10 -9 10 -20z"/>
</g>
</svg>
