<?xml version="1.0" encoding="UTF-8" standalone="no"?>
<svg xmlns:rdf="http://www.w3.org/1999/02/22-rdf-syntax-ns#" xmlns="http://www.w3.org/2000/svg" height="600" width="600" version="1.1" xmlns:cc="http://creativecommons.org/ns#" xmlns:dc="http://purl.org/dc/elements/1.1/" viewBox="0 0 600 600">
    <!-- <rect x="0" y="0" width="600" height="300" stroke="red" fill="none" stroke-width="0.2"/> -->
    <!-- <rect x="0" y="0" width="266" height="200" stroke="green" fill="none" stroke-width="0.1"/>
    <rect x="267" y="0" width="266" height="200" stroke="green" fill="none" stroke-width="0.1"/>
    <rect x="534" y="0" width="266" height="200" stroke="green" fill="none" stroke-width="0.1"/> -->
    <!-- <line x1="0" y1="0" x2="600" y2="300" style="stroke:rgb(255,0,0);stroke-width:0.2" />
    <line x1="0" y1="300" x2="600" y2="0" style="stroke:rgb(255,0,0);stroke-width:0.2" /> -->


    <!-- Vias a) -->
    <g>

      <path d="M0,190 600,190 600,200 0,200 0,190" fill="#B26D66" stroke="#666" stroke-width="1"/>
      <path d="M0,190 600,190 600,192 0,192 0,190" fill="#E5B7B2" stroke="#E5B7B2" stroke-width="1" opacity="0.5"/>
      <path d="M0,193 600,193 600,193 0,193 0,193" fill="#666" stroke="#666" stroke-width="0.5" opacity="1"/>
      <path d="M0,198 600,198 600,200 0,200 0,10" fill="#B26D66" stroke="#B26D66" stroke-width="1" opacity="0.5"/>
      <path d="M0,199 600,199 600,200 0,200 0,10" fill="#E5B7B2" stroke="#E5B7B2" stroke-width="1" opacity="0.5"/>

      <pattern id="pattern-checkers" x="0" y="0" width="20" height="5" patternUnits="userSpaceOnUse">
        <!-- Two instances of the same checker, only positioned apart on the `x` and `y` axis -->
        <!-- We will define the `fill` in the CSS for flexible use -->
        <rect class="checker" x="10" width="10" height="5" y="0" fill="gray" stroke="black" stroke-width="0.1"></rect>
        <!-- <rect class="checker" x="50" width="10" height="5" y="90"></rect> -->
      </pattern>

      <!-- Define the shape that will contain our pattern as the fill -->
      <rect x="0" y="200" width="600" height="5" fill="url(#pattern-checkers)"></rect>
    </g>
    <!-- Vias b) -->
    <!-- <g transform="translate(0,200)">
      <path d="M0,190 600,190 600,200 0,200 0,190" fill="#B26D66" stroke="#666" stroke-width="1"/>
      <path d="M0,190 600,190 600,192 0,192 0,190" fill="#E5B7B2" stroke="#E5B7B2" stroke-width="1" opacity="0.5"/>
      <path d="M0,193 600,193 600,193 0,193 0,193" fill="#666" stroke="#666" stroke-width="0.5" opacity="1"/>
      <path d="M0,198 600,198 600,200 0,200 0,10" fill="#B26D66" stroke="#B26D66" stroke-width="1" opacity="0.5"/>
      <path d="M0,199 600,199 600,200 0,200 0,10" fill="#E5B7B2" stroke="#E5B7B2" stroke-width="1" opacity="0.5"/>
    </g> -->
    <!-- vagon -->
    <g transform="translate(0,0), scale(0.5,0.5)">
      <!-- <rect x="0" y="0" width="600" height="150" stroke="red" fill="none" stroke-width="0.5"/> -->
      <path d="M20,0 A20 20 0 0 0 10 10 L0,20 600,20 590,10 A20 20 0 0 0 570 0 L20,0" fill="#F1E5DA" stroke="black" stroke-width="1" opacity="0.9"/>
      <rect x="0" y="20" width="600" height="130" stroke="black" fill="white" stroke-width="1"/>
      <g> <!-- door center -->
        <rect x="260" y="20" width="80" height="130" stroke="black" fill="white" stroke-width="0.5"/>
        <rect x="260" y="20" width="40" height="130" rx="3" ry="3" stroke="black" fill="#F1E5DA" stroke-width="2"/>
        <rect x="300" y="20" width="40" height="130" rx="3" ry="3" stroke="black" fill="#F1E5DA" stroke-width="2"/>
        <rect x="270" y="30" width="20" height="60" rx="5" ry="5" stroke="black" fill="#C6E2E3" stroke-width="2"/>
        <rect x="310" y="30" width="20" height="60" rx="5" ry="5" stroke="black" fill="#C6E2E3" stroke-width="2"/>
      </g>
      <g transform="translate(-200,0)"> <!-- door left-->
        <rect x="260" y="20" width="80" height="130" stroke="black" fill="white" stroke-width="0.5"/>
        <rect x="260" y="20" width="40" height="130" rx="3" ry="3" stroke="black" fill="#F1E5DA" stroke-width="2"/>
        <rect x="300" y="20" width="40" height="130" rx="3" ry="3" stroke="black" fill="#F1E5DA" stroke-width="2"/>
        <rect x="270" y="30" width="20" height="60" rx="5" ry="5" stroke="black" fill="#C6E2E3" stroke-width="2"/>
        <rect x="310" y="30" width="20" height="60" rx="5" ry="5" stroke="black" fill="#C6E2E3" stroke-width="2"/>
      </g>
      <g transform="translate(200,0)"> <!-- door rigth-->
        <rect x="260" y="20" width="80" height="130" stroke="black" fill="white" stroke-width="0.5"/>
        <rect x="260" y="20" width="40" height="130" rx="3" ry="3" stroke="black" fill="#F1E5DA" stroke-width="2"/>
        <rect x="300" y="20" width="40" height="130" rx="3" ry="3" stroke="black" fill="#F1E5DA" stroke-width="2"/>
        <rect x="270" y="30" width="20" height="60" rx="5" ry="5" stroke="black" fill="#C6E2E3" stroke-width="2"/>
        <rect x="310" y="30" width="20" height="60" rx="5" ry="5" stroke="black" fill="#C6E2E3" stroke-width="2"/>
      </g>
      <g> <!-- 5 Asientos left -->
        <rect x="150" y="100" width="100" height="40" rx="3" ry="3" stroke="black" fill="black" stroke-width="0.5"/>
        <g><!-- silla -->
          <rect x="150" y="130" width="20" height="10" rx="3" ry="3" stroke="black" fill="#B2CBCC" stroke-width="0.5"/>
          <rect x="150" y="100" width="20" height="25" rx="3" ry="3" stroke="black" fill="#B2CBCC" stroke-width="0.5"/>
        </g>
        <g transform="translate(20,0)"><!-- silla -->
          <rect x="150" y="130" width="20" height="10" rx="3" ry="3" stroke="black" fill="#B2CBCC" stroke-width="0.5"/>
          <rect x="150" y="100" width="20" height="25" rx="3" ry="3" stroke="black" fill="#B2CBCC" stroke-width="0.5"/>
        </g>
        <g transform="translate(40,0)"><!-- silla -->
          <rect x="150" y="130" width="20" height="10" rx="3" ry="3" stroke="black" fill="#F1E5DA" stroke-width="0.5"/>
          <rect x="150" y="100" width="20" height="25" rx="3" ry="3" stroke="black" fill="#F1E5DA" stroke-width="0.5"/>
        </g>
        <g transform="translate(60,0)"><!-- silla -->
          <rect x="150" y="130" width="20" height="10" rx="3" ry="3" stroke="black" fill="#B2CBCC" stroke-width="0.5"/>
          <rect x="150" y="100" width="20" height="25" rx="3" ry="3" stroke="black" fill="#B2CBCC" stroke-width="0.5"/>
        </g>
        <g transform="translate(80,0)"><!-- silla -->
          <rect x="150" y="130" width="20" height="10" rx="3" ry="3" stroke="black" fill="#B2CBCC" stroke-width="0.5"/>
          <rect x="150" y="100" width="20" height="25" rx="3" ry="3" stroke="black" fill="#B2CBCC" stroke-width="0.5"/>
        </g>
      </g>
      <g transform="translate(200,0)"> <!-- 5 Asientos rigth -->
        <rect x="150" y="100" width="100" height="40" rx="3" ry="3" stroke="black" fill="black" stroke-width="0.5"/>
        <g><!-- silla -->
          <rect x="150" y="130" width="20" height="10" rx="3" ry="3" stroke="black" fill="#B2CBCC" stroke-width="0.5"/>
          <rect x="150" y="100" width="20" height="25" rx="3" ry="3" stroke="black" fill="#B2CBCC" stroke-width="0.5"/>
        </g>
        <g transform="translate(20,0)"><!-- silla -->
          <rect x="150" y="130" width="20" height="10" rx="3" ry="3" stroke="black" fill="#B2CBCC" stroke-width="0.5"/>
          <rect x="150" y="100" width="20" height="25" rx="3" ry="3" stroke="black" fill="#B2CBCC" stroke-width="0.5"/>
        </g>
        <g transform="translate(40,0)"><!-- silla -->
          <rect x="150" y="130" width="20" height="10" rx="3" ry="3" stroke="black" fill="#F1E5DA" stroke-width="0.5"/>
          <rect x="150" y="100" width="20" height="25" rx="3" ry="3" stroke="black" fill="#F1E5DA" stroke-width="0.5"/>
        </g>
        <g transform="translate(60,0)"><!-- silla -->
          <rect x="150" y="130" width="20" height="10" rx="3" ry="3" stroke="black" fill="#B2CBCC" stroke-width="0.5"/>
          <rect x="150" y="100" width="20" height="25" rx="3" ry="3" stroke="black" fill="#B2CBCC" stroke-width="0.5"/>
        </g>
        <g transform="translate(80,0)"><!-- silla -->
          <rect x="150" y="130" width="20" height="10" rx="3" ry="3" stroke="black" fill="#B2CBCC" stroke-width="0.5"/>
          <rect x="150" y="100" width="20" height="25" rx="3" ry="3" stroke="black" fill="#B2CBCC" stroke-width="0.5"/>
        </g>
      </g>
      <g transform="translate(400,0)"> <!-- 2 Asientos rigth -->
        <rect x="150" y="100" width="40" height="40" rx="3" ry="3" stroke="black" fill="black" stroke-width="0.5"/>
        <g><!-- silla -->
          <rect x="150" y="130" width="20" height="10" rx="3" ry="3" stroke="black" fill="#B2CBCC" stroke-width="0.5"/>
          <rect x="150" y="100" width="20" height="25" rx="3" ry="3" stroke="black" fill="#B2CBCC" stroke-width="0.5"/>
        </g>
        <g transform="translate(20,0)"><!-- silla -->
          <rect x="150" y="130" width="20" height="10" rx="3" ry="3" stroke="black" fill="#B2CBCC" stroke-width="0.5"/>
          <rect x="150" y="100" width="20" height="25" rx="3" ry="3" stroke="black" fill="#B2CBCC" stroke-width="0.5"/>
        </g>
      </g>
      <g transform="translate(-140,0)"> <!-- 2 Asientos left -->
        <rect x="150" y="100" width="40" height="40" rx="3" ry="3" stroke="black" fill="black" stroke-width="0.5"/>
        <g><!-- silla -->
          <rect x="150" y="130" width="20" height="10" rx="3" ry="3" stroke="black" fill="#B2CBCC" stroke-width="0.5"/>
          <rect x="150" y="100" width="20" height="25" rx="3" ry="3" stroke="black" fill="#B2CBCC" stroke-width="0.5"/>
        </g>
        <g transform="translate(20,0)"><!-- silla -->
          <rect x="150" y="130" width="20" height="10" rx="3" ry="3" stroke="black" fill="#B2CBCC" stroke-width="0.5"/>
          <rect x="150" y="100" width="20" height="25" rx="3" ry="3" stroke="black" fill="#B2CBCC" stroke-width="0.5"/>
        </g>
      </g>
      <g> <!-- Tubos -->
          <rect x="45" y="20" width="2" height="130" stroke="black" fill="#E5E5E5" stroke-width="0.5"/>
          <rect x="153" y="20" width="2" height="130" stroke="black" fill="#E5E5E5" stroke-width="0.5"/>
          <rect x="245" y="20" width="2" height="130" stroke="black" fill="#E5E5E5" stroke-width="0.5"/>
          <rect x="353" y="20" width="2" height="130" stroke="black" fill="#E5E5E5" stroke-width="0.5"/>
          <rect x="445" y="20" width="2" height="130" stroke="black" fill="#E5E5E5" stroke-width="0.5"/>
          <rect x="553" y="20" width="2" height="130" stroke="black" fill="#E5E5E5" stroke-width="0.5"/>
          <rect x="0" y="30" width="48" height="2" stroke="black" fill="#E5E5E5" stroke-width="0.5"/>
          <rect x="153" y="30" width="94" height="2" stroke="black" fill="#E5E5E5" stroke-width="0.5"/>
          <rect x="353" y="30" width="94" height="2" stroke="black" fill="#E5E5E5" stroke-width="0.5"/>
          <rect x="553" y="30" width="48" height="2" stroke="black" fill="#E5E5E5" stroke-width="0.5"/>
          <rect x="45" y="110" width="10" height="1" stroke="black" fill="#E5E5E5" stroke-width="0.5"/>
          <rect x="145" y="110" width="10" height="1" stroke="black" fill="#E5E5E5" stroke-width="0.5"/>
          <rect x="245" y="110" width="10" height="1" stroke="black" fill="#E5E5E5" stroke-width="0.5"/>
          <rect x="345" y="110" width="10" height="1" stroke="black" fill="#E5E5E5" stroke-width="0.5"/>
          <rect x="445" y="110" width="10" height="1" stroke="black" fill="#E5E5E5" stroke-width="0.5"/>
          <rect x="545" y="110" width="10" height="1" stroke="black" fill="#E5E5E5" stroke-width="0.5"/>
      </g>
      <g> <!-- ruedas left-->
        <rect x="75" y="150" width="50" height="20" stroke="black" fill="black" stroke-width="0.5"/>
        <circle cx="45" cy="170" r="15" fill="#B26D66" stroke="black" stroke-width="2" opacity="0.9"/>
        <circle cx="45" cy="170" r="3" fill="#B26D66" stroke="black" stroke-width="2" opacity="0.9"/>
        <circle cx="155" cy="170" r="15" fill="#B26D66" stroke="black" stroke-width="2" opacity="0.9"/>
        <circle cx="155" cy="170" r="3" fill="#B26D66" stroke="black" stroke-width="2" opacity="0.9"/>
        <path d="M40,160 L60,160 L70,165 L130,165 L140,160 L160,160 L165,170 L140,170 L130,180 L70,180 L60,170 L35,170 L40,160" fill="#B26D66" stroke="black" stroke-width="2" opacity="1"/>
      </g>
      <g transform="translate(400,0)"> <!-- ruedas right -->
        <rect x="75" y="150" width="50" height="20" stroke="black" fill="black" stroke-width="0.5"/>
        <circle cx="45" cy="170" r="15" fill="#B26D66" stroke="black" stroke-width="2" opacity="0.9"/>
        <circle cx="45" cy="170" r="3" fill="#B26D66" stroke="black" stroke-width="2" opacity="0.9"/>
        <circle cx="155" cy="170" r="15" fill="#B26D66" stroke="black" stroke-width="2" opacity="0.9"/>
        <circle cx="155" cy="170" r="3" fill="#B26D66" stroke="black" stroke-width="2" opacity="0.9"/>
        <path d="M40,160 L60,160 L70,165 L130,165 L140,160 L160,160 L165,170 L140,170 L130,180 L70,180 L60,170 L35,170 L40,160" fill="#B26D66" stroke="black" stroke-width="2" opacity="1"/>
      </g>
      <g transform="translate(249,150) scale(0.05, -0.05)" fill="#000000" stroke="none"> <!-- persona -->
        <path d="M935 1984 c-66 -34 -104 -97 -105 -172 0 -115 78 -192 196 -192 70 0 131 32 166 87 35 57 33 154 -5 211 -15 23 -45 51 -67 62 -48 25 -142 27 -185 4z" fill="#E5B7B2"/>
        <path d="M795 1561 c-84 -38 -175 -180 -175 -273 0 -27 -4 -48 -9 -48 -5 0 -16 -28 -25 -62 -9 -35 -19 -74 -22 -87 l-7 -24 79 7 c116 9 138 17 144 51 3 16 11 30 18 31 7 1 8 0 2 -3 -13 -6 -13 -43 0 -43 15 0 80 61 75 71 -3 4 9 16 27 25 18 9 46 28 63 43 30 26 30 26 9 1 -11 -14 -29 -45 -39 -68 -20 -47 -85 -109 -122 -118 l-23 -6 0 -490 c0 -510 0 -515 44 -550 24 -20 96 -24 127 -8 47 26 49 43 49 460 0 340 2 390 15 390 13 0 15 -51 15 -401 l0 -401 29 -29 c25 -24 38 -29 78 -29 42 0 54 5 79 31 l29 30 5 632 c4 527 7 624 17 586 20 -74 34 -272 27 -374 -7 -91 -6 -94 19 -119 31 -31 66 -33 98 -7 24 19 24 21 24 218 -1 276 -32 412 -116 508 -57 65 -92 75 -268 75 -142 0 -153 -1 -148 -17 24 -72 47 -161 47 -178 0 -18 -5 -20 -36 -17 -24 3 -32 7 -23 13 11 6 11 17 0 61 -17 65 -48 138 -58 138 -4 0 -26 -9 -48 -19z"/>
        <path d="M746 1040 c-16 -5 -68 -12 -114 -16 l-84 -7 5 -39 c11 -84 83 -148 185 -164 l42 -7 0 122 c0 66 -1 121 -2 120 -2 0 -16 -5 -32 -9z"/>
      </g>
      <g transform="translate(256,70) scale(0.007,-0.007)"> <!-- pelo de goku -->
        <path  fill="gray" stroke="black" d="M5360 6380 c0 -10 15 -66 70 -260 13 -45 108 -445 164 -690 28 -119 35 -151 60 -260 60 -261 66 -295 66 -401 0 -59 -4 -110 -10 -114 -5 -3 -37 21 -72 54 -275 257 -512 421 -678 467 -88 24 -552 38 -794 24 -109 -6 -220 -15 -245 -19 -25 -5 -77 -14 -116 -21 -215 -37 -508 -137 -710 -241 -78 -41 -88 -62 -40 -88 427 -228 827 -584 1189 -1055 102 -132 335 -475 370 -543 33 -66 20 -76 -116 -98 -51 -9 -120 -20 -153 -26 -33 -6 -82 -15 -110 -20 -160 -28 -321 -63 -395 -86 -178 -53 -378 -169 -570 -328 -117 -98 -342 -302 -353 -321 -11 -20 -1 -22 168 -28 179 -6 253 -15 488 -57 62 -11 305 -71 362 -89 248 -79 526 -182 527 -195 1 -9 -118 -99 -419 -317 -62 -44 -113 -85 -113 -89 0 -4 4 -10 10 -14 11 -7 1061 -7 1068 0 3 2 -7 21 -22 40 -37 48 -110 207 -124 270 -31 134 -44 335 -22 335 5 0 26 -33 46 -72 49 -97 101 -173 158 -228 52 -51 136 -105 180 -116 27 -6 29 -5 22 17 -41 142 -49 191 -49 297 -1 62 4 117 9 122 9 9 32 -27 132 -210 60 -111 84 -150 91 -150 4 0 13 39 20 88 29 205 88 382 173 526 58 96 195 253 210 238 5 -5 5 -45 -1 -98 -24 -211 -44 -464 -38 -471 18 -17 185 57 283 126 92 65 154 132 252 276 137 202 215 300 237 299 11 -1 60 -12 109 -25 84 -23 91 -27 122 -69 18 -25 43 -76 56 -115 20 -62 23 -88 22 -235 -1 -150 -3 -176 -32 -288 -17 -67 -47 -162 -67 -211 -19 -49 -35 -91 -35 -95 0 -19 33 3 123 81 299 262 478 413 487 413 19 0 10 -23 -65 -177 -78 -160 -87 -188 -57 -179 49 16 186 36 192 29 4 -4 -12 -48 -36 -98 -49 -102 -55 -130 -24 -120 11 3 81 42 156 86 75 43 138 79 140 79 1 0 31 16 64 36 34 20 64 33 67 30 3 -3 -24 -92 -61 -199 -36 -107 -66 -200 -66 -207 0 -10 24  -12 123 -7 67 4 235 11 372 17 294 12 345 17 345 35 0 8 -10 17 -22 21 -12 4 -86 37 -163 74 -77 37 -157 73 -178 81 -23 8 -37 19 -35 27 2 9 85 42 218 86 768 258 757 254 744 265 -5 5 -79 19 -164 30 -85 12 -186 26 -225 32 -130 19 -200 28 -253 35 -33 4 -52 10 -49 18 2 6 35 27 73 46 70 36 314 164 479 250 50 26 185 96 300 156 116 59 232 119 259 134 27 14 51 30 53 36 2 6 -46 22 -114 37 -248 57 -444 82 -755 99 -164 8 -228 15 -228 24 0 6 6 14 13 17 6 2 75 51 152 109 77 57 178 132 225 166 148 109 149 114 30 102 -41 -4 -133 -13 -205 -19 -159 -14 -319 -29 -445 -41 -52 -5 -178 -17 -279 -27 l-184 -18 -15 24 c-9 13 -32 71 -52 130 -48 143 -91 219 -169 303 -93 101 -177 158 -376 258 -91 46 -94 54 -115 370 -19 285 -31 414 -50 545 -41 280 -86 379 -252 565 -207 232 -509 465 -789 607 -167 86 -239 114 -469 183 -41 13 -81 25 -87 27 -7 3 -13 0 -13 -7z"/>
      </g>

      <g transform="translate(291,104) scale(0.003,-0.003)" fill="#fff" stroke="none"> <!-- tiger -->
        <path d="M759 5500 c-70 -9 -143 -25 -165 -36 -34 -17 -42 -27 -62 -84 -53 -153 -94 -365 -68 -357 6 2 36 46 67 97 31 52 75 111 97 132 l41 38 126 0 125 0 72 66 c71 65 72 66 117 59 103 -16 195 -71 381 -227 192 -162 241 -186 345 -173 75 9 119 47 141 122 9 30 13 61 10 69 -7 18 -46 18 -116 -1 -30 -8 -65 -15 -78 -15 -30 0 -116 39 -207 95 -201 122 -389 195 -564 219 -61 9 -117 16 -124 15 -7 -1 -69 -9 -138 -19z"/>
        <path d="M5354 5500 c-61 -11 -148 -33 -195 -50 -84 -31 -292 -136 -404 -204 -93 -57 -121 -62 -213 -41 -104 23 -118 20 -115 -29 4 -57 39 -124 77 -143 19 -11 57 -17 101 -17 94 -1 132 19 292 153 214 179 302 233 405 247 43 6 45 5 116 -60 l72 -66 125 0 125 0 43 -39 c23 -22 57 -65 76 -98 86 -148 102 -163 95 -90 -9 88 -40 214 -83 334 -22 62 -53 79 -172 97 -169 25 -227 26 -345 6z"/>
        <path d="M2922 4900 c-67 -44 -128 -80 -137 -80 -8 0 -52 19 -98 41 -105 52 -120 50 -199 -36 -33 -35 -82 -78 -109 -96 -68 -44 -185 -78 -309 -90 -79 -7 -108 -14 -118 -27 -7 -9 -43 -65 -81 -123 -38 -58 -135 -196 -217 -305 -266 -357 -366 -522 -380 -627 -6 -39 -4 -46 15 -56 26 -14 43 -6 96 48 45 47 87 55 106 20 14 -27 3 -124 -22 -198 -23 -66 -25 -161 -4 -202 16 -30 83 -79 109 -79 20 0 31 -19 14 -24 -7 -3 -38 -12 -69 -20 -124 -34 -200 -144 -219 -316 -12 -104 -7 -140 41 -299 25 -85 26 -96 13 -116 -13 -19 -13 -28 -1 -62 34 -98 164 -249 280 -324 74 -48 109 -50 159 -9 71 59 217 305 186 314 -7 2 -40 9 -73 16 -133 27 -289 120 -325 194 -19 39 -20 51 -10 107 22 138 9 179 -55 179 -68 0 -80 21 -49 83 24 47 103 137 121 137 20 0 165 -98 226 -152 49 -44 56 -62 44 -111 -6 -22 -2 -33 17 -52 22 -22 34 -25 94 -25 38 0 90 6 116 14 45 14 116 54 116 67 0 3 -21 11 -48 17 -63 17 -135 59 -200 117 -72 65 -226 255 -210 259 46 13 96 26 102 26 3 0 18 -19 33 -42 53 -82 115 -157 153 -183 24 -17 76 -36 134 -50 52 -12 106 -29 120 -38 39 -26 75 -79 148 -221 54 -103 74 -155 95 -243 21 -90 30 -113 44 -113 45 0 99 165 99 300 0 122 -40 241 -99 294 -18 16 -19 16 -29 -13 -15 -43 -29 -39 -37 12 -9 58 -33 133 -61 189 -57 114 -139 169 -289 194 -87 15 -115 15 -241 4 -163 -15 -184 -11 -235 48 -48 54 -69 108 -69 178 0 62 10 87 81 211 l24 42 -38 34 c-20 19 -37 44 -37 55 0 65 234 426 355 547 80 81 224 192 261 201 15 4 41 -1 66 -12 l41 -18 58 32 c56 31 166 65 316 98 64 14 81 14 150 1 43 -8 83 -12 90 -10 31 12 42 122 18 180 -22 53 -18 82 18 127 72 89 62 87 -91 -14z m-737 -1802 c11 -68 21 -80 63 -76 29 2 40 9 50 31 7 15 17 27 22 27 8 0 34 -32 54 -68 9 -16 -66 -90 -100 -98 -57 -15 -160 23 -181 66 -7 14 -13 55 -13 93 l0 67 49 0 49 0 7 -42z"/>
        <path d="M3355 4969 c5 -8 24 -32 42 -55 37 -46 40 -66 17 -124 -21 -53 -15 -144 12 -170 18 -17 23 -18 94 -4 65 13 84 13 150 -1 143 -28 263 -65 314 -96 l51 -32 53 19 c54 18 54 18 95 -4 87 -46 243 -188 319 -289 148 -197 247 -358 263 -431 6 -29 3 -36 -32 -68 l-38 -35 24 -42 c71 -124 81 -149 81 -211 0 -70 -21 -124 -69 -178 -51 -59 -72 -63 -236 -48 -292 27 -446 -32 -530 -203 -33 -69 -65 -171 -65 -209 0 -28 -20 -21 -34 13 l-13 30 -30 -35 c-36 -40 -71 -127 -84 -208 -11 -67 2 -171 32 -261 26 -77 44 -107 68 -107 18 0 27 23 56 160 9 40 41 116 83 196 104 201 135 233 242 254 146 29 186 57 285 198 33 48 63 81 70 78 7 -2 33 -8 59 -11 25 -4 46 -9 46 -11 0 -2 -36 -49 -81 -104 -133 -164 -234 -244 -341 -272 -27 -6 -48 -14 -48 -17 0 -13 71 -53 116 -67 26 -8 78 -14 116 -14 59 0 72 3 93 24 21 21 23 28 14 61 -12 44 0 66 63 117 75 61 194 138 211 138 22 0 112 -110 127 -155 15 -46 1 -65 -49 -65 -21 0 -46 -6 -56 -14 -18 -13 -18 -20 -8 -122 10 -101 10 -112 -9 -152 -35 -74 -194 -166 -339 -196 -32 -6 -60 -14 -63 -17 -9 -8 70 -155 120 -226 54 -75 101 -113 140 -113 56 0 191 101 273 203 87 110 122 202 91 233 -7 7 -3 36 15 93 46 146 54 202 44 307 -17 180 -90 283 -232 325 l-70 21 53 27 c81 42 95 66 94 164 -1 50 -8 100 -18 127 -23 63 -32 165 -16 185 22 26 65 18 96 -17 88 -105 154 -73 107 52 -48 128 -128 253 -368 575 -140 187 -262 365 -285 416 -11 25 -18 27 -99 33 -194 15 -342 76 -438 180 -60 65 -87 85 -117 86 -10 0 -54 -18 -97 -40 -43 -22 -86 -40 -95 -40 -8 0 -66 34 -128 75 -122 80 -155 98 -141 74z m975 -1901 c0 -84 -12 -104 -77 -137 -60 -30 -111 -27 -159 7 -68 49 -70 56 -40 102 14 22 30 40 34 40 4 0 16 -13 25 -30 32 -53 107 -36 107 24 0 8 4 26 10 40 8 23 15 26 55 26 l45 0 0 -72z"/>
        <path d="M430 4801 c0 -44 10 -85 40 -165 99 -264 129 -308 246 -367 73 -37 95 -54 136 -106 53 -67 68 -76 68 -42 0 85 200 243 324 256 46 5 56 3 76 -17 18 -18 21 -29 16 -64 -9 -60 -68 -174 -139 -269 -98 -131 -337 -363 -432 -419 -166 -98 -241 -179 -286 -308 -22 -63 -23 -81 -30 -515 -6 -424 -15 -560 -44 -696 -8 -37 19 -99 43 -99 45 0 187 204 225 325 9 28 24 93 33 145 15 85 15 120 4 341 -15 291 -11 350 31 461 76 197 191 344 539 688 354 349 425 436 445 543 17 89 -48 141 -175 142 -120 0 -208 -46 -355 -186 -124 -117 -181 -159 -220 -159 -41 0 -82 33 -122 95 -18 29 -35 45 -49 45 -40 0 -124 52 -178 111 -59 63 -105 141 -151 252 -15 37 -32 67 -37 67 -4 0 -8 -26 -8 -59z"/>
        <path d="M5954 4843 c-44 -125 -110 -240 -183 -317 -46 -48 -128 -96 -166 -96 -13 0 -30 -16 -48 -45 -40 -62 -81 -95 -122 -95 -38 0 -78 29 -229 168 -124 114 -228 172 -322 180 -75 6 -137 -14 -179 -56 -24 -24 -27 -32 -22 -74 14 -113 77 -192 445 -558 351 -348 464 -490 537 -675 46 -117 50 -163 35 -456 -14 -282 -11 -331 31 -484 32 -118 183 -345 229 -345 43 0 52 89 23 245 -12 70 -17 193 -23 545 -7 475 -7 475 -53 580 -9 19 -36 60 -60 90 -40 51 -73 76 -247 189 -30 20 -99 79 -154 131 -247 238 -397 471 -365 567 25 76 162 46 303 -67 50 -40 106 -119 106 -149 0 -34 17 -24 60 34 43 58 91 95 153 116 60 21 112 80 161 182 63 131 116 289 116 347 0 50 -15 75 -26 43z"/>
        <path d="M3285 4443 c-22 -22 -12 -56 35 -119 52 -69 54 -85 10 -97 -76 -20 -75 -38 6 -163 103 -155 183 -203 359 -211 55 -2 106 0 113 5 8 5 16 28 19 51 3 23 10 44 15 47 8 5 44 -13 150 -78 35 -22 77 -38 107 -42 39 -5 55 -13 75 -37 44 -52 79 -119 78 -151 -1 -39 -45 -132 -132 -278 -38 -65 -70 -121 -70 -124 0 -19 60 3 189 70 145 76 246 141 288 185 23 25 42 91 43 145 0 45 -27 125 -54 158 l-24 29 -28 -43 -28 -42 -16 23 c-8 13 -44 53 -80 89 -105 106 -262 189 -445 236 -103 27 -124 29 -160 12 -31 -14 -31 -21 0 -62 59 -78 8 -89 -80 -18 -73 58 -78 72 -31 72 32 0 36 3 36 25 0 44 -234 271 -327 319 -29 15 -33 15 -48 -1z"/>
        <path d="M3037 4419 c-63 -41 -250 -221 -278 -265 -24 -39 -19 -51 26 -56 17 -2 30 -7 29 -13 0 -16 -116 -105 -136 -105 -30 0 -32 28 -4 64 33 44 33 51 -4 66 -36 15 -74 10 -195 -25 -210 -61 -403 -186 -486 -314 l-15 -24 -22 36 c-12 21 -27 37 -34 37 -20 0 -57 -65 -70 -120 -9 -38 -9 -66 0 -113 10 -54 17 -67 56 -103 85 -78 428 -266 448 -246 7 7 -13 50 -60 129 -150 254 -156 275 -107 358 53 88 71 104 127 111 29 4 71 21 106 42 153 94 162 96 162 37 0 -51 21 -65 99 -65 140 0 228 29 306 102 44 40 155 206 155 232 0 19 -22 35 -59 42 -43 9 -47 21 -21 56 59 80 81 120 78 140 -5 35 -45 34 -101 -3z"/>
        <path d="M2932 3890 c-31 -13 -109 -96 -131 -139 -31 -60 -41 -108 -29 -141 5 -17 14 -30 19 -30 9 0 249 270 249 280 -1 29 -66 48 -108 30z"/>
        <path d="M3398 3893 c-39 -10 -18 -50 92 -177 61 -69 117 -126 125 -126 9 0 21 11 27 25 15 34 -1 87 -52 163 -58 86 -134 132 -192 115z"/>
        <path d="M1128 3391 c-104 -95 -196 -270 -238 -453 -31 -134 -26 -206 18 -251 47 -49 51 -74 35 -242 -7 -83 -11 -172 -7 -200 10 -77 48 -179 151 -405 14 -30 32 -72 40 -92 15 -37 52 -62 110 -74 16 -3 65 2 108 12 136 29 145 29 192 -5 51 -37 99 -101 113 -149 7 -29 6 -44 -10 -80 -26 -58 -25 -67 10 -129 35 -60 86 -103 123 -103 15 0 27 2 27 4 0 24 34 168 55 230 50 152 128 290 264 470 50 65 80 114 77 123 -7 17 -19 9 -316 -211 -150 -111 -198 -141 -208 -133 -8 6 -31 45 -52 87 -21 42 -51 91 -65 108 -27 32 -27 32 -123 32 -117 0 -152 14 -197 81 -86 126 -131 436 -114 778 10 198 22 291 44 344 21 52 19 73 -12 96 l-28 20 32 92 c18 51 31 95 29 96 -2 2 -28 -19 -58 -46z"/>
        <path d="M5225 3419 c4 -13 18 -51 31 -83 30 -75 30 -92 -1 -112 -30 -20 -31 -33 -6 -105 30 -83 44 -286 38 -536 -6 -303 -46 -487 -126 -592 -37 -48 -75 -61 -185 -61 -92 0 -95 -1 -119 -30 -14 -16 -47 -70 -73 -120 -26 -49 -50 -90 -53 -90 -3 0 -118 84 -255 185 -301 223 -324 229 -188 52 95 -123 138 -190 193 -300 41 -80 109 -263 109 -292 0 -8 5 -37 11 -65 9 -44 14 -50 35 -50 36 0 91 46 125 104 35 61 36 79 7 132 -21 41 -21 42 -4 88 21 56 111 152 150 162 16 4 60 -1 104 -12 99 -23 167 -23 213 -1 30 15 41 31 69 95 18 42 48 109 66 147 100 220 119 300 104 444 -6 58 -12 140 -13 182 -2 75 -1 77 35 117 46 51 52 75 44 161 -20 216 -154 487 -288 582 l-30 22 7 -24z"/>
        <path d="M2782 1339 c-49 -18 -51 -105 -4 -169 32 -43 37 -47 137 -114 93 -62 168 -138 224 -227 56 -88 60 -92 76 -79 8 7 27 35 43 63 56 98 112 157 212 222 98 65 163 126 180 171 15 39 12 110 -5 124 -29 24 -103 13 -179 -27 -260 -137 -256 -137 -453 -37 -141 73 -190 88 -231 73z"/>
      </g>
        <!-- lights -->
        <circle cx="20" cy="70" r="15" fill="black" stroke="black" stroke-width="1" opacity="0.9"/>
        <circle cx="20" cy="70" r="10" fill="darkred" stroke="black" stroke-width="1" opacity="0.9"/>
        <circle cx="20" cy="70" r="10" fill="#ff3f34" stroke="black" stroke-width="1" opacity="0.9">
          <!-- <animateMotion dur="15s" fill="freeze" repeatCount="indefinite" rotate="auto" begin="0s" path="M0,0 300,0" additive="sum"/> -->
          <animate attributeName="cx" from="0" to="300" dur="15s" begin="0s" values="20; 20; 250; 250; 250; 250; 250" keyTimes="0; 0.35; 0.45; 0.6; 0.75; 0.9; 1" fill="freeze" repeatCount="indefinite" />
        </circle>

        <circle cx="580" cy="70" r="15" fill="black" stroke="black" stroke-width="1" opacity="0.9"/>
        <circle cx="580" cy="70" r="10" fill="darkgreen" stroke="black" stroke-width="1" opacity="0.9"/>
        <circle cx="580" cy="70" r="10" fill="#66ff00" stroke="black" stroke-width="1" opacity="0.9">
          <!-- <animateMotion dur="10s" fill="freeze" repeatCount="indefinite"  begin="0s" path="M0,0 -300,0" additive="sum"/> -->
          <animate attributeName="cx" from="0" to="300" dur="15s" begin="0s" values="0; 0; -330; -330; -330; -330; -330" keyTimes="0; 0.35; 0.45; 0.6; 0.75; 0.9; 1" fill="freeze" repeatCount="indefinite" additive="sum"/>
        </circle>
         <circle cx="250" cy="70" r="10" fill="#FDD005" stroke="#FDD005" stroke-width="2" opacity="0.9">
          <animate attributeName="opacity" from="0" to="1" dur="15s" begin="0s" values="0; 0; 0; 1; 1; 1; 1" keyTimes="0; 0.35; 0.45; 0.6; 0.75; 0.9; 1" fill="freeze" repeatCount="indefinite" />
        </circle>
        <circle cx="250" cy="70" r="1" fill="#C68E17" stroke="#C68E17" stroke-width="2" opacity="0.9">
          <animate attributeName="opacity" from="0" to="1" dur="15s" begin="0s" values="0; 0; 0; 1; 1; 1; 1" keyTimes="0; 0.35; 0.45; 0.6; 0.75; 0.9; 1" fill="freeze" repeatCount="indefinite" />
        </circle>
        <path d="M50,10  150,10 140,5 150,10 140,15" stroke="red" fill="none" stroke-width="2" opacity="1"/>
        <text x="90" y="1" font-size="50" font-style="italic" stroke="red" fill="red">-v</text>
        <text x="65" y="1" font-size="50" font-style="italic" stroke="black" fill="black">v</text>
        <path d="M550,10  450,10 460,5 450,10 460,15" stroke="green" fill="none" stroke-width="3" opacity="1"/>
        <text x="490" y="1" font-size="50" font-style="italic" stroke="green" fill="green">+v</text>
        <text x="470" y="1" font-size="50" font-style="italic" stroke="black" fill="black">v</text>
        <path d="M600,-10  650,-10 640,-5 650,-10 640,-15" stroke="black" fill="none" stroke-width="3" opacity="1"/>
        <text x="600" y="-20" font-size="50" font-style="italic" stroke="black" fill="black">+v</text>


      <animateMotion dur="15s" fill="freeze" repeatCount="indefinite" rotate="auto" begin="0s" path="M-200,96 500,96" />
    </g>
    <!-- <line x1="60" x2="60" y1="0" y2="300" stroke="black" opacity="0.2"/>
    <line x1="340" x2="340" y1="0" y2="300" stroke="black" opacity="0.2"/> -->


    <g transform="translate(50,200) scale(0.5,0.5)">  <!-- marco de referencia en tierra -->


      <g transform="translate(249,150) scale(0.05, -0.05)" fill="#000000" stroke="none"> <!-- persona -->
        <path d="M935 1984 c-66 -34 -104 -97 -105 -172 0 -115 78 -192 196 -192 70 0 131 32 166 87 35 57 33 154 -5 211 -15 23 -45 51 -67 62 -48 25 -142 27 -185 4z" fill="#E5B7B2"/>
        <path d="M795 1561 c-84 -38 -175 -180 -175 -273 0 -27 -4 -48 -9 -48 -5 0 -16 -28 -25 -62 -9 -35 -19 -74 -22 -87 l-7 -24 79 7 c116 9 138 17 144 51 3 16 11 30 18 31 7 1 8 0 2 -3 -13 -6 -13 -43 0 -43 15 0 80 61 75 71 -3 4 9 16 27 25 18 9 46 28 63 43 30 26 30 26 9 1 -11 -14 -29 -45 -39 -68 -20 -47 -85 -109 -122 -118 l-23 -6 0 -490 c0 -510 0 -515 44 -550 24 -20 96 -24 127 -8 47 26 49 43 49 460 0 340 2 390 15 390 13 0 15 -51 15 -401 l0 -401 29 -29 c25 -24 38 -29 78 -29 42 0 54 5 79 31 l29 30 5 632 c4 527 7 624 17 586 20 -74 34 -272 27 -374 -7 -91 -6 -94 19 -119 31 -31 66 -33 98 -7 24 19 24 21 24 218 -1 276 -32 412 -116 508 -57 65 -92 75 -268 75 -142 0 -153 -1 -148 -17 24 -72 47 -161 47 -178 0 -18 -5 -20 -36 -17 -24 3 -32 7 -23 13 11 6 11 17 0 61 -17 65 -48 138 -58 138 -4 0 -26 -9 -48 -19z"/>
        <path d="M746 1040 c-16 -5 -68 -12 -114 -16 l-84 -7 5 -39 c11 -84 83 -148 185 -164 l42 -7 0 122 c0 66 -1 121 -2 120 -2 0 -16 -5 -32 -9z"/>
      </g>
      <g transform="translate(256,70) scale(0.007,-0.007)"> <!-- pelo de goku -->
        <path  fill="gray" stroke="black" d="M5360 6380 c0 -10 15 -66 70 -260 13 -45 108 -445 164 -690 28 -119 35 -151 60 -260 60 -261 66 -295 66 -401 0 -59 -4 -110 -10 -114 -5 -3 -37 21 -72 54 -275 257 -512 421 -678 467 -88 24 -552 38 -794 24 -109 -6 -220 -15 -245 -19 -25 -5 -77 -14 -116 -21 -215 -37 -508 -137 -710 -241 -78 -41 -88 -62 -40 -88 427 -228 827 -584 1189 -1055 102 -132 335 -475 370 -543 33 -66 20 -76 -116 -98 -51 -9 -120 -20 -153 -26 -33 -6 -82 -15 -110 -20 -160 -28 -321 -63 -395 -86 -178 -53 -378 -169 -570 -328 -117 -98 -342 -302 -353 -321 -11 -20 -1 -22 168 -28 179 -6 253 -15 488 -57 62 -11 305 -71 362 -89 248 -79 526 -182 527 -195 1 -9 -118 -99 -419 -317 -62 -44 -113 -85 -113 -89 0 -4 4 -10 10 -14 11 -7 1061 -7 1068 0 3 2 -7 21 -22 40 -37 48 -110 207 -124 270 -31 134 -44 335 -22 335 5 0 26 -33 46 -72 49 -97 101 -173 158 -228 52 -51 136 -105 180 -116 27 -6 29 -5 22 17 -41 142 -49 191 -49 297 -1 62 4 117 9 122 9 9 32 -27 132 -210 60 -111 84 -150 91 -150 4 0 13 39 20 88 29 205 88 382 173 526 58 96 195 253 210 238 5 -5 5 -45 -1 -98 -24 -211 -44 -464 -38 -471 18 -17 185 57 283 126 92 65 154 132 252 276 137 202 215 300 237 299 11 -1 60 -12 109 -25 84 -23 91 -27 122 -69 18 -25 43 -76 56 -115 20 -62 23 -88 22 -235 -1 -150 -3 -176 -32 -288 -17 -67 -47 -162 -67 -211 -19 -49 -35 -91 -35 -95 0 -19 33 3 123 81 299 262 478 413 487 413 19 0 10 -23 -65 -177 -78 -160 -87 -188 -57 -179 49 16 186 36 192 29 4 -4 -12 -48 -36 -98 -49 -102 -55 -130 -24 -120 11 3 81 42 156 86 75 43 138 79 140 79 1 0 31 16 64 36 34 20 64 33 67 30 3 -3 -24 -92 -61 -199 -36 -107 -66 -200 -66 -207 0 -10 24  -12 123 -7 67 4 235 11 372 17 294 12 345 17 345 35 0 8 -10 17 -22 21 -12 4 -86 37 -163 74 -77 37 -157 73 -178 81 -23 8 -37 19 -35 27 2 9 85 42 218 86 768 258 757 254 744 265 -5 5 -79 19 -164 30 -85 12 -186 26 -225 32 -130 19 -200 28 -253 35 -33 4 -52 10 -49 18 2 6 35 27 73 46 70 36 314 164 479 250 50 26 185 96 300 156 116 59 232 119 259 134 27 14 51 30 53 36 2 6 -46 22 -114 37 -248 57 -444 82 -755 99 -164 8 -228 15 -228 24 0 6 6 14 13 17 6 2 75 51 152 109 77 57 178 132 225 166 148 109 149 114 30 102 -41 -4 -133 -13 -205 -19 -159 -14 -319 -29 -445 -41 -52 -5 -178 -17 -279 -27 l-184 -18 -15 24 c-9 13 -32 71 -52 130 -48 143 -91 219 -169 303 -93 101 -177 158 -376 258 -91 46 -94 54 -115 370 -19 285 -31 414 -50 545 -41 280 -86 379 -252 565 -207 232 -509 465 -789 607 -167 86 -239 114 -469 183 -41 13 -81 25 -87 27 -7 3 -13 0 -13 -7z"/>
      </g>

      <g transform="translate(291,104) scale(0.003,-0.003)" fill="#fff" stroke="none"> <!-- tiger -->
        <path d="M759 5500 c-70 -9 -143 -25 -165 -36 -34 -17 -42 -27 -62 -84 -53 -153 -94 -365 -68 -357 6 2 36 46 67 97 31 52 75 111 97 132 l41 38 126 0 125 0 72 66 c71 65 72 66 117 59 103 -16 195 -71 381 -227 192 -162 241 -186 345 -173 75 9 119 47 141 122 9 30 13 61 10 69 -7 18 -46 18 -116 -1 -30 -8 -65 -15 -78 -15 -30 0 -116 39 -207 95 -201 122 -389 195 -564 219 -61 9 -117 16 -124 15 -7 -1 -69 -9 -138 -19z"/>
        <path d="M5354 5500 c-61 -11 -148 -33 -195 -50 -84 -31 -292 -136 -404 -204 -93 -57 -121 -62 -213 -41 -104 23 -118 20 -115 -29 4 -57 39 -124 77 -143 19 -11 57 -17 101 -17 94 -1 132 19 292 153 214 179 302 233 405 247 43 6 45 5 116 -60 l72 -66 125 0 125 0 43 -39 c23 -22 57 -65 76 -98 86 -148 102 -163 95 -90 -9 88 -40 214 -83 334 -22 62 -53 79 -172 97 -169 25 -227 26 -345 6z"/>
        <path d="M2922 4900 c-67 -44 -128 -80 -137 -80 -8 0 -52 19 -98 41 -105 52 -120 50 -199 -36 -33 -35 -82 -78 -109 -96 -68 -44 -185 -78 -309 -90 -79 -7 -108 -14 -118 -27 -7 -9 -43 -65 -81 -123 -38 -58 -135 -196 -217 -305 -266 -357 -366 -522 -380 -627 -6 -39 -4 -46 15 -56 26 -14 43 -6 96 48 45 47 87 55 106 20 14 -27 3 -124 -22 -198 -23 -66 -25 -161 -4 -202 16 -30 83 -79 109 -79 20 0 31 -19 14 -24 -7 -3 -38 -12 -69 -20 -124 -34 -200 -144 -219 -316 -12 -104 -7 -140 41 -299 25 -85 26 -96 13 -116 -13 -19 -13 -28 -1 -62 34 -98 164 -249 280 -324 74 -48 109 -50 159 -9 71 59 217 305 186 314 -7 2 -40 9 -73 16 -133 27 -289 120 -325 194 -19 39 -20 51 -10 107 22 138 9 179 -55 179 -68 0 -80 21 -49 83 24 47 103 137 121 137 20 0 165 -98 226 -152 49 -44 56 -62 44 -111 -6 -22 -2 -33 17 -52 22 -22 34 -25 94 -25 38 0 90 6 116 14 45 14 116 54 116 67 0 3 -21 11 -48 17 -63 17 -135 59 -200 117 -72 65 -226 255 -210 259 46 13 96 26 102 26 3 0 18 -19 33 -42 53 -82 115 -157 153 -183 24 -17 76 -36 134 -50 52 -12 106 -29 120 -38 39 -26 75 -79 148 -221 54 -103 74 -155 95 -243 21 -90 30 -113 44 -113 45 0 99 165 99 300 0 122 -40 241 -99 294 -18 16 -19 16 -29 -13 -15 -43 -29 -39 -37 12 -9 58 -33 133 -61 189 -57 114 -139 169 -289 194 -87 15 -115 15 -241 4 -163 -15 -184 -11 -235 48 -48 54 -69 108 -69 178 0 62 10 87 81 211 l24 42 -38 34 c-20 19 -37 44 -37 55 0 65 234 426 355 547 80 81 224 192 261 201 15 4 41 -1 66 -12 l41 -18 58 32 c56 31 166 65 316 98 64 14 81 14 150 1 43 -8 83 -12 90 -10 31 12 42 122 18 180 -22 53 -18 82 18 127 72 89 62 87 -91 -14z m-737 -1802 c11 -68 21 -80 63 -76 29 2 40 9 50 31 7 15 17 27 22 27 8 0 34 -32 54 -68 9 -16 -66 -90 -100 -98 -57 -15 -160 23 -181 66 -7 14 -13 55 -13 93 l0 67 49 0 49 0 7 -42z"/>
        <path d="M3355 4969 c5 -8 24 -32 42 -55 37 -46 40 -66 17 -124 -21 -53 -15 -144 12 -170 18 -17 23 -18 94 -4 65 13 84 13 150 -1 143 -28 263 -65 314 -96 l51 -32 53 19 c54 18 54 18 95 -4 87 -46 243 -188 319 -289 148 -197 247 -358 263 -431 6 -29 3 -36 -32 -68 l-38 -35 24 -42 c71 -124 81 -149 81 -211 0 -70 -21 -124 -69 -178 -51 -59 -72 -63 -236 -48 -292 27 -446 -32 -530 -203 -33 -69 -65 -171 -65 -209 0 -28 -20 -21 -34 13 l-13 30 -30 -35 c-36 -40 -71 -127 -84 -208 -11 -67 2 -171 32 -261 26 -77 44 -107 68 -107 18 0 27 23 56 160 9 40 41 116 83 196 104 201 135 233 242 254 146 29 186 57 285 198 33 48 63 81 70 78 7 -2 33 -8 59 -11 25 -4 46 -9 46 -11 0 -2 -36 -49 -81 -104 -133 -164 -234 -244 -341 -272 -27 -6 -48 -14 -48 -17 0 -13 71 -53 116 -67 26 -8 78 -14 116 -14 59 0 72 3 93 24 21 21 23 28 14 61 -12 44 0 66 63 117 75 61 194 138 211 138 22 0 112 -110 127 -155 15 -46 1 -65 -49 -65 -21 0 -46 -6 -56 -14 -18 -13 -18 -20 -8 -122 10 -101 10 -112 -9 -152 -35 -74 -194 -166 -339 -196 -32 -6 -60 -14 -63 -17 -9 -8 70 -155 120 -226 54 -75 101 -113 140 -113 56 0 191 101 273 203 87 110 122 202 91 233 -7 7 -3 36 15 93 46 146 54 202 44 307 -17 180 -90 283 -232 325 l-70 21 53 27 c81 42 95 66 94 164 -1 50 -8 100 -18 127 -23 63 -32 165 -16 185 22 26 65 18 96 -17 88 -105 154 -73 107 52 -48 128 -128 253 -368 575 -140 187 -262 365 -285 416 -11 25 -18 27 -99 33 -194 15 -342 76 -438 180 -60 65 -87 85 -117 86 -10 0 -54 -18 -97 -40 -43 -22 -86 -40 -95 -40 -8 0 -66 34 -128 75 -122 80 -155 98 -141 74z m975 -1901 c0 -84 -12 -104 -77 -137 -60 -30 -111 -27 -159 7 -68 49 -70 56 -40 102 14 22 30 40 34 40 4 0 16 -13 25 -30 32 -53 107 -36 107 24 0 8 4 26 10 40 8 23 15 26 55 26 l45 0 0 -72z"/>
        <path d="M430 4801 c0 -44 10 -85 40 -165 99 -264 129 -308 246 -367 73 -37 95 -54 136 -106 53 -67 68 -76 68 -42 0 85 200 243 324 256 46 5 56 3 76 -17 18 -18 21 -29 16 -64 -9 -60 -68 -174 -139 -269 -98 -131 -337 -363 -432 -419 -166 -98 -241 -179 -286 -308 -22 -63 -23 -81 -30 -515 -6 -424 -15 -560 -44 -696 -8 -37 19 -99 43 -99 45 0 187 204 225 325 9 28 24 93 33 145 15 85 15 120 4 341 -15 291 -11 350 31 461 76 197 191 344 539 688 354 349 425 436 445 543 17 89 -48 141 -175 142 -120 0 -208 -46 -355 -186 -124 -117 -181 -159 -220 -159 -41 0 -82 33 -122 95 -18 29 -35 45 -49 45 -40 0 -124 52 -178 111 -59 63 -105 141 -151 252 -15 37 -32 67 -37 67 -4 0 -8 -26 -8 -59z"/>
        <path d="M5954 4843 c-44 -125 -110 -240 -183 -317 -46 -48 -128 -96 -166 -96 -13 0 -30 -16 -48 -45 -40 -62 -81 -95 -122 -95 -38 0 -78 29 -229 168 -124 114 -228 172 -322 180 -75 6 -137 -14 -179 -56 -24 -24 -27 -32 -22 -74 14 -113 77 -192 445 -558 351 -348 464 -490 537 -675 46 -117 50 -163 35 -456 -14 -282 -11 -331 31 -484 32 -118 183 -345 229 -345 43 0 52 89 23 245 -12 70 -17 193 -23 545 -7 475 -7 475 -53 580 -9 19 -36 60 -60 90 -40 51 -73 76 -247 189 -30 20 -99 79 -154 131 -247 238 -397 471 -365 567 25 76 162 46 303 -67 50 -40 106 -119 106 -149 0 -34 17 -24 60 34 43 58 91 95 153 116 60 21 112 80 161 182 63 131 116 289 116 347 0 50 -15 75 -26 43z"/>
        <path d="M3285 4443 c-22 -22 -12 -56 35 -119 52 -69 54 -85 10 -97 -76 -20 -75 -38 6 -163 103 -155 183 -203 359 -211 55 -2 106 0 113 5 8 5 16 28 19 51 3 23 10 44 15 47 8 5 44 -13 150 -78 35 -22 77 -38 107 -42 39 -5 55 -13 75 -37 44 -52 79 -119 78 -151 -1 -39 -45 -132 -132 -278 -38 -65 -70 -121 -70 -124 0 -19 60 3 189 70 145 76 246 141 288 185 23 25 42 91 43 145 0 45 -27 125 -54 158 l-24 29 -28 -43 -28 -42 -16 23 c-8 13 -44 53 -80 89 -105 106 -262 189 -445 236 -103 27 -124 29 -160 12 -31 -14 -31 -21 0 -62 59 -78 8 -89 -80 -18 -73 58 -78 72 -31 72 32 0 36 3 36 25 0 44 -234 271 -327 319 -29 15 -33 15 -48 -1z"/>
        <path d="M3037 4419 c-63 -41 -250 -221 -278 -265 -24 -39 -19 -51 26 -56 17 -2 30 -7 29 -13 0 -16 -116 -105 -136 -105 -30 0 -32 28 -4 64 33 44 33 51 -4 66 -36 15 -74 10 -195 -25 -210 -61 -403 -186 -486 -314 l-15 -24 -22 36 c-12 21 -27 37 -34 37 -20 0 -57 -65 -70 -120 -9 -38 -9 -66 0 -113 10 -54 17 -67 56 -103 85 -78 428 -266 448 -246 7 7 -13 50 -60 129 -150 254 -156 275 -107 358 53 88 71 104 127 111 29 4 71 21 106 42 153 94 162 96 162 37 0 -51 21 -65 99 -65 140 0 228 29 306 102 44 40 155 206 155 232 0 19 -22 35 -59 42 -43 9 -47 21 -21 56 59 80 81 120 78 140 -5 35 -45 34 -101 -3z"/>
        <path d="M2932 3890 c-31 -13 -109 -96 -131 -139 -31 -60 -41 -108 -29 -141 5 -17 14 -30 19 -30 9 0 249 270 249 280 -1 29 -66 48 -108 30z"/>
        <path d="M3398 3893 c-39 -10 -18 -50 92 -177 61 -69 117 -126 125 -126 9 0 21 11 27 25 15 34 -1 87 -52 163 -58 86 -134 132 -192 115z"/>
        <path d="M1128 3391 c-104 -95 -196 -270 -238 -453 -31 -134 -26 -206 18 -251 47 -49 51 -74 35 -242 -7 -83 -11 -172 -7 -200 10 -77 48 -179 151 -405 14 -30 32 -72 40 -92 15 -37 52 -62 110 -74 16 -3 65 2 108 12 136 29 145 29 192 -5 51 -37 99 -101 113 -149 7 -29 6 -44 -10 -80 -26 -58 -25 -67 10 -129 35 -60 86 -103 123 -103 15 0 27 2 27 4 0 24 34 168 55 230 50 152 128 290 264 470 50 65 80 114 77 123 -7 17 -19 9 -316 -211 -150 -111 -198 -141 -208 -133 -8 6 -31 45 -52 87 -21 42 -51 91 -65 108 -27 32 -27 32 -123 32 -117 0 -152 14 -197 81 -86 126 -131 436 -114 778 10 198 22 291 44 344 21 52 19 73 -12 96 l-28 20 32 92 c18 51 31 95 29 96 -2 2 -28 -19 -58 -46z"/>
        <path d="M5225 3419 c4 -13 18 -51 31 -83 30 -75 30 -92 -1 -112 -30 -20 -31 -33 -6 -105 30 -83 44 -286 38 -536 -6 -303 -46 -487 -126 -592 -37 -48 -75 -61 -185 -61 -92 0 -95 -1 -119 -30 -14 -16 -47 -70 -73 -120 -26 -49 -50 -90 -53 -90 -3 0 -118 84 -255 185 -301 223 -324 229 -188 52 95 -123 138 -190 193 -300 41 -80 109 -263 109 -292 0 -8 5 -37 11 -65 9 -44 14 -50 35 -50 36 0 91 46 125 104 35 61 36 79 7 132 -21 41 -21 42 -4 88 21 56 111 152 150 162 16 4 60 -1 104 -12 99 -23 167 -23 213 -1 30 15 41 31 69 95 18 42 48 109 66 147 100 220 119 300 104 444 -6 58 -12 140 -13 182 -2 75 -1 77 35 117 46 51 52 75 44 161 -20 216 -154 487 -288 582 l-30 22 7 -24z"/>
        <path d="M2782 1339 c-49 -18 -51 -105 -4 -169 32 -43 37 -47 137 -114 93 -62 168 -138 224 -227 56 -88 60 -92 76 -79 8 7 27 35 43 63 56 98 112 157 212 222 98 65 163 126 180 171 15 39 12 110 -5 124 -29 24 -103 13 -179 -27 -260 -137 -256 -137 -453 -37 -141 73 -190 88 -231 73z"/>
      </g>
        <circle cx="20" cy="70" r="15" fill="black" stroke="black" stroke-width="2" opacity="0.9"/>
        <circle cx="20" cy="70" r="10" fill="darkred" stroke="black" stroke-width="2" opacity="0.9"/>
        <circle id="circleLeft" cx="20" cy="70" r="10" fill="#ff3f34" stroke="black" stroke-width="2" opacity="0.9">
            <animate attributeName="cx" from="0" to="300" dur="15s" begin="0s" values="20; 20; 300; 300; 300; 300; 300" keyTimes="0; 0.35; 0.45; 0.6; 0.75; 0.9; 1" fill="freeze" repeatCount="indefinite" />
        </circle>

        <circle cx="580" cy="70" r="15" fill="black" stroke="black" stroke-width="2" opacity="0.9"/>
        <circle cx="580" cy="70" r="10" fill="darkgreen" stroke="black" stroke-width="2" opacity="0.9"/>
        <circle cx="580" cy="70" r="10" fill="#66ff00" stroke="black" stroke-width="2" opacity="0.9">
            <animate attributeName="cx" from="0" to="300" dur="15s" begin="0s" values="580; 580; 300; 300; 300; 300; 300" keyTimes="0; 0.35; 0.45; 0.6; 0.75; 0.9; 1" fill="freeze" repeatCount="indefinite" />
        </circle>
        <circle cx="300" cy="70" r="10" fill="#FDD005" stroke="#FDD005" stroke-width="2" opacity="0.9">
          <animate attributeName="opacity" from="0" to="1" dur="15s" begin="0s" values="0; 0; 0; 1; 1; 1; 1" keyTimes="0; 0.35; 0.45; 0.6; 0.75; 0.9; 1" fill="freeze" repeatCount="indefinite" />
        </circle>
        <circle cx="297" cy="70" r="1" fill="#C68E17" stroke="#C68E17" stroke-width="2" opacity="0.9">
          <animate attributeName="opacity" from="0" to="1" dur="15s" begin="0s" values="0; 0; 0; 1; 1; 1; 1" keyTimes="0; 0.35; 0.45; 0.6; 0.75; 0.9; 1" fill="freeze" repeatCount="indefinite" />
        </circle>
        <circle cx="303" cy="70" r="1" fill="#C68E17" stroke="#C68E17" stroke-width="2" opacity="0.9">
          <animate attributeName="opacity" from="0" to="1" dur="15s" begin="0s" values="0; 0; 0; 1; 1; 1; 1" keyTimes="0; 0.35; 0.45; 0.6; 0.75; 0.9; 1" fill="freeze" repeatCount="indefinite" />
        </circle>
        <path d="M50,50  150,50 140,45 150,50 140,55" stroke="red" fill="none" stroke-width="2" opacity="1"/>
        <text x="80" y="45" font-size="50" font-style="italic" stroke="red" fill="red">+v</text>
        <path d="M550,50  450,50 460,45 450,50 460,55" stroke="green" fill="none" stroke-width="2" opacity="1"/>
        <text x="470" y="45" font-size="50" font-style="italic" stroke="green" fill="green">-v</text>

    </g>

</svg>
