<?xml version="1.0" standalone="no"?>
<!DOCTYPE svg PUBLIC "-//W3C//DTD SVG 20010904//EN"
 "http://www.w3.org/TR/2001/REC-SVG-20010904/DTD/svg10.dtd">
<svg version="1.0" xmlns="http://www.w3.org/2000/svg"
 width="640.000000pt" height="632.000000pt" viewBox="0 0 640.000000 632.000000"
 preserveAspectRatio="xMidYMid meet">

<g transform="translate(0,632) scale(0.1,-0.1)"
fill="#000000" stroke="none">
<path d="M759 5500 c-70 -9 -143 -25 -165 -36 -34 -17 -42 -27 -62 -84 -53 -153 -94 -365 -68 -357 6 2 36 46 67 97 31 52 75 111 97 132 l41 38 126 0 125 0 72 66 c71 65 72 66 117 59 103 -16 195 -71 381 -227 192 -162 241 -186 345 -173 75 9 119 47 141 122 9 30 13 61 10 69 -7 18 -46 18 -116 -1 -30 -8 -65 -15 -78 -15 -30 0 -116 39 -207 95 -201 122 -389 195 -564 219 -61 9 -117 16 -124 15 -7 -1 -69 -9 -138 -19z"/>
<!-- <path d="M5354 5500 c-61 -11 -148 -33 -195 -50 -84 -31 -292 -136 -404 -204 -93 -57 -121 -62 -213 -41 -104 23 -118 20 -115 -29 4 -57 39 -124 77 -143 19 -11 57 -17 101 -17 94 -1 132 19 292 153 214 179 302 233 405 247 43 6 45 5 116 -60 l72 -66 125 0 125 0 43 -39 c23 -22 57 -65 76 -98 86 -148 102 -163 95 -90 -9 88 -40 214 -83 334 -22 62 -53 79 -172 97 -169 25 -227 26 -345 6z"/> -->
<path d="M2922 4900 c-67 -44 -128 -80 -137 -80 -8 0 -52 19 -98 41 -105 52 -120 50 -199 -36 -33 -35 -82 -78 -109 -96 -68 -44 -185 -78 -309 -90 -79 -7 -108 -14 -118 -27 -7 -9 -43 -65 -81 -123 -38 -58 -135 -196 -217 -305 -266 -357 -366 -522 -380 -627 -6 -39 -4 -46 15 -56 26 -14 43 -6 96 48 45 47 87 55 106 20 14 -27 3 -124 -22 -198 -23 -66 -25 -161 -4 -202 16 -30 83 -79 109 -79 20 0 31 -19 14 -24 -7 -3 -38 -12 -69 -20 -124 -34 -200 -144 -219 -316 -12 -104 -7 -140 41 -299 25 -85 26 -96 13 -116 -13 -19 -13 -28 -1 -62 34 -98 164 -249 280 -324 74 -48 109 -50 159 -9 71 59 217 305 186 314 -7 2 -40 9 -73 16 -133 27 -289 120 -325 194 -19 39 -20 51 -10 107 22 138 9 179 -55 179 -68 0 -80 21 -49 83 24 47 103 137 121 137 20 0 165 -98 226 -152 49 -44 56 -62 44 -111 -6 -22 -2 -33 17 -52 22 -22 34 -25 94 -25 38 0 90 6 116 14 45 14 116 54 116 67 0 3 -21 11 -48 17 -63 17 -135 59 -200 117 -72 65 -226 255 -210 259 46 13 96 26 102 26 3 0 18 -19 33 -42 53 -82 115 -157 153 -183 24 -17 76 -36 134 -50 52 -12 106 -29 120 -38 39 -26 75 -79 148 -221 54 -103 74 -155 95 -243 21 -90 30 -113 44 -113 45 0 99 165 99 300 0 122 -40 241 -99 294 -18 16 -19 16 -29 -13 -15 -43 -29 -39 -37 12 -9 58 -33 133 -61 189 -57 114 -139 169 -289 194 -87 15 -115 15 -241 4 -163 -15 -184 -11 -235 48 -48 54 -69 108 -69 178 0 62 10 87 81 211 l24 42 -38 34 c-20 19 -37 44 -37 55 0 65 234 426 355 547 80 81 224 192 261 201 15 4 41 -1 66 -12 l41 -18 58 32 c56 31 166 65 316 98 64 14 81 14 150 1 43 -8 83 -12 90 -10 31 12 42 122 18 180 -22 53 -18 82 18 127 72 89 62 87 -91 -14z m-737 -1802 c11 -68 21 -80 63 -76 29 2 40 9 50 31 7 15 17 27 22 27 8 0 34 -32 54 -68 9 -16 -66 -90 -100 -98 -57 -15 -160 23 -181 66 -7 14 -13 55 -13 93 l0 67 49 0 49 0 7 -42z"/>
<!-- <path d="M3355 4969 c5 -8 24 -32 42 -55 37 -46 40 -66 17 -124 -21 -53 -15 -144 12 -170 18 -17 23 -18 94 -4 65 13 84 13 150 -1 143 -28 263 -65 314 -96 l51 -32 53 19 c54 18 54 18 95 -4 87 -46 243 -188 319 -289 148 -197 247 -358 263 -431 6 -29 3 -36 -32 -68 l-38 -35 24 -42 c71 -124 81 -149 81 -211 0 -70 -21 -124 -69 -178 -51 -59 -72 -63 -236 -48 -292 27 -446 -32 -530 -203 -33 -69 -65 -171 -65 -209 0 -28 -20 -21 -34 13 l-13 30 -30 -35 c-36 -40 -71 -127 -84 -208 -11 -67 2 -171 32 -261 26 -77 44 -107 68 -107 18 0 27 23 56 160 9 40 41 116 83 196 104 201 135 233 242 254 146 29 186 57 285 198 33 48 63 81 70 78 7 -2 33 -8 59 -11 25 -4 46 -9 46 -11 0 -2 -36 -49 -81 -104 -133 -164 -234 -244 -341 -272 -27 -6 -48 -14 -48 -17 0 -13 71 -53 116 -67 26 -8 78 -14 116 -14 59 0 72 3 93 24 21 21 23 28 14 61 -12 44 0 66 63 117 75 61 194 138 211 138 22 0 112 -110 127 -155 15 -46 1 -65 -49 -65 -21 0 -46 -6 -56 -14 -18 -13 -18 -20 -8 -122 10 -101 10 -112 -9 -152 -35 -74 -194 -166 -339 -196 -32 -6 -60 -14 -63 -17 -9 -8 70 -155 120 -226 54 -75 101 -113 140 -113 56 0 191 101 273 203 87 110 122 202 91 233 -7 7 -3 36 15 93 46 146 54 202 44 307 -17 180 -90 283 -232 325 l-70 21 53 27 c81 42 95 66 94 164 -1 50 -8 100 -18 127 -23 63 -32 165 -16 185 22 26 65 18 96 -17 88 -105 154 -73 107 52 -48 128 -128 253 -368 575 -140 187 -262 365 -285 416 -11 25 -18 27 -99 33 -194 15 -342 76 -438 180 -60 65 -87 85 -117 86 -10 0 -54 -18 -97 -40 -43 -22 -86 -40 -95 -40 -8 0 -66 34 -128 75 -122 80 -155 98 -141 74z m975 -1901 c0 -84 -12 -104 -77 -137 -60 -30 -111 -27 -159 7 -68 49 -70 56 -40 102 14 22 30 40 34 40 4 0 16 -13 25 -30 32 -53 107 -36 107 24 0 8 4 26 10 40 8 23 15 26 55 26 l45 0 0 -72z"/> -->
<path d="M430 4801 c0 -44 10 -85 40 -165 99 -264 129 -308 246 -367 73 -37 95 -54 136 -106 53 -67 68 -76 68 -42 0 85 200 243 324 256 46 5 56 3 76 -17 18 -18 21 -29 16 -64 -9 -60 -68 -174 -139 -269 -98 -131 -337 -363 -432 -419 -166 -98 -241 -179 -286 -308 -22 -63 -23 -81 -30 -515 -6 -424 -15 -560 -44 -696 -8 -37 19 -99 43 -99 45 0 187 204 225 325 9 28 24 93 33 145 15 85 15 120 4 341 -15 291 -11 350 31 461 76 197 191 344 539 688 354 349 425 436 445 543 17 89 -48 141 -175 142 -120 0 -208 -46 -355 -186 -124 -117 -181 -159 -220 -159 -41 0 -82 33 -122 95 -18 29 -35 45 -49 45 -40 0 -124 52 -178 111 -59 63 -105 141 -151 252 -15 37 -32 67 -37 67 -4 0 -8 -26 -8 -59z"/>
<!-- <path d="M5954 4843 c-44 -125 -110 -240 -183 -317 -46 -48 -128 -96 -166 -96 -13 0 -30 -16 -48 -45 -40 -62 -81 -95 -122 -95 -38 0 -78 29 -229 168 -124 114 -228 172 -322 180 -75 6 -137 -14 -179 -56 -24 -24 -27 -32 -22 -74 14 -113 77 -192 445 -558 351 -348 464 -490 537 -675 46 -117 50 -163 35 -456 -14 -282 -11 -331 31 -484 32 -118 183 -345 229 -345 43 0 52 89 23 245 -12 70 -17 193 -23 545 -7 475 -7 475 -53 580 -9 19 -36 60 -60 90 -40 51 -73 76 -247 189 -30 20 -99 79 -154 131 -247 238 -397 471 -365 567 25 76 162 46 303 -67 50 -40 106 -119 106 -149 0 -34 17 -24 60 34 43 58 91 95 153 116 60 21 112 80 161 182 63 131 116 289 116 347 0 50 -15 75 -26 43z"/> -->
<!-- <path d="M3285 4443 c-22 -22 -12 -56 35 -119 52 -69 54 -85 10 -97 -76 -20 -75 -38 6 -163 103 -155 183 -203 359 -211 55 -2 106 0 113 5 8 5 16 28 19 51 3 23 10 44 15 47 8 5 44 -13 150 -78 35 -22 77 -38 107 -42 39 -5 55 -13 75 -37 44 -52 79 -119 78 -151 -1 -39 -45 -132 -132 -278 -38 -65 -70 -121 -70 -124 0 -19 60 3 189 70 145 76 246 141 288 185 23 25 42 91 43 145 0 45 -27 125 -54 158 l-24 29 -28 -43 -28 -42 -16 23 c-8 13 -44 53 -80 89 -105 106 -262 189 -445 236 -103 27 -124 29 -160 12 -31 -14 -31 -21 0 -62 59 -78 8 -89 -80 -18 -73 58 -78 72 -31 72 32 0 36 3 36 25 0 44 -234 271 -327 319 -29 15 -33 15 -48 -1z"/> -->
<path d="M3037 4419 c-63 -41 -250 -221 -278 -265 -24 -39 -19 -51 26 -56 17 -2 30 -7 29 -13 0 -16 -116 -105 -136 -105 -30 0 -32 28 -4 64 33 44 33 51 -4 66 -36 15 -74 10 -195 -25 -210 -61 -403 -186 -486 -314 l-15 -24 -22 36 c-12 21 -27 37 -34 37 -20 0 -57 -65 -70 -120 -9 -38 -9 -66 0 -113 10 -54 17 -67 56 -103 85 -78 428 -266 448 -246 7 7 -13 50 -60 129 -150 254 -156 275 -107 358 53 88 71 104 127 111 29 4 71 21 106 42 153 94 162 96 162 37 0 -51 21 -65 99 -65 140 0 228 29 306 102 44 40 155 206 155 232 0 19 -22 35 -59 42 -43 9 -47 21 -21 56 59 80 81 120 78 140 -5 35 -45 34 -101 -3z"/>
<path d="M2932 3890 c-31 -13 -109 -96 -131 -139 -31 -60 -41 -108 -29 -141 5 -17 14 -30 19 -30 9 0 249 270 249 280 -1 29 -66 48 -108 30z"/>
<!-- <path d="M3398 3893 c-39 -10 -18 -50 92 -177 61 -69 117 -126 125 -126 9 0 21 11 27 25 15 34 -1 87 -52 163 -58 86 -134 132 -192 115z"/> -->
<path d="M1128 3391 c-104 -95 -196 -270 -238 -453 -31 -134 -26 -206 18 -251 47 -49 51 -74 35 -242 -7 -83 -11 -172 -7 -200 10 -77 48 -179 151 -405 14 -30 32 -72 40 -92 15 -37 52 -62 110 -74 16 -3 65 2 108 12 136 29 145 29 192 -5 51 -37 99 -101 113 -149 7 -29 6 -44 -10 -80 -26 -58 -25 -67 10 -129 35 -60 86 -103 123 -103 15 0 27 2 27 4 0 24 34 168 55 230 50 152 128 290 264 470 50 65 80 114 77 123 -7 17 -19 9 -316 -211 -150 -111 -198 -141 -208 -133 -8 6 -31 45 -52 87 -21 42 -51 91 -65 108 -27 32 -27 32 -123 32 -117 0 -152 14 -197 81 -86 126 -131 436 -114 778 10 198 22 291 44 344 21 52 19 73 -12 96 l-28 20 32 92 c18 51 31 95 29 96 -2 2 -28 -19 -58 -46z"/>
<!-- <path d="M5225 3419 c4 -13 18 -51 31 -83 30 -75 30 -92 -1 -112 -30 -20 -31 -33 -6 -105 30 -83 44 -286 38 -536 -6 -303 -46 -487 -126 -592 -37 -48 -75 -61 -185 -61 -92 0 -95 -1 -119 -30 -14 -16 -47 -70 -73 -120 -26 -49 -50 -90 -53 -90 -3 0 -118 84 -255 185 -301 223 -324 229 -188 52 95 -123 138 -190 193 -300 41 -80 109 -263 109 -292 0 -8 5 -37 11 -65 9 -44 14 -50 35 -50 36 0 91 46 125 104 35 61 36 79 7 132 -21 41 -21 42 -4 88 21 56 111 152 150 162 16 4 60 -1 104 -12 99 -23 167 -23 213 -1 30 15 41 31 69 95 18 42 48 109 66 147 100 220 119 300 104 444 -6 58 -12 140 -13 182 -2 75 -1 77 35 117 46 51 52 75 44 161 -20 216 -154 487 -288 582 l-30 22 7 -24z"/> -->
<path d="M2782 1339 c-49 -18 -51 -105 -4 -169 32 -43 37 -47 137 -114 93 -62 168 -138 224 -227 56 -88 60 -92 76 -79 8 7 27 35 43 63 56 98 112 157 212 222 98 65 163 126 180 171 15 39 12 110 -5 124 -29 24 -103 13 -179 -27 -260 -137 -256 -137 -453 -37 -141 73 -190 88 -231 73z"/>

<path transform="translate(0,0)" fill="green" d="M2782 1339 c-49 -18 -51 -105 -4 -169 32 -43 37 -47 137 -114 93 -62 168 -138 224 -227 56 -88 60 -92 76 -79 l0,440 c-141 73 -190 88 -231 73z"/>
</g>
</svg>
