<?xml version="1.0" encoding="utf-8"?>
<!DOCTYPE svg PUBLIC "-//W3C//DTD SVG 1.1//EN" "http://www.w3.org/Graphics/SVG/1.1/DTD/svg11.dtd">
<svg version="1.1" id="Layer_1" xmlns="http://www.w3.org/2000/svg" xmlns:xlink="http://www.w3.org/1999/xlink" x="0px" y="0px"
	 width="500px" height="300px" viewBox="0 0 500 300" enable-background="new 0 0 64 64" xml:space="preserve">

<g transfrom="translate(100,100)">

  <!-- pipe end-->
	<ellipse cx="380" cy="40" rx="8" ry="20" stroke="black" fill="#0cafFF" fill-opacity="0" stroke-width="1" stroke-opacity="0.1" transform="rotate(0,350,100)" />

  <!-- pipe -->
    <path d="m0 150
	          C240 153 175 8 410 20
              M410 60
              C245 48 230 260 0 250"
              stroke="#0cafFF"
              stroke-width="3"
              stroke-opacity="1"
              fill="none"/>
  <!-- pipe section flow-->
    <path d="m30 150
	          C200 150 200 20 380 20
	          A8 20 0 0 1 380 60
              C275 60 200 250 30 250
			  A8 20 0 0 1 30 150
			  Z" stroke="#5cafFF" stroke-width="1" stroke-opacity="1"  fill="#0cafFF" fill-opacity="0.31"/>

  <!-- volume differential 1-->
  <path d="m30 150
		  A80 20 0 0 1 50 150
		  A20 50 0 0 1 50 248
          A80 20 0 0 1 30 250
          A20 50 0 0 1 30 150
		  Z" stroke="#000" stroke-opacity="0.5" stroke-width="1" fill="#40a4df" fill-opacity="1"
          transform="translate(0,0)">
   </path>
   <!-- moving surface -->
   <ellipse cx="0" cy="0" rx="20" ry="50" stroke="#000" fill="#ffffdf" fill-opacity="0.5" stroke-width="1" stroke-opacity="0.5">
     <animateTransform 
        attributeName="transform"
        type="translate"
        from="30 200"
        to="46 200"
        dur="2s"
        repeatCount="indefinite"
      />
   </ellipse>

  <!-- volume differential 1-->
  <ellipse cx="30" cy="200" rx="20" ry="50" stroke="#000" fill="#40a4df" fill-opacity="0.5" stroke-width="1" stroke-opacity="0.5"/>

 

    <!-- volume differential 2-->
  <path d="m350 22
	      A80 20 0 0 1 388 20
		  A8 20 -10 0 1 392 58
          A80 20 0 0 0 356 63
          A8 20 -10 0 1 350 22
		  Z" stroke="#000" stroke-opacity="0.5" stroke-width="1" fill="#40a4df" fill-opacity="1"
           transform="translate(0,0)">
   </path>

    <!-- moving surface -->
   <ellipse cx="0" cy="0" rx="8" ry="21" stroke="#000" fill="#ffffdf" fill-opacity="0.5" stroke-width="1" stroke-opacity="0.5" transform="rotate(-10,350,43)">
     <animateTransform 
        attributeName="transform"
        type="translate"
        additive="sum"
        from="352 43"
        to="388 45"
        dur="2s"
        repeatCount="indefinite"
      />
    <animateTransform 
        attributeName="transform"
        type="scale"
        additive="sum"
        from="1 1"
        to="1 0.9"
        dur="2s"
        repeatCount="indefinite"
      />
   </ellipse>

  <!-- volume differential 2-->
  <ellipse cx="352" cy="43" rx="8" ry="21" stroke="#000" fill="#40a4df" fill-opacity=".51" stroke-width="1" stroke-opacity="0.5" transform="rotate(-10,350,43)"/>

  <!-- velocity vector 1-->
      <path
      d="M66 200 L96 197 M86 203 L96 197 L86 194"
      stroke="#00ff00"
      fill="#00ff00"
      stroke-width="3" transform="translate(-40,-65)">
      </path>

 <!-- velocity vector 2-->
      <path
      d="M396 40 L450 36 M435 41 L450 36 L435 33"
      stroke="#00ff00"
      fill="#00ff00"
      stroke-width="3" transform="translate(-50,-30)">
      </path>
  <!-- legends -->
  <!-- Areas -->
   <text x="20" y="180" fill="black" font-size="20" font-family="Times new roman" font-style="normal">A<tspan baseline-shift="sub" font-size="15" font-style="normal">1</tspan></text>
   <text x="345" y="45" fill="black" font-size="15" font-family="Times new roman" font-style="normal">A<tspan baseline-shift="sub" font-size="8" font-style="normal">2</tspan></text>
  <!-- speeds -->
   <text x="5" y="135" fill="black" font-size="25" font-family="Times new roman" font-style="italic">v<tspan baseline-shift="sub" font-size="14" font-style="normal">1</tspan></text>
   <text x="324" y="12" fill="black" font-size="25" font-family="Times new roman" font-style="italic">v<tspan baseline-shift="sub" font-size="14" font-style="normal">2</tspan></text>
  <!-- displacement -->
   <text x="85" y="285" fill="black" font-size="25" font-family="Times new roman" font-style="italic">ds<tspan baseline-shift="sub" font-size="15" font-style="normal">1</tspan></text>
   <text x="365" y="120" fill="black" font-size="25" font-family="Times new roman" font-style="italic" transform="translate(0,5) rotate(-10,355,80)">ds<tspan baseline-shift="sub" font-size="14" font-style="normal">2</tspan></text>

   <!-- trajectory points  -->
   <text x="20" y="262" fill="black" font-size="20" font-family="Times new roman" font-style="italic">a</text>
   <text x="50" y="262" fill="black" font-size="20" font-family="Times new roman" font-style="italic">b</text>
   <text x="352" y="77" fill="black" font-size="20" font-family="Times new roman" font-style="italic">c</text>
   <text x="390" y="74" fill="black" font-size="20" font-family="Times new roman" font-style="italic">d</text>

    <!-- volume diferential legends -->
   <text x="55" y="200" fill="black" font-size="20" font-family="Times new roman" font-style="italic">dV<tspan baseline-shift="sub" font-size="12" font-style="normal">1</tspan></text>
   <text x="370" y="43" fill="black" font-size="15" font-family="Times new roman" font-style="italic">dV<tspan baseline-shift="sub" font-size="10" font-style="normal">2</tspan></text>
   <!-- Force 1 -->
   <text x="0" y="220" fill="black" font-size="25" font-family="Times new roman" font-style="italic">F<tspan baseline-shift="sub" font-size="15" font-style="normal">1</tspan></text>
    <path
      d="M0 268 L28 268 M18 271 L28 268 L18 265"
      stroke="red"
      stroke-width="3"
      transform="translate(0,-70) rotate(0,28,268)" 
      />

       <!-- Force 2 -->
   <text x="420" y="50" fill="black" font-size="20" font-family="Times new roman" font-style="italic">F<tspan baseline-shift="sub" font-size="15" font-style="normal">2</tspan></text>
    <path
      d="M0 268 L28 268 M18 271 L28 268 L18 265"
      stroke="red"
      stroke-width="3"
      transform="translate(360,-230) rotate(175,28,268) scale(0.6,1)" 
      />

   <!-- cotas 1-->
   <path
      d="M30 265 L30 290 M50 265 L50 290"
      stroke="black"
      stroke-width="1" />

  <path
      d="M0 278 L28 278 M18 281 L28 278 L18 275"
      stroke="black"
      stroke-width="1" 
      />
  <path
      d="M0 278 L28 278 M18 281 L28 278 L18 275"
      stroke="black"
      stroke-width="1"
      transform="translate(24,0) rotate(180,28,278)" 
      />


   <!-- cotas 2-->
  <path
      d="M355 80 L355 105 M390 80 L390 105"
      stroke="black"
      stroke-width="1" transform="translate(5,0) rotate(-5,355,80)"/>

  <path
      d="M356 92 L389 92 M378 95 L389 92 L378 89"
      stroke="black"
      stroke-width="1" 
      transform="translate(5,0) rotate(-5,355,80)"
      />
  <path
      d="M356 92 L389 92 M378 95 L389 92 L378 89"
      stroke="black"
      stroke-width="1"
      transform="translate(6,-1) rotate(174,373,92)" 
      />

<!-- informative text -->

  <text x="10" y="18" font-size="25" fill="blue" font-style="italic">
    dK<tspan baseline-shift="sub" font-size="14" font-style="normal">1</tspan>= &#189; mv<tspan baseline-shift="sub" font-size="14" font-style="normal">1</tspan><tspan  x="124" baseline-shift="super" font-size="14" font-style="normal">2</tspan> = &#189;<tspan font-size="25" font-family="Times New Roman"> &#x3c1;</tspan><tspan font-style="normal">(</tspan>A<tspan baseline-shift="sub" font-size="14" font-style="normal">1</tspan>ds<tspan baseline-shift="sub" font-size="14" font-style="normal">1</tspan><tspan font-style="normal">)</tspan>v<tspan baseline-shift="sub" font-size="14" font-style="normal">1</tspan><tspan  x="278" baseline-shift="super" font-size="14" font-style="normal">2</tspan></text>
  <text x="10" y="60" font-size="25" fill="blue" font-style="italic">
    dK<tspan baseline-shift="sub" font-size="14" font-style="normal">2</tspan>= &#189;<tspan font-size="25" font-family="Times New Roman"> &#x3c1;</tspan><tspan font-style="normal">(</tspan>A<tspan baseline-shift="sub" font-size="14" font-style="normal">2</tspan>ds<tspan baseline-shift="sub" font-size="14" font-style="normal">2</tspan><tspan font-style="normal">)</tspan>v<tspan baseline-shift="sub" font-size="14" font-style="normal">2</tspan><tspan  x="187" baseline-shift="super" font-size="14" font-style="normal">2</tspan></text>

    <text x="270" y="165" font-size="25">The net change in  <tspan font-size="25" font-style="italic" fill="blue">K</tspan></text>
    <text x="300" y="190" font-size="25">during <tspan font-size="25" font-style="italic" fill="blue">dt</tspan></text>

    <text x="210" y="230" fill="blue" font-size="25" font-family="Times new roman" font-style="italic">dK = &#189; &#x3c1; dV<tspan font-style="normal">(</tspan>v<tspan baseline-shift="sub" font-size="14" font-style="normal">2</tspan><tspan baseline-shift="super" font-size="14" font-style="normal">2</tspan>-v<tspan baseline-shift="sub" font-size="14" font-style="normal">1</tspan><tspan baseline-shift="super" font-size="14" font-style="normal">2</tspan><tspan font-style="normal">)</tspan></text>

</g>
</svg>
