<?xml version="1.0" standalone="no"?>
<!DOCTYPE svg PUBLIC "-//W3C//DTD SVG 20010904//EN"
 "http://www.w3.org/TR/2001/REC-SVG-20010904/DTD/svg10.dtd">
<svg version="1.0" xmlns="http://www.w3.org/2000/svg"
 width="800.000000pt" height="900.000000pt" viewBox="0 0 800.000000 900.000000"
 preserveAspectRatio="xMidYMid meet">

<g transform="translate(0.000000,900.000000) scale(0.100000,-0.100000)"
fill="#000000" stroke="none">
<path d="M3855 8429 c-663 -33 -1279 -320 -1768 -823 -655 -672 -1034 -1677
-1076 -2846 -65 -1809 631 -3249 1874 -3880 352 -178 747 -291 1115 -319 452
-34 920 100 1346 385 835 558 1434 1670 1593 2954 35 285 44 436 43 745 -1
1075 -266 1967 -793 2673 -132 176 -396 442 -564 568 -521 389 -1126 575
-1770 543z m401 -90 c351 -34 735 -157 1038 -333 640 -372 1119 -1003 1384
-1826 206 -638 274 -1445 186 -2220 -73 -641 -271 -1286 -549 -1789 -184 -331
-354 -560 -600 -806 -279 -280 -534 -455 -842 -579 -241 -97 -428 -136 -688
-143 -151 -5 -204 -2 -330 16 -660 95 -1251 398 -1715 877 -619 640 -966 1519
-1041 2634 -13 196 -7 720 11 890 101 992 405 1769 926 2370 443 510 1028 828
1664 905 132 16 413 18 556 4z"/>
<path d="M4244 8166 c-12 -34 -41 -262 -34 -270 17 -17 27 6 39 91 14 97 21
127 27 120 3 -2 13 -53 23 -112 17 -99 34 -137 52 -117 4 4 31 51 59 105 29
54 54 96 57 93 3 -2 -2 -46 -11 -97 -9 -51 -16 -98 -16 -106 0 -22 29 -14 35
10 14 64 41 247 37 252 -3 3 -15 5 -26 5 -17 0 -33 -23 -76 -105 -30 -58 -58
-105 -62 -105 -5 0 -8 1 -8 3 0 1 -9 54 -20 117 -11 63 -20 116 -20 116 0 9
-53 9 -56 0z"/>
<path d="M3858 8028 c-26 -78 -45 -144 -42 -147 11 -12 39 18 47 51 8 33 12
36 54 42 75 10 78 9 101 -40 15 -31 28 -44 39 -42 9 2 16 6 15 11 -1 4 -29 66
-63 137 -84 177 -89 177 -151 -12z m99 45 c12 -31 20 -60 17 -64 -6 -11 -84
-12 -84 -2 0 17 33 123 39 123 3 0 16 -25 28 -57z"/>
<path d="M3703 8123 c3 -16 11 -79 18 -140 11 -101 15 -113 32 -113 17 0 19 5
14 38 -3 20 -11 83 -18 140 -11 91 -14 102 -32 102 -16 0 -19 -5 -14 -27z"/>
<path d="M4581 7989 c-23 -71 -42 -132 -42 -136 0 -12 182 -65 199 -58 23 9 5
20 -73 45 -38 12 -73 26 -78 29 -7 7 9 69 22 84 4 4 40 -4 80 -18 62 -21 73
-22 78 -9 7 18 12 15 -75 43 -56 17 -72 26 -68 38 3 8 9 26 12 39 8 29 11 29
96 2 52 -17 71 -19 80 -10 15 15 20 12 -93 48 l-96 31 -42 -128z"/>
<path d="M3441 8090 c-35 -11 -66 -22 -69 -25 -3 -2 12 -63 33 -135 32 -109
41 -130 58 -130 14 0 17 5 13 16 -4 9 -11 37 -18 61 -13 52 -4 63 48 63 23 0
47 -13 87 -45 35 -30 60 -43 71 -39 9 3 16 8 16 11 0 7 -53 51 -87 73 l-31 21
24 24 c29 30 31 64 3 99 -25 31 -56 33 -148 6z m113 -23 c44 -32 -2 -84 -90
-102 -28 -5 -32 -3 -38 22 -4 15 -9 36 -12 45 -4 13 6 20 43 31 62 19 75 20
97 4z"/>
<path d="M3175 7999 c-57 -24 -89 -43 -87 -51 4 -14 101 -241 106 -245 3 -3
188 76 195 83 3 2 0 9 -5 14 -7 7 -34 1 -82 -20 -39 -16 -76 -30 -81 -30 -10
0 -41 61 -41 80 0 4 32 20 70 35 39 15 70 32 70 36 0 19 -24 18 -81 -6 -34
-14 -66 -25 -70 -25 -9 0 -39 53 -39 68 0 5 32 22 71 37 72 29 88 41 73 55 -5
4 -49 -10 -99 -31z"/>
<path d="M4885 7968 c-15 -12 -36 -40 -46 -62 -39 -86 -14 -161 64 -191 51
-19 100 -10 132 25 16 18 16 20 2 26 -9 3 -26 -1 -39 -10 -31 -22 -80 -20
-112 5 -22 17 -26 29 -26 68 0 108 99 172 168 108 12 -11 22 -31 22 -44 0 -16
6 -23 20 -23 24 0 26 20 5 60 -31 60 -136 81 -190 38z"/>
<path d="M2975 7911 c-8 -14 116 -251 132 -251 26 0 20 21 -40 135 -60 115
-78 138 -92 116z"/>
<path d="M2860 7849 c0 -6 23 -49 51 -95 29 -47 50 -86 48 -88 -2 -2 -57 21
-121 52 -95 44 -120 52 -132 43 -12 -10 -3 -31 57 -132 40 -65 75 -119 80
-119 24 0 13 37 -33 110 -28 46 -49 84 -47 87 2 2 54 -19 115 -47 113 -51 136
-57 146 -41 8 13 -134 241 -150 241 -8 0 -14 -5 -14 -11z"/>
<path d="M5153 7763 c-60 -49 -111 -92 -113 -98 -8 -23 34 -15 61 11 l29 28
55 -29 55 -30 -6 -45 c-5 -34 -2 -49 9 -58 18 -15 19 -12 43 167 13 103 14
125 3 132 -8 5 -17 9 -20 9 -4 0 -56 -39 -116 -87z m113 30 c-3 -10 -8 -39
-12 -65 -3 -27 -10 -48 -15 -48 -4 0 -24 9 -43 21 l-36 21 48 44 c51 47 66 54
58 27z"/>
<path d="M3873 7759 c-269 -16 -508 -82 -768 -211 -787 -391 -1326 -1297
-1459 -2450 -36 -311 -39 -796 -6 -1113 130 -1256 703 -2180 1604 -2586 284
-128 682 -213 916 -194 258 20 443 71 670 186 207 105 363 219 543 396 240
238 411 475 577 804 299 592 450 1263 450 2003 0 958 -245 1759 -717 2346
-149 187 -390 399 -585 519 -285 173 -628 282 -933 297 -60 2 -123 6 -140 7
-16 2 -85 0 -152 -4z m345 -90 c790 -86 1451 -624 1806 -1470 324 -775 385
-1840 156 -2744 -160 -630 -439 -1165 -810 -1549 -303 -314 -609 -498 -966
-582 -110 -26 -135 -28 -319 -28 -180 0 -213 3 -330 27 -269 58 -576 183 -790
324 -812 534 -1265 1564 -1265 2873 0 1050 304 1940 860 2514 191 198 368 330
585 439 227 113 414 168 690 200 69 9 293 6 383 -4z"/>
<path d="M5060 6466 l-235 -142 -3 -71 -3 -71 -64 -16 c-87 -22 -88 -21 -114
24 -34 61 -121 151 -166 171 -22 10 -55 19 -73 19 -36 0 -97 -23 -123 -46 -14
-13 -18 -13 -29 1 -19 23 -76 19 -94 -7 -20 -28 -20 -67 -1 -94 13 -19 11 -28
-25 -100 -22 -43 -49 -106 -61 -141 -11 -35 -22 -63 -24 -63 -2 0 -33 22 -68
49 -188 141 -359 158 -472 45 -54 -53 -70 -118 -70 -274 l1 -135 -156 0 c-180
-1 -233 -16 -308 -85 l-43 -40 5 -78 c6 -86 31 -169 76 -248 45 -81 20 -87
-72 -16 l-63 47 -100 3 -100 3 -215 -136 c-118 -75 -222 -143 -230 -151 -10
-10 -17 -42 -20 -96 l-5 -82 -75 -42 c-78 -44 -85 -51 -72 -72 6 -9 31 0 96
37 52 29 95 47 106 44 12 -3 28 4 43 21 25 27 216 116 248 116 18 0 19 -10 19
-129 l0 -128 -37 -6 c-21 -4 -89 -12 -150 -18 -97 -11 -113 -15 -113 -30 0
-15 10 -19 62 -21 l61 -3 -94 -39 c-52 -21 -100 -40 -106 -43 -9 -4 -13 9 -13
44 0 55 -12 73 -50 73 -42 0 -50 -17 -50 -106 l0 -83 -40 -28 c-22 -15 -40
-33 -40 -40 0 -26 24 -24 64 5 23 17 55 32 71 34 20 2 34 11 42 29 10 21 45
39 171 92 87 37 172 67 190 67 l32 0 0 -164 0 -164 -178 -4 c-133 -2 -183 -7
-195 -17 -24 -19 -25 -182 -2 -201 9 -7 13 -21 10 -31 -3 -9 0 -21 6 -25 8 -5
28 10 55 40 32 37 63 58 129 87 93 41 142 49 152 24 3 -9 -47 -287 -112 -618
-65 -331 -133 -683 -152 -782 -18 -99 -36 -188 -39 -197 -5 -18 32 -36 45 -21
5 4 39 46 76 92 l69 83 19 -33 c10 -19 40 -72 67 -117 l47 -84 78 106 c42 58
78 106 80 106 1 0 28 -43 60 -95 31 -52 61 -97 65 -100 4 -2 40 43 81 100 41
58 78 105 82 105 4 0 48 -35 98 -78 101 -86 104 -88 123 -73 11 9 7 41 -20
177 -19 92 -36 181 -39 198 -2 17 -20 110 -40 206 -66 325 -195 998 -195 1017
0 16 17 22 115 41 64 13 122 25 130 28 12 5 15 -6 15 -65 0 -58 4 -75 20 -91
22 -22 33 -24 59 -10 17 9 19 2 23 -83 6 -101 30 -177 78 -249 17 -24 30 -56
30 -74 0 -19 9 -39 23 -52 22 -21 28 -21 138 -13 105 8 124 12 203 49 47 23
100 50 116 62 35 25 33 29 55 -95 21 -118 60 -245 97 -319 94 -185 297 -282
430 -204 25 16 65 49 87 75 40 47 161 270 161 298 0 29 21 24 82 -22 35 -27
88 -59 118 -72 30 -13 74 -32 97 -43 l42 -19 70 36 c82 41 111 77 144 180 19
61 22 91 21 228 0 127 2 157 13 153 100 -39 347 -45 450 -12 77 24 172 93 211
151 32 46 34 55 30 116 -5 85 -61 204 -145 304 -32 39 -63 77 -70 86 -13 17
-65 248 -58 259 3 4 43 29 90 55 96 54 196 140 236 203 15 23 38 52 53 63 15
12 26 30 26 45 0 22 -24 56 -46 65 -5 2 -20 28 -33 57 -25 53 -76 115 -120
145 -22 15 -22 17 -7 32 12 13 16 36 16 101 0 47 -4 94 -10 104 -8 15 -3 23
25 45 20 14 46 48 60 74 13 27 43 65 66 84 27 24 39 41 36 52 -8 20 -19 19
-45 -5 -12 -11 -25 -20 -29 -20 -4 0 -8 31 -8 68 0 40 -5 75 -12 84 -10 11
-56 18 -178 28 -91 7 -165 16 -164 19 0 3 27 29 59 56 44 37 73 53 112 61 88
20 118 34 118 56 0 17 -5 19 -25 14 -25 -6 -25 -6 -25 59 0 74 -12 105 -40
105 -10 0 -103 61 -207 135 l-188 135 -95 -1 -95 -1 -235 -142z m362 64 c9
-19 33 -70 52 -112 l35 -78 -134 0 c-74 0 -135 2 -135 6 0 3 25 55 56 115 52
101 59 110 83 107 18 -2 31 -13 43 -38z m238 -182 c0 -5 -29 -8 -63 -8 l-64 0
-50 109 c-28 60 -48 112 -45 116 6 6 222 -204 222 -217z m-396 99 l-55 -107
-57 0 -57 0 110 110 c60 60 110 108 112 107 1 -2 -23 -51 -53 -110z m403 -9
l128 -93 -39 -3 c-38 -3 -43 0 -135 92 -53 53 -93 96 -89 96 4 0 65 -42 135
-92z m-533 -12 l-89 -85 -60 0 c-43 0 -56 3 -45 10 58 38 276 164 279 162 2
-1 -36 -41 -85 -87z m-679 -102 c46 -21 118 -96 150 -156 15 -27 25 -51 23
-52 -1 -2 -54 -44 -115 -94 -91 -75 -119 -92 -146 -92 -32 0 -137 -46 -207
-91 -19 -13 -32 -19 -27 -14 4 5 -7 23 -24 41 l-32 33 38 98 c47 121 79 179
122 219 18 18 33 39 33 48 0 22 87 76 123 76 16 0 44 -7 62 -16z m1140 -37
c-14 -8 -81 -12 -225 -12 -144 0 -211 4 -225 12 -16 10 28 12 225 12 197 0
241 -2 225 -12z m-536 -27 c63 -11 118 -20 123 -20 5 0 7 -55 6 -122 l-3 -123
-185 -17 c-281 -25 -252 -31 -285 53 -15 38 -26 72 -24 74 2 2 31 10 64 19 53
14 61 14 71 1 16 -21 51 -19 64 4 5 11 10 52 10 91 0 68 1 70 23 65 12 -3 73
-14 136 -25z m781 -40 c0 -65 -2 -71 -24 -80 -13 -5 -60 -40 -104 -79 -81 -72
-101 -80 -160 -65 -22 6 -23 9 -20 123 l3 116 140 26 c77 15 146 27 153 28 8
1 12 -19 12 -69z m-525 -40 c-14 -27 -27 -50 -30 -50 -3 0 -16 23 -30 50 l-25
50 55 0 55 0 -25 -50z m175 46 c0 -7 -41 -76 -45 -76 -4 0 -45 69 -45 76 0 2
20 4 45 4 25 0 45 -2 45 -4z m-82 -73 c19 -36 19 -37 0 -70 -11 -18 -22 -33
-24 -33 -2 0 -4 32 -4 70 0 39 2 70 5 70 2 0 13 -17 23 -37z m100 -81 l-3 -37
-22 38 c-28 47 -28 44 0 87 l22 35 3 -43 c2 -23 2 -59 0 -80z m-261 65 c20
-42 20 -43 2 -80 -11 -20 -23 -37 -27 -37 -4 0 -7 36 -7 80 0 44 2 80 6 80 3
0 14 -19 26 -43z m106 -43 c-1 -47 -4 -88 -6 -90 -2 -2 -14 18 -26 44 l-23 49
21 41 c12 23 25 42 29 42 4 0 6 -39 5 -86z m-674 -82 c24 -60 16 -88 -29 -99
-14 -3 -55 -21 -92 -39 -37 -19 -72 -34 -77 -34 -6 0 -18 14 -27 31 -19 37
-26 28 101 133 50 40 93 71 97 67 4 -3 16 -30 27 -59z m791 28 l20 -40 -50 0
-51 0 23 40 c13 22 26 40 30 40 4 0 17 -18 28 -40z m-1643 -19 c64 -30 203
-126 203 -139 0 -4 -9 -40 -20 -81 -20 -75 -35 -95 -80 -106 -14 -4 -39 -17
-57 -31 -17 -13 -37 -24 -44 -24 -7 0 -32 -18 -54 -40 l-42 -41 -122 25 c-68
14 -126 28 -129 31 -3 3 -6 63 -6 133 -1 182 24 244 118 289 68 32 140 27 233
-16z m1471 14 c16 -35 16 -35 -18 -35 -16 0 -30 2 -30 5 0 11 24 55 30 55 4 0
12 -11 18 -25z m-128 -129 c0 -3 -17 -10 -37 -16 -63 -20 -167 -67 -242 -110
-39 -22 -73 -40 -76 -40 -3 0 -5 29 -5 65 0 62 -1 65 -30 80 -16 9 -30 18 -30
20 0 3 95 5 210 5 116 0 210 -2 210 -4z m802 -108 l3 -113 -54 -52 -55 -53
-107 0 -107 0 1 73 c0 84 -23 145 -72 191 -29 28 -30 31 -14 48 14 16 35 18
209 18 l193 0 3 -112z m-636 79 c-9 -39 -36 -97 -44 -97 -12 0 -43 93 -35 101
5 4 22 9 38 12 17 2 34 5 39 6 4 0 6 -9 2 -22z m113 12 c39 -14 39 -29 2 -56
l-28 -22 -12 38 c-17 58 -16 59 38 40z m-749 -28 c0 -4 -36 -29 -81 -54 -69
-39 -84 -44 -100 -34 -10 6 -19 14 -19 17 0 3 31 22 68 42 62 34 132 50 132
29z m490 -129 c0 -139 -5 -152 -52 -152 -23 0 -28 4 -28 24 0 14 -20 48 -46
80 -55 68 -68 69 -165 21 -77 -39 -116 -37 -53 2 94 58 296 151 332 153 9 0
12 -32 12 -128z m65 63 c25 -58 26 -67 15 -97 -14 -35 -40 -71 -47 -64 -7 7
-8 226 -2 226 4 0 19 -29 34 -65z m-1161 26 c16 -18 15 -19 -16 -39 -18 -12
-34 -20 -35 -18 -5 4 21 76 27 76 4 0 15 -8 24 -19z m1306 -17 c0 -13 -4 -24
-10 -24 -5 0 -10 14 -10 31 0 17 4 28 10 24 6 -3 10 -17 10 -31z m110 -99 c0
-69 -4 -125 -8 -125 -4 0 -18 33 -30 74 l-22 74 22 51 c11 28 25 51 29 51 5 0
9 -56 9 -125z m67 83 c24 -35 29 -54 32 -125 l3 -83 -41 0 -41 0 0 125 c0 75
4 125 10 125 5 0 22 -19 37 -42z m-224 -5 c-6 -39 -27 -72 -39 -61 -8 8 26 98
37 98 4 0 5 -17 2 -37z m-1179 -66 c14 -19 31 -48 37 -65 9 -25 18 -33 47 -37
21 -4 49 -9 64 -11 25 -5 30 0 57 53 38 76 49 85 99 77 62 -10 62 -10 54 -111
-7 -87 -9 -92 -41 -119 -67 -57 -66 -56 -128 -43 -106 22 -229 -5 -332 -71
-35 -23 -65 -40 -66 -38 -4 4 23 156 29 167 3 5 19 14 36 21 30 12 30 12 30
96 0 74 2 84 22 98 35 25 64 20 92 -17z m1246 14 c0 -10 -8 -36 -17 -57 l-18
-39 -3 43 c-3 41 10 72 29 72 5 0 9 -8 9 -19z m-61 -73 c1 -5 -3 -8 -8 -8 -12
0 -22 30 -14 43 6 10 20 -13 22 -35z m-356 8 c9 -7 17 -16 17 -19 0 -9 -158
-107 -174 -107 -15 0 -42 37 -33 46 6 6 161 92 167 93 3 0 13 -6 23 -13z m461
-63 c7 -21 4 -23 -33 -23 -23 0 -41 2 -41 4 0 2 10 25 22 52 l21 49 12 -30 c7
-16 16 -40 19 -52z m-131 17 l15 -40 -49 0 c-27 0 -49 4 -49 9 0 12 49 71 59
71 5 0 15 -18 24 -40z m-1908 -46 c16 -4 26 -28 50 -130 20 -83 27 -128 20
-133 -15 -12 -402 -181 -413 -181 -19 0 -87 156 -106 243 -6 26 -5 27 34 27
31 0 43 5 56 25 14 21 14 30 4 55 -7 17 -16 30 -21 30 -5 0 -9 6 -9 14 0 14 5
16 90 41 44 13 255 20 295 9z m452 -16 c68 -17 74 -33 54 -154 -13 -85 -21
-106 -48 -138 -17 -21 -47 -70 -67 -109 -30 -58 -44 -74 -76 -88 -29 -13 -41
-15 -48 -6 -27 35 -103 181 -99 191 4 9 19 11 59 5 93 -13 94 -13 127 41 17
28 31 62 31 75 0 21 10 29 55 50 41 18 53 28 49 39 -8 21 -20 20 -73 -4 -24
-11 -45 -20 -47 -20 -7 0 -34 60 -34 76 0 24 41 66 58 59 8 -3 35 -10 59 -17z
m-258 -17 c92 -20 111 -35 111 -85 0 -26 -8 -36 -43 -57 -57 -36 -136 -69
-141 -61 -4 7 -33 120 -50 195 -8 34 3 34 123 8z m1179 -40 l22 -16 -40 -63
c-22 -34 -40 -67 -40 -72 0 -5 10 -30 22 -54 23 -48 25 -49 123 -62 72 -9 105
-31 105 -69 0 -25 -10 -38 -55 -73 l-55 -43 0 -69 0 -69 85 -26 85 -26 -6 -42
c-3 -23 -7 -47 -9 -53 -2 -6 -31 -19 -64 -28 l-61 -17 -21 -70 -21 -70 38 -34
c22 -19 51 -43 67 -52 15 -10 27 -20 27 -24 0 -8 -300 -92 -307 -86 -2 3 2 16
11 29 8 13 29 77 47 143 40 155 50 316 25 427 -32 145 -122 291 -239 389 -34
28 -62 55 -62 59 0 12 76 70 90 70 7 0 18 -7 25 -15 18 -22 29 -18 85 24 54
42 58 42 123 -8z m304 27 c-9 -9 -15 -9 -24 0 -9 9 -7 12 12 12 19 0 21 -3 12
-12z m88 -3 c0 -8 -9 -15 -20 -15 -20 0 -26 11 -13 23 12 13 33 7 33 -8z m76
0 c-27 -21 -53 -20 -36 0 7 8 22 15 34 15 21 -1 21 -1 2 -15z m221 -2 c3 -8
-13 -11 -51 -11 -42 1 -56 4 -56 15 0 11 12 13 52 11 28 -2 53 -8 55 -15z
m106 2 c1 -5 -13 -11 -30 -13 -31 -3 -42 6 -26 22 10 10 53 3 56 -9z m74 9
c-3 -3 -12 -4 -19 -1 -8 3 -5 6 6 6 11 1 17 -2 13 -5z m197 -99 c1 -63 -1 -75
-14 -72 -8 3 -37 11 -65 18 -27 7 -52 15 -55 17 -2 2 25 30 60 62 36 32 67 56
69 54 2 -2 4 -37 5 -79z m-94 68 c0 -16 -99 -93 -119 -93 -41 0 -50 9 -38 40
10 25 19 31 67 40 30 6 60 13 65 15 17 6 25 5 25 -2z m-393 -20 c7 -21 -40
-41 -109 -46 -38 -2 -68 -1 -68 4 0 5 21 20 48 34 49 26 122 31 129 8z m-327
-3 c0 -5 -4 -10 -10 -10 -5 0 -10 5 -10 10 0 6 5 10 10 10 6 0 10 -4 10 -10z
m84 -6 c22 -8 20 -21 -4 -27 -12 -3 -20 -14 -20 -26 0 -29 -14 -26 -29 5 -18
40 9 65 53 48z m384 -16 c18 -18 15 -28 -8 -28 -11 0 -20 2 -20 4 0 2 -3 11
-6 20 -7 19 16 22 34 4z m62 8 c0 -3 -4 -8 -10 -11 -5 -3 -10 -1 -10 4 0 6 5
11 10 11 6 0 10 -2 10 -4z m-620 -80 c0 -19 -12 -29 -70 -55 -67 -31 -100 -35
-100 -11 0 8 149 88 168 90 1 0 2 -11 2 -24z m190 20 c0 -3 -4 -8 -10 -11 -5
-3 -10 -1 -10 4 0 6 5 11 10 11 6 0 10 -2 10 -4z m-140 -15 c0 -5 -7 -12 -16
-15 -14 -5 -15 -4 -4 9 14 17 20 19 20 6z m340 -11 c0 -5 -4 -10 -10 -10 -5 0
-10 5 -10 10 0 6 5 10 10 10 6 0 10 -4 10 -10z m143 -20 c21 -35 14 -70 -13
-70 -14 0 -19 9 -22 46 -5 65 7 73 35 24z m-193 11 c0 -21 -13 -41 -26 -41
-17 0 -18 22 -2 38 14 14 28 16 28 3z m320 0 c0 -5 -6 -14 -14 -20 -16 -13
-32 2 -21 19 8 12 35 13 35 1z m-206 -38 c16 -83 18 -143 5 -143 -56 1 -176
67 -156 86 10 11 131 83 139 84 3 0 9 -12 12 -27z m351 12 c129 -33 202 -86
247 -180 l21 -42 -22 -22 c-27 -27 -27 -68 -1 -96 l20 -22 -31 -39 c-17 -21
-53 -58 -81 -80 -56 -47 -196 -129 -204 -121 -6 5 -30 115 -85 388 l-31 157
38 36 c45 41 49 41 129 21z m-1285 -5 c0 -6 -12 -22 -26 -35 -20 -19 -38 -25
-70 -25 -90 0 -24 51 89 69 4 0 7 -4 7 -9z m-305 -20 c-25 -28 -15 -33 33 -16
36 13 42 13 42 1 0 -14 -48 -45 -70 -45 -6 0 -19 15 -30 32 -18 31 -19 33 -2
40 35 14 46 9 27 -12z m425 -75 c0 -3 -16 -37 -36 -76 -28 -55 -38 -88 -42
-140 l-5 -69 40 -39 c31 -31 49 -40 88 -46 113 -15 105 -8 105 -87 l0 -70 -65
7 c-76 8 -99 -2 -136 -61 -31 -51 -28 -118 11 -224 33 -91 33 -93 -27 -105
-30 -5 -39 -1 -92 46 l-58 53 32 31 c40 41 66 96 70 149 1 23 12 61 24 84 18
35 19 42 6 42 -19 0 -19 14 0 30 13 11 14 15 2 29 -25 29 -38 82 -25 99 10 11
9 17 -6 28 -11 7 -16 20 -13 29 4 10 0 15 -12 15 -16 0 -18 6 -14 44 5 42 4
44 -19 39 -19 -4 -26 0 -31 16 -3 12 -21 28 -43 37 l-38 16 29 15 c40 20 100
78 136 131 l30 42 45 -30 c24 -17 44 -33 44 -35z m624 46 c4 -5 -37 -32 -90
-60 -76 -41 -99 -49 -110 -40 -8 6 -14 15 -14 19 0 5 33 27 73 49 69 39 129
52 141 32z m-1131 -10 c14 -5 35 -23 47 -40 l22 -31 -55 -57 c-30 -31 -59 -53
-64 -50 -17 11 -26 142 -11 166 14 23 25 25 61 12z m-111 -43 c3 -18 8 -41 12
-50 5 -11 1 -20 -14 -28 -33 -17 -46 1 -25 34 10 16 13 26 6 26 -12 0 -15 32
-4 43 13 14 21 6 25 -25z m-482 -4 c0 -14 14 -45 30 -69 17 -24 30 -48 30 -52
0 -5 -25 -17 -55 -27 -31 -9 -104 -38 -163 -63 -150 -63 -140 -63 -189 1 -24
30 -43 58 -43 63 0 7 364 171 383 172 4 1 7 -11 7 -25z m2045 -16 c-2 -7 -9
-33 -15 -58 l-12 -44 -19 24 c-24 32 -24 39 3 67 23 25 50 31 43 11z m-279
-110 l7 -67 -66 20 -66 20 -112 -56 c-61 -31 -113 -54 -115 -52 -12 12 13 38
45 48 21 6 94 46 162 89 68 42 127 74 131 71 4 -3 10 -36 14 -73z m97 53 c18
-6 18 -7 -1 -24 -18 -16 -19 -16 -30 8 -12 27 -5 31 31 16z m241 -95 c10 -49
20 -95 23 -103 3 -7 1 -13 -3 -13 -10 0 -78 113 -76 127 4 36 25 94 31 87 4
-5 15 -49 25 -98z m-2799 24 c16 -39 26 -72 24 -74 -15 -13 -189 -82 -189 -75
0 5 24 56 52 114 34 68 58 105 69 105 10 0 25 -24 44 -70z m101 -39 c-15 -23
-36 -9 -56 35 -11 26 -20 49 -20 53 0 3 19 -13 41 -36 23 -22 38 -46 35 -52z
m-278 -35 l-42 -86 -43 0 c-24 0 -43 3 -43 7 0 10 163 174 167 169 2 -2 -15
-42 -39 -90z m2860 68 c9 -19 9 -36 1 -70 -18 -70 -29 -62 -29 20 0 79 9 94
28 50z m-2974 -74 c-76 -78 -80 -80 -126 -80 -27 0 -48 3 -48 8 0 4 28 24 63
44 34 21 89 55 122 77 33 22 62 38 64 36 2 -3 -32 -40 -75 -85z m446 69 c0 -6
-4 -7 -10 -4 -5 3 -10 11 -10 16 0 6 5 7 10 4 6 -3 10 -11 10 -16z m1333 -22
c65 -39 131 -115 153 -178 27 -77 25 -198 -4 -262 -55 -122 -131 -191 -223
-202 -51 -6 -62 -4 -127 29 -39 20 -79 48 -88 62 -16 23 -16 27 -1 41 14 14
22 14 85 -6 39 -11 81 -21 94 -21 30 0 120 60 147 99 15 20 27 28 41 24 21 -6
22 -2 39 96 l9 54 -38 14 c-28 11 -45 28 -65 64 -30 56 -64 77 -136 86 l-51 6
-59 -64 c-32 -35 -59 -67 -59 -71 0 -5 -11 -8 -24 -8 -22 0 -25 -5 -31 -57 -4
-32 -7 -65 -8 -73 -1 -8 10 -20 26 -28 33 -16 27 -32 -13 -32 -36 0 -40 12
-40 129 0 91 2 100 30 142 16 25 63 78 105 118 l76 74 59 -6 c38 -3 76 -14
103 -30z m-1218 2 c11 -17 -1 -21 -15 -4 -8 9 -8 15 -2 15 6 0 14 -5 17 -11z
m525 1 c0 -5 -32 -26 -71 -46 -39 -19 -81 -45 -94 -58 -12 -12 -49 -34 -82
-48 l-60 -26 -22 29 -22 29 48 21 c72 32 276 108 291 108 6 1 12 -3 12 -9z
m1126 -98 c-9 -9 -61 24 -64 41 -2 10 4 30 14 45 l17 26 19 -54 c10 -29 16
-55 14 -58z m-896 88 c0 -5 -4 -10 -10 -10 -5 0 -10 5 -10 10 0 6 5 10 10 10
6 0 10 -4 10 -10z m1600 0 c0 -5 -5 -10 -11 -10 -5 0 -7 5 -4 10 3 6 8 10 11
10 2 0 4 -4 4 -10z m-2359 -51 c38 -28 69 -55 69 -60 0 -5 -13 -9 -29 -9 -22
0 -39 12 -75 54 -72 84 -63 88 35 15z m894 32 c-3 -6 -14 -11 -23 -11 -15 1
-15 2 2 15 21 16 32 13 21 -4z m-206 -13 c0 -7 -4 -22 -8 -33 -8 -19 -8 -19
-20 4 -11 19 -11 25 0 32 20 12 29 11 28 -3z m-777 -35 c21 -20 38 -41 38 -45
0 -4 -22 -8 -50 -8 -45 0 -51 3 -65 31 -9 17 -15 32 -13 33 7 6 43 25 48 26 2
0 21 -17 42 -37z m2610 -68 l56 -94 -35 -67 -36 -67 -28 34 c-37 44 -36 53 4
64 53 16 41 39 -22 43 -49 3 -53 5 -47 25 3 12 13 52 23 90 10 37 20 67 23 67
3 -1 31 -43 62 -95z m-1887 38 c24 -42 27 -59 27 -142 l1 -93 -52 -70 c-73
-97 -84 -89 -66 48 l7 60 -76 50 c-69 44 -76 52 -74 78 3 27 11 33 98 72 52
23 98 42 102 43 3 1 18 -20 33 -46z m1725 7 c0 -16 -2 -30 -5 -30 -8 0 -23 44
-18 53 10 17 23 5 23 -23z m-2560 -22 c0 -4 -25 -8 -55 -8 -30 0 -55 2 -55 5
0 3 19 14 43 24 38 17 43 17 55 3 6 -9 12 -19 12 -24z m2524 -45 c14 -28 22
-54 18 -57 -10 -11 -112 -6 -112 4 0 21 51 111 61 108 5 -2 20 -26 33 -55z
m-2864 -3 c0 -5 -4 -10 -10 -10 -5 0 -10 5 -10 10 0 6 5 10 10 10 6 0 10 -4
10 -10z m450 -1 c0 -14 -84 -20 -225 -17 -103 2 -134 6 -118 13 26 11 343 15
343 4z m436 -24 c-10 -41 10 -63 94 -105 l80 -40 0 -44 c0 -29 -5 -46 -14 -49
-20 -8 -256 191 -256 215 0 7 76 45 94 47 4 1 5 -10 2 -24z m-1003 -1 c46 -8
41 -14 -35 -48 l-58 -25 0 45 c0 44 1 45 28 40 15 -3 44 -8 65 -12z m767 -6
c0 -20 -17 -30 -116 -72 -63 -27 -117 -46 -120 -43 -10 9 145 121 181 130 43
11 55 7 55 -15z m-220 -43 c-41 -42 -52 -44 -48 -8 3 27 18 35 72 42 6 0 -5
-15 -24 -34z m1219 31 c-11 -11 -183 -106 -191 -106 -5 0 -8 9 -6 21 2 16 23
29 88 54 75 30 122 43 109 31z m-1469 -25 c0 -14 -34 -71 -42 -71 -6 0 -38 64
-38 76 0 2 18 4 40 4 22 0 40 -4 40 -9z m150 2 c0 -5 -9 -19 -20 -33 -19 -25
-19 -25 -34 -5 -25 32 -19 45 19 45 19 0 35 -3 35 -7z m928 -21 c6 -18 -15
-14 -22 4 -4 10 -1 14 6 12 6 -2 14 -10 16 -16z m-414 -74 c45 -40 96 -85 114
-100 31 -26 42 -48 23 -48 -4 0 -20 -11 -35 -25 -45 -41 -65 -49 -85 -31 -21
19 -62 21 -79 4 -7 -7 -12 -24 -12 -38 0 -25 -11 -32 -170 -99 -166 -71 -171
-73 -195 -57 -24 16 -26 21 -23 94 l3 77 168 3 c153 2 167 4 167 20 0 16 -20
21 -167 38 l-168 19 -3 40 c-1 22 1 45 5 50 6 9 91 46 255 113 4 2 8 -10 8
-27 0 -59 79 -80 100 -26 5 12 6 32 3 44 -3 12 -2 21 2 21 4 0 44 -33 89 -72z
m831 28 c-58 -40 -155 -95 -155 -87 0 13 22 29 92 67 64 34 99 46 63 20z
m-1416 -57 c-14 -28 -19 -23 -19 19 1 34 2 36 15 18 10 -13 11 -24 4 -37z m91
43 c0 -5 -6 -17 -14 -28 -19 -25 -31 -12 -14 15 13 21 28 28 28 13z m2298 -4
c-2 -6 -10 -14 -16 -16 -7 -2 -10 2 -6 12 7 18 28 22 22 4z m192 -18 c0 -5 -5
-12 -11 -15 -11 -8 -40 25 -33 37 6 10 44 -9 44 -22z m170 -58 c0 -7 -15 -1
-35 15 -23 19 -35 36 -35 53 0 24 2 23 35 -15 19 -22 34 -46 35 -53z m130 68
c0 -11 -2 -20 -4 -20 -2 0 -12 -3 -21 -6 -14 -6 -14 -3 -4 20 14 31 29 34 29
6z m-3036 -16 c8 -29 -1 -64 -15 -64 -5 0 -9 20 -9 45 0 49 14 60 24 19z m96
-18 c0 -52 -12 -66 -28 -31 -9 19 -9 31 0 50 17 38 28 30 28 -19z m2503 1 c-5
-32 -8 -35 -25 -26 -18 10 -18 11 3 40 26 37 30 34 22 -14z m62 13 c7 -23 -1
-40 -19 -40 -8 0 -11 10 -8 30 5 34 18 39 27 10z m133 -22 c7 -7 12 -26 12
-44 0 -41 -25 -52 -50 -22 -16 20 -17 26 -4 50 16 31 24 34 42 16z m270 -83
c7 -35 15 -71 18 -80 13 -33 -13 -10 -58 51 l-47 64 27 15 c15 8 32 14 38 15
6 0 16 -29 22 -65z m-1948 16 c0 -11 -9 -21 -22 -24 -30 -8 -32 -3 -13 27 18
28 35 26 35 -3z m980 22 c-1 -22 -27 -94 -36 -96 -14 -3 -17 54 -3 80 11 21
39 33 39 16z m755 -3 c3 -5 1 -10 -4 -10 -6 0 -11 5 -11 10 0 6 2 10 4 10 3 0
8 -4 11 -10z m-2665 -9 c0 -21 -13 -41 -26 -41 -17 0 -17 5 -2 30 13 21 28 27
28 11z m2484 -25 c-6 -16 -24 -23 -24 -8 0 10 22 33 27 28 2 -2 1 -11 -3 -20z
m-1299 -16 c-3 -5 -16 -10 -28 -9 -21 0 -21 1 -2 9 28 12 37 12 30 0z m1497
-37 l-27 -48 -3 35 c-3 24 2 38 14 47 37 27 43 13 16 -34z m-62 -4 c0 -11 -4
-17 -10 -14 -5 3 -10 13 -10 21 0 8 5 14 10 14 6 0 10 -9 10 -21z m210 -49
l75 -70 -44 -39 c-43 -38 -44 -38 -72 -22 -29 16 -38 31 -19 31 6 0 10 11 10
25 0 23 -3 25 -50 25 -27 0 -50 3 -50 8 0 13 60 112 68 112 4 0 41 -31 82 -70z
m-2940 50 c0 -5 -18 -10 -40 -10 -22 0 -40 5 -40 10 0 6 18 10 40 10 22 0 40
-4 40 -10z m1052 -29 c5 -18 7 -35 4 -38 -2 -3 -26 10 -53 28 l-48 34 30 6
c48 11 58 6 67 -30z m-189 -29 c-15 -20 -28 -39 -30 -41 -5 -8 -43 32 -43 45
0 13 79 45 93 37 4 -2 -5 -21 -20 -41z m1827 7 c12 -23 20 -42 18 -44 -5 -6
-148 -8 -153 -3 -3 3 12 17 34 32 22 15 42 34 45 42 10 26 36 14 56 -27z
m-2684 -12 c-3 -13 -13 -41 -22 -62 l-16 -39 -24 59 c-13 32 -24 60 -24 62 0
2 21 3 46 3 43 0 46 -1 40 -23z m84 -4 c0 -22 -2 -25 -10 -13 -13 20 -13 40 0
40 6 0 10 -12 10 -27z m63 7 c-3 -11 -9 -20 -14 -20 -5 0 -9 9 -9 20 0 11 6
20 14 20 9 0 12 -7 9 -20z m856 -30 c61 -40 87 -65 120 -116 29 -44 41 -73 39
-92 -3 -27 -4 -27 -98 -34 -52 -3 -96 -5 -98 -3 -2 1 6 18 17 36 17 30 18 41
8 94 -6 33 -16 63 -21 67 -6 4 -29 8 -52 8 -22 0 -43 3 -47 6 -6 6 41 84 50
84 2 0 39 -23 82 -50z m-224 -22 c14 -6 25 -14 25 -17 0 -3 -27 -49 -58 -101
-53 -87 -61 -95 -92 -98 -70 -7 -348 52 -343 72 2 9 245 116 263 116 6 0 10
-15 10 -33 0 -40 15 -57 50 -57 39 0 50 18 50 82 0 52 2 59 28 72 25 13 28 13
34 -5 4 -11 19 -24 33 -31z m1155 -18 c0 -5 -4 -10 -10 -10 -5 0 -10 5 -10 10
0 6 5 10 10 10 6 0 10 -4 10 -10z m-2011 -45 c19 -42 19 -48 4 -90 -24 -73
-33 -63 -33 39 0 53 2 96 5 96 2 0 13 -20 24 -45z m2331 27 c0 -5 -6 -16 -13
-26 -10 -14 -21 -16 -55 -10 -49 8 -47 15 11 31 54 14 57 15 57 5z m410 -2 c0
-18 -38 -30 -64 -20 -40 15 -31 30 19 30 25 0 45 -4 45 -10z m-1759 -20 c22
-12 44 -32 50 -46 8 -22 4 -33 -24 -73 l-33 -46 -82 -3 c-45 -2 -82 0 -82 3 0
20 107 185 120 185 6 0 29 -9 51 -20z m502 3 c9 -3 17 -9 17 -14 0 -17 -22
-20 -45 -5 -29 19 -34 42 -7 31 9 -4 25 -10 35 -12z m238 -5 c43 -14 92 -50
82 -59 -18 -15 -130 -30 -166 -22 l-38 8 33 43 c35 46 39 47 89 30z m-1579
-81 c-9 -19 -11 -13 -10 33 0 53 1 54 10 22 8 -23 8 -39 0 -55z m2974 24 l7
-43 -29 18 c-58 36 -58 36 -28 61 34 27 41 22 50 -36z m-3026 9 c0 -43 -14
-54 -23 -18 -5 19 7 58 18 58 3 0 5 -18 5 -40z m2833 19 l42 -22 -44 -39 c-56
-49 -75 -47 -79 11 -6 77 9 86 81 50z m-776 -1 c-3 -7 -12 -32 -22 -55 l-17
-42 36 -44 c20 -24 36 -48 36 -52 0 -4 7 -13 16 -20 16 -11 16 -14 -2 -43 -10
-18 -24 -32 -31 -32 -7 0 -38 12 -70 26 -42 18 -69 24 -98 21 -46 -5 -155 30
-155 51 0 13 25 41 107 116 42 38 66 52 120 66 85 23 86 23 80 8z m413 -23 c0
-41 -17 -46 -48 -12 -25 27 -14 47 25 47 20 0 23 -5 23 -35z m-2330 -16 c0
-20 -4 -29 -12 -27 -15 5 -22 33 -14 54 9 24 26 6 26 -27z m2415 31 c6 -10
-31 -49 -47 -50 -10 0 -10 44 -1 53 10 11 41 8 48 -3z m163 -29 c6 -61 -5 -68
-43 -31 -19 19 -35 37 -35 41 0 9 51 28 65 25 6 -1 11 -17 13 -35z m421 -57
c95 -141 114 -239 61 -312 -17 -23 -34 -42 -38 -42 -5 0 -23 73 -41 163 -18
89 -39 187 -47 218 -8 30 -14 59 -14 63 0 17 32 -19 79 -90z m-1905 45 c10
-17 15 -33 11 -37 -7 -8 -55 43 -55 59 0 20 27 7 44 -22z m586 -8 c0 -5 -6
-14 -14 -20 -11 -9 -16 -9 -21 0 -4 6 -1 15 6 20 18 11 29 11 29 0z m792 -8
c28 -25 22 -33 -27 -33 -50 0 -56 10 -22 33 28 20 27 20 49 0z m360 -14 c29
-17 54 -32 56 -34 5 -4 -108 -149 -119 -153 -10 -4 -119 79 -119 90 0 5 1 8 3
8 1 0 40 7 87 15 47 8 86 15 88 15 1 0 2 9 2 20 0 18 -7 20 -55 20 -30 0 -55
3 -55 6 0 7 43 43 52 44 4 0 31 -14 60 -31z m-687 11 c-3 -5 -11 -10 -16 -10
-6 0 -7 5 -4 10 3 6 11 10 16 10 6 0 7 -4 4 -10z m-1986 -36 c77 -27 260 -64
314 -64 33 0 33 2 -5 -92 -13 -32 -26 -58 -30 -58 -4 0 -4 24 -1 53 8 83 3 86
-213 89 l-179 3 -3 35 c-3 24 2 38 14 47 23 16 15 17 103 -13z m-333 -9 c7
-30 7 -30 -25 -40 -21 -6 -23 -5 -16 11 4 11 10 27 12 37 8 25 22 21 29 -8z
m137 -39 c7 -19 -1 -26 -30 -26 -25 0 -29 10 -11 28 16 16 35 15 41 -2z m1258
-2 c12 -14 11 -16 -5 -13 -11 2 -21 10 -24 17 -5 17 13 15 29 -4z m1316 10
c-3 -3 -12 -4 -19 -1 -8 3 -5 6 6 6 11 1 17 -2 13 -5z m-1378 -48 c28 -19 75
-40 104 -46 l53 -12 53 -94 53 -94 -9 -62 c-8 -61 -9 -63 -39 -66 -16 -2 -42
1 -56 7 -23 9 -26 16 -32 90 -6 68 -11 84 -29 95 -48 31 -68 25 -110 -34 -21
-30 -42 -62 -47 -70 -20 -35 -31 12 -38 159 -4 84 -5 155 -3 157 13 13 55 0
100 -30z m-139 -6 c0 -33 -11 -38 -30 -15 -17 20 -25 19 -105 -14 l-70 -30
-27 26 c-48 46 -20 57 155 61 l77 2 0 -30z m1924 -101 c15 -72 26 -133 24
-134 -5 -5 -153 119 -156 130 -3 12 86 135 97 135 4 0 20 -59 35 -131z m-2244
111 c0 -20 96 -110 118 -110 12 0 50 11 85 24 62 23 63 23 86 5 22 -18 23 -20
8 -58 -9 -21 -19 -61 -23 -89 -6 -48 -5 -50 24 -68 27 -15 32 -25 37 -73 3
-31 8 -73 10 -93 5 -34 2 -39 -37 -66 -141 -97 -326 -144 -336 -87 -6 34 -43
65 -76 65 -24 0 -36 8 -54 35 -85 132 -94 310 -22 462 l29 63 75 0 c43 0 76
-4 76 -10z m1704 -57 l45 -66 -31 -40 -31 -39 -23 79 c-19 65 -23 133 -8 133
2 0 24 -30 48 -67z m135 51 c6 -5 -53 -72 -64 -73 -9 -1 -55 70 -55 85 0 6
111 -4 119 -12z m-241 -149 c-9 -84 -14 -104 -21 -94 -13 17 -77 132 -77 137
0 4 19 29 42 56 l42 49 12 -29 c9 -22 10 -53 2 -119z m-2658 125 c0 -5 -13
-10 -30 -10 -16 0 -30 5 -30 10 0 6 14 10 30 10 17 0 30 -4 30 -10z m209 -16
c-15 -18 -103 -20 -97 -1 4 11 84 27 101 19 4 -2 3 -10 -4 -18z m300 17 c11
-7 6 -11 -20 -15 -67 -11 -82 -11 -86 1 -3 8 11 13 39 16 24 2 45 4 48 5 3 1
11 -2 19 -7z m2529 -38 c32 -26 59 -49 61 -50 2 -1 -23 -37 -55 -80 l-59 -78
-6 60 c-9 80 -11 195 -3 195 3 0 31 -21 62 -47z m-2690 20 c5 -16 -34 -17 -44
-2 -4 8 -9 8 -17 0 -16 -16 -27 -14 -27 5 0 12 9 14 42 12 23 -2 43 -9 46 -15z
m1619 -10 c60 -23 73 -31 69 -46 -2 -10 4 -49 14 -86 11 -37 16 -77 13 -90 -5
-19 -11 -22 -51 -19 -43 3 -47 5 -53 35 -10 52 -37 86 -62 79 -12 -3 -38 -9
-58 -12 -35 -6 -36 -5 -77 66 -45 78 -46 75 38 89 84 13 88 13 167 -16z m975
-101 c2 -45 0 -81 -4 -80 -3 2 -22 27 -42 57 l-36 53 37 50 c43 56 40 61 45
-80z m-3085 101 c24 -3 42 -10 41 -15 -3 -8 -111 -58 -125 -58 -6 0 -3 77 4
84 4 3 14 4 22 1 8 -3 35 -9 58 -12z m2693 2 c-7 -9 -15 -13 -17 -11 -7 7 7
26 19 26 6 0 6 -6 -2 -15z m-53 -41 c8 -22 -76 -107 -93 -93 -18 15 -6 45 33
79 38 34 51 37 60 14z m-2337 -11 c0 -5 -9 -19 -20 -33 l-19 -25 -10 28 c-15
38 -15 37 19 37 17 0 30 -3 30 -7z m100 -9 c0 -17 -22 -14 -28 4 -2 7 3 12 12
12 9 0 16 -7 16 -16z m125 -6 c4 -13 9 -31 12 -42 8 -27 -12 -12 -36 29 -20
34 -20 35 -1 35 11 0 21 -9 25 -22z m2181 -86 c19 -29 30 -52 24 -52 -15 0
-120 41 -120 47 0 11 46 62 54 59 5 -1 24 -25 42 -54z m662 -13 c48 -39 88
-75 90 -80 5 -12 -71 -44 -139 -59 -30 -6 -89 -10 -132 -8 l-79 3 82 108 c46
59 84 107 86 107 2 0 43 -32 92 -71z m-1022 46 c-26 -19 -42 -19 -26 0 7 8 20
15 29 15 13 -1 13 -3 -3 -15z m-1828 -60 l41 -64 -19 -67 c-11 -37 -22 -69
-24 -72 -3 -2 -15 17 -28 42 l-22 47 28 23 c31 24 29 46 -5 46 -16 0 -19 7
-19 39 0 22 -3 46 -6 55 -15 38 16 11 54 -49z m2521 -26 c34 -50 61 -95 61
-100 0 -10 -10 -8 -115 18 -72 18 -85 27 -85 62 0 25 55 111 71 111 4 0 35
-41 68 -91z m-2809 62 c0 -10 -7 -24 -15 -31 -16 -13 -18 -8 -9 28 8 27 24 29
24 3z m72 -63 c-16 -16 -26 50 -10 69 11 14 13 12 16 -22 2 -21 -1 -42 -6 -47z
m2547 26 c1 -12 -6 -28 -16 -35 -15 -13 -16 -11 -10 26 4 22 7 47 8 55 1 22
17 -20 18 -46z m-2479 39 c0 -5 -5 -15 -10 -23 -8 -12 -10 -11 -10 8 0 12 5
22 10 22 6 0 10 -3 10 -7z m60 -14 c0 -11 -4 -17 -10 -14 -5 3 -10 13 -10 21
0 8 5 14 10 14 6 0 10 -9 10 -21z m2005 -130 c-27 -149 -78 -346 -93 -361 -9
-9 -143 128 -253 261 -50 60 -52 64 -34 77 24 18 34 18 41 0 8 -21 291 106
323 145 14 17 28 26 33 21 5 -5 -3 -68 -17 -143z m-905 81 c0 -5 -4 -10 -10
-10 -5 0 -10 5 -10 10 0 6 5 10 10 10 6 0 10 -4 10 -10z m1146 -27 c63 -24
101 -44 111 -60 14 -22 17 -22 33 -8 16 14 19 14 38 -2 19 -16 23 -32 28 -128
11 -178 -27 -333 -93 -385 -33 -26 -41 -25 -55 4 -25 55 -110 56 -124 1 -3
-14 -9 -25 -12 -25 -23 0 -222 133 -222 149 0 3 9 35 20 71 11 36 33 124 50
197 30 130 31 133 78 177 26 25 48 46 50 46 1 0 45 -16 98 -37z m-2434 -29
c-27 -18 -18 -44 14 -44 14 0 27 -6 30 -14 6 -15 -42 -106 -55 -106 -4 0 -15
32 -24 70 l-17 71 27 40 c26 39 28 40 37 20 7 -17 5 -25 -12 -37z m1516 -20
c9 -29 8 -35 -3 -30 -8 3 -46 -19 -85 -49 -39 -30 -75 -55 -80 -55 -6 0 -10
22 -10 49 0 27 -3 57 -7 66 -5 14 -2 16 15 11 14 -5 33 1 59 18 21 14 52 25
69 25 27 1 32 -4 42 -35z m-1335 -31 c2 -5 -9 -33 -24 -63 l-27 -55 -19 45
c-27 61 -21 80 28 80 21 0 40 -3 42 -7z m1646 -113 c40 -50 115 -133 167 -185
l93 -95 -33 -80 c-77 -183 -172 -307 -251 -329 -81 -22 -181 16 -261 101 -94
99 -138 218 -188 514 -4 28 0 34 76 89 l82 59 100 -2 c56 -2 108 2 116 8 8 5
17 10 21 10 3 0 38 -41 78 -90z m-1479 45 c0 -13 7 -56 15 -96 9 -40 14 -74
11 -76 -2 -2 -18 22 -36 53 -30 54 -31 58 -20 105 12 49 30 58 30 14z m-403
-58 c11 -50 10 -54 -24 -115 -19 -35 -37 -61 -40 -59 -2 3 6 57 18 121 12 64
25 114 28 110 3 -3 11 -29 18 -57z m313 -16 c0 -28 -12 -61 -21 -61 -5 0 -9
26 -9 58 1 52 2 55 15 38 8 -11 15 -27 15 -35z m-65 -41 c1 -76 -7 -88 -24
-39 -13 39 -14 51 -1 83 16 44 25 29 25 -44z m-160 -15 c-8 -58 -23 -63 -26
-10 -3 30 18 82 28 72 2 -3 1 -31 -2 -62z m68 45 c6 -23 -13 -80 -26 -80 -5 0
-7 10 -3 23 3 12 6 34 6 50 0 31 15 36 23 7z m248 -131 l52 -92 -32 -65 -33
-66 -29 34 c-16 19 -29 38 -29 41 0 3 16 13 36 22 45 22 36 37 -23 37 l-46 0
6 33 c6 39 37 147 42 147 2 0 27 -41 56 -91z m-193 -7 c12 -32 22 -63 22 -70
0 -8 -19 -12 -55 -12 -30 0 -55 3 -55 8 0 11 54 131 60 132 3 0 15 -26 28 -58z
m-165 -19 c10 -37 14 -70 10 -74 -5 -4 -24 -11 -43 -16 -39 -10 -55 -43 -21
-43 12 0 21 -3 21 -7 0 -13 -37 -65 -45 -64 -4 0 -17 21 -29 48 l-22 47 50 88
c28 48 53 87 56 88 3 0 13 -30 23 -67z m160 -100 c-13 -2 -35 -2 -50 0 -16 2
-5 4 22 4 28 0 40 -2 28 -4z m-3 -41 c0 -5 -7 -17 -15 -28 -13 -16 -16 -17
-25 -4 -17 25 -11 40 15 40 14 0 25 -4 25 -8z m296 -123 c11 -60 18 -109 15
-109 -3 1 -27 31 -52 69 l-46 68 24 48 c14 26 27 44 31 40 4 -3 16 -55 28
-116z m-244 -1 c2 -43 0 -78 -4 -78 -4 0 -17 24 -30 52 l-24 52 25 46 c29 50
28 52 33 -72z m81 71 c15 -21 27 -44 27 -49 0 -16 -54 -120 -62 -120 -4 0 -8
47 -8 105 0 58 3 105 8 105 4 -1 19 -19 35 -41z m-279 -56 c-8 -120 -11 -126
-39 -73 -13 25 -24 50 -25 57 0 15 53 102 63 103 4 0 4 -39 1 -87z m75 50 l19
-37 -26 -53 c-25 -50 -49 -73 -38 -35 2 9 8 50 11 90 4 39 9 72 11 72 2 0 12
-17 23 -37z m-209 -20 c15 -37 15 -38 -18 -88 -41 -60 -54 -68 -42 -23 5 18
14 59 20 91 6 31 14 57 18 57 4 0 14 -17 22 -37z m504 -103 l26 -40 -50 0 -50
0 20 40 c11 22 22 40 24 40 2 0 15 -18 30 -40z m-241 13 c2 -10 8 -26 12 -35
6 -15 1 -18 -30 -18 -20 0 -35 3 -33 8 34 68 42 76 51 45z m-208 -22 c14 -28
14 -30 -8 -33 -31 -4 -27 -30 6 -39 29 -8 57 -26 57 -38 0 -8 -97 -81 -108
-81 -4 0 -23 13 -42 29 l-34 28 53 82 c29 44 55 81 57 81 2 0 10 -13 19 -29z
m255 -76 c19 -23 8 -26 -51 -13 -76 16 -83 28 -17 28 38 0 60 -5 68 -15z m140
6 c0 -9 -41 -23 -48 -16 -2 2 -1 8 3 14 8 13 45 15 45 2z m129 -27 c12 -15 21
-30 21 -34 0 -4 -18 -21 -39 -38 l-40 -32 -55 33 c-31 17 -54 36 -53 41 3 9
112 54 134 55 6 1 21 -11 32 -25z m-333 -20 l65 -17 -33 -28 c-18 -15 -38 -28
-45 -29 -15 0 -74 71 -67 82 7 10 4 11 80 -8z m-141 -108 l-7 -45 -29 21 c-16
12 -29 24 -29 27 0 7 64 50 68 46 2 -2 0 -24 -3 -49z m330 27 c25 -16 45 -31
45 -35 0 -12 -74 -77 -87 -78 -9 0 -13 21 -13 70 0 39 2 70 5 70 2 0 25 -12
50 -27z m-495 -3 l25 -20 -35 -29 c-19 -16 -36 -28 -37 -27 -6 5 10 96 16 96
3 0 17 -9 31 -20z m239 -1 c11 -19 10 -24 -8 -42 -26 -26 -32 -20 -24 26 7 42
13 46 32 16z m161 -39 c0 -33 -3 -60 -7 -60 -5 0 -22 17 -39 37 l-31 37 26 23
c42 37 51 30 51 -37z m290 38 c0 -13 3 -34 7 -47 5 -20 4 -22 -13 -13 -10 6
-28 17 -39 25 -19 15 -19 16 -1 36 25 27 46 27 46 -1z m-593 -74 c18 -14 33
-29 33 -34 0 -5 -24 -10 -52 -12 -39 -2 -53 -7 -53 -18 0 -10 12 -16 38 -18
20 -2 37 -6 37 -10 -1 -11 -79 -97 -83 -92 -23 28 -67 124 -61 130 14 14 99
79 103 79 2 1 19 -10 38 -25z m215 -1 c29 -26 22 -33 -32 -33 -27 0 -50 3 -50
6 0 8 43 43 54 44 5 0 18 -7 28 -17z m338 -14 c31 -19 47 -35 43 -42 -7 -13
-91 -126 -104 -141 -7 -8 -129 91 -129 105 0 4 20 10 44 13 24 4 52 13 62 21
18 14 18 15 -3 21 -27 8 -28 12 -6 36 22 25 35 23 93 -13z m-281 -55 c13 -12
-15 -15 -71 -9 -46 6 -58 10 -43 16 18 7 104 2 114 -7z m-2 -48 c3 -3 -9 -24
-27 -46 l-33 -41 -28 43 c-16 24 -29 47 -29 52 0 9 108 2 117 -8z m381 -109
c12 -67 22 -126 22 -130 0 -4 -33 20 -72 55 -40 34 -72 67 -72 74 2 14 84 124
93 124 3 0 16 -55 29 -123z m-774 38 l18 -34 -53 -65 c-30 -35 -55 -63 -56
-62 -2 1 7 55 19 120 24 129 25 129 72 41z m172 38 c-3 -21 -8 -77 -12 -125
-3 -49 -9 -88 -13 -88 -3 0 -22 31 -42 68 l-36 67 46 57 c25 31 50 57 54 57 5
1 6 -16 3 -36z m98 -32 l37 -60 -51 -71 c-29 -38 -55 -70 -59 -70 -4 0 -4 30
0 68 4 37 10 97 14 135 4 37 10 65 14 63 4 -3 24 -32 45 -65z m245 3 c22 -19
46 -41 56 -48 15 -11 12 -19 -37 -85 l-53 -72 -6 63 c-9 83 -10 178 -4 178 3
0 23 -16 44 -36z m-86 -86 c3 -49 2 -88 -2 -88 -3 0 -21 25 -38 56 l-33 55 32
40 c18 22 33 37 34 32 1 -4 4 -47 7 -95z"/>
<path d="M5379 7626 c-46 -58 -84 -111 -84 -117 0 -32 27 -12 85 61 34 44 66
80 69 80 6 0 3 -56 -11 -219 -2 -23 3 -37 14 -45 9 -5 19 -8 20 -6 2 3 41 51
87 107 74 92 89 123 61 123 -6 0 -37 -35 -71 -77 -67 -84 -83 -98 -74 -61 11
48 10 251 -1 255 -7 2 -49 -43 -95 -101z"/>
<path d="M2536 7640 c-100 -83 -99 -66 -11 -172 43 -51 84 -99 91 -107 11 -12
24 -5 86 44 98 78 94 73 81 86 -9 9 -28 -1 -76 -40 -36 -28 -68 -51 -71 -51
-11 0 -55 54 -56 66 0 6 25 31 55 54 30 23 55 46 55 51 0 24 -27 16 -75 -25
-29 -25 -56 -46 -60 -46 -7 0 -54 52 -55 62 0 4 27 28 60 54 56 44 76 75 48
73 -7 0 -40 -22 -72 -49z"/>
<path d="M5630 7448 c-109 -119 -112 -124 -97 -137 11 -8 34 12 106 91 85 94
99 117 75 125 -5 2 -43 -34 -84 -79z"/>
<path d="M2325 7450 c-84 -43 -107 -131 -52 -203 67 -89 175 -90 241 -4 14 19
28 47 32 63 4 24 -1 35 -33 66 l-39 38 -44 -45 c-38 -39 -41 -45 -25 -51 13
-5 25 1 42 20 23 27 25 28 43 11 30 -27 24 -53 -19 -96 -45 -45 -76 -50 -126
-19 -59 36 -83 95 -59 141 20 40 57 61 96 57 25 -2 34 1 36 15 2 10 -3 17 -11
17 -9 0 -21 2 -29 5 -7 3 -31 -4 -53 -15z"/>
<path d="M5728 7387 c-54 -33 -80 -72 -86 -128 -4 -46 -3 -51 37 -90 39 -40
43 -41 91 -37 58 6 68 12 51 32 -10 12 -18 13 -36 4 -52 -23 -125 41 -111 97
8 32 52 83 88 101 36 19 78 11 105 -19 27 -29 32 -47 22 -74 -11 -31 15 -52
30 -24 35 65 -39 161 -124 161 -16 0 -47 -10 -67 -23z"/>
<path d="M2121 7256 c-9 -10 5 -27 66 -76 43 -35 80 -65 82 -67 17 -12 -24
-12 -130 0 -118 14 -156 10 -147 -14 6 -14 213 -179 222 -176 25 8 10 29 -64
88 -44 35 -80 68 -80 72 0 5 12 6 28 3 61 -12 224 -27 238 -22 34 13 24 23
-176 183 -23 19 -30 20 -39 9z"/>
<path d="M5925 7114 c-163 -47 -151 -42 -134 -60 13 -13 20 -13 56 0 l41 14
29 -36 c46 -59 47 -60 19 -102 -22 -33 -23 -40 -10 -51 8 -6 16 -10 18 -8 2 2
37 60 79 129 56 92 73 128 65 137 -15 18 -27 16 -163 -23z m95 -54 c-18 -27
-36 -50 -40 -50 -5 0 -20 15 -34 33 l-25 32 62 21 c34 12 64 20 66 18 2 -2
-11 -26 -29 -54z"/>
<path d="M1926 7015 c-4 -11 28 -40 107 -99 95 -71 114 -82 126 -70 8 7 13 15
10 17 -2 2 -54 40 -115 85 -61 45 -114 82 -117 82 -2 0 -7 -7 -11 -15z"/>
<path d="M6179 6817 c-37 -73 -48 -87 -90 -111 -45 -25 -58 -43 -43 -59 3 -3
28 8 56 25 49 31 50 31 150 24 80 -6 99 -4 96 6 -5 14 -61 27 -125 27 -24 1
-43 4 -43 8 0 3 16 34 35 69 32 57 38 94 14 94 -5 0 -28 -37 -50 -83z"/>
<path d="M1742 6735 l-51 -85 42 -24 c23 -13 78 -44 122 -69 44 -26 84 -42 88
-38 19 19 104 170 99 176 -15 14 -30 -1 -67 -65 -22 -38 -43 -70 -47 -70 -11
0 -78 41 -78 48 0 4 16 33 35 65 38 64 42 77 21 77 -8 0 -31 -29 -52 -64 -37
-64 -38 -65 -63 -51 -56 30 -55 28 -12 99 44 71 49 86 27 86 -7 0 -36 -38 -64
-85z"/>
<path d="M1641 6514 c-21 -15 -81 -125 -81 -150 0 -8 110 -57 251 -112 14 -6
59 108 59 148 0 23 -8 48 -21 64 -46 59 -157 85 -208 50z m117 -29 c49 -21 82
-53 82 -82 0 -32 -30 -103 -44 -103 -15 0 -178 69 -189 79 -12 12 28 86 55
105 28 20 49 20 96 1z"/>
<path d="M6295 6467 c-66 -28 -122 -52 -124 -54 -6 -4 70 -183 81 -189 26 -16
23 15 -8 83 -19 42 -32 78 -29 81 3 3 23 13 45 23 l40 18 32 -69 c17 -39 37
-70 44 -70 20 0 18 10 -16 84 l-29 66 36 15 c19 8 39 15 43 15 4 0 22 -34 41
-75 24 -53 38 -73 47 -67 9 6 3 30 -26 97 -22 49 -43 90 -48 91 -5 1 -63 -21
-129 -49z"/>
<path d="M6390 6208 c-69 -22 -126 -41 -127 -42 -3 -3 52 -155 59 -161 4 -4
11 -4 17 -1 6 4 2 29 -11 67 -11 34 -17 64 -12 69 5 5 59 25 121 45 86 27 111
39 106 50 -7 20 -8 19 -153 -27z"/>
<path d="M1485 6106 c-13 -13 -31 -48 -39 -77 -27 -99 -36 -88 109 -125 72
-19 133 -34 137 -34 11 0 38 99 38 140 0 73 -64 120 -165 120 -46 0 -60 -4
-80 -24z m152 -25 c58 -27 69 -51 54 -118 -7 -29 -13 -53 -14 -53 -14 0 -203
52 -208 58 -4 4 0 29 9 57 26 75 76 93 159 56z"/>
<path d="M6470 5985 c-74 -18 -135 -36 -135 -41 1 -11 22 -105 36 -156 6 -22
16 -38 24 -38 19 0 19 -1 -5 90 -10 41 -16 78 -12 82 4 4 26 10 49 14 l42 6
10 -39 c6 -21 14 -54 17 -71 4 -18 11 -35 15 -38 18 -11 21 29 6 89 -9 34 -13
65 -9 69 4 3 23 9 43 13 l36 7 18 -74 c19 -78 29 -98 44 -82 7 7 -30 191 -41
198 -2 1 -64 -12 -138 -29z"/>
<path d="M1585 5814 c-33 -8 -93 -22 -133 -30 -105 -23 -99 -38 56 -131 68
-40 128 -73 133 -73 23 0 5 32 -32 55 -39 25 -40 27 -34 68 11 73 13 76 60 82
31 5 45 12 48 26 6 23 -10 23 -98 3z m-32 -81 c-3 -21 -9 -42 -13 -46 -4 -5
-34 6 -66 25 l-59 33 60 11 c89 17 84 19 78 -23z"/>
<path d="M6482 5713 c-51 -25 -72 -58 -72 -115 0 -43 4 -54 34 -84 21 -21 44
-34 60 -34 33 0 34 26 1 34 -60 15 -84 89 -45 138 23 29 98 52 141 43 61 -14
92 -102 49 -140 -11 -10 -20 -24 -20 -31 0 -25 18 -24 44 3 48 48 29 155 -34
188 -38 20 -116 19 -158 -2z"/>
<path d="M1355 5608 c-5 -25 -25 -173 -25 -189 0 -5 6 -9 14 -9 10 0 17 16 22
45 3 25 11 45 18 45 6 0 58 -7 116 -15 132 -18 130 -18 130 0 0 8 -1 15 -2 16
-2 0 -57 8 -123 18 l-120 17 2 47 c2 36 -1 47 -12 47 -8 0 -17 -10 -20 -22z"/>
<path d="M6702 5425 c3 -25 2 -48 -3 -50 -4 -3 -60 -12 -125 -20 -64 -8 -119
-17 -122 -20 -3 -3 -1 -10 6 -17 8 -8 39 -8 121 2 60 7 117 10 125 7 11 -4 16
-19 16 -47 0 -29 4 -40 15 -40 18 0 18 13 3 136 -8 71 -15 94 -26 94 -11 0
-13 -10 -10 -45z"/>
<path d="M1575 5315 c-3 -36 -10 -67 -13 -69 -4 -2 -36 0 -72 4 -186 22 -180
22 -180 1 0 -17 14 -20 138 -32 75 -7 139 -12 142 -11 7 2 27 161 22 167 -18
18 -30 -2 -37 -60z"/>
<path d="M6600 5183 c-68 -7 -126 -16 -128 -18 -3 -2 -2 -10 1 -18 4 -11 17
-12 63 -6 32 4 61 6 66 3 4 -3 8 -23 8 -44 0 -36 -5 -44 -59 -86 -42 -34 -57
-52 -53 -66 2 -10 7 -18 11 -18 4 0 30 22 59 48 l51 48 21 -28 c24 -32 71 -38
108 -12 24 17 28 58 16 162 -5 39 -11 52 -23 51 -9 -1 -72 -8 -141 -16z m138
-95 c3 -59 0 -68 -18 -78 -43 -23 -80 23 -80 100 0 41 13 49 70 46 24 -1 25
-4 28 -68z"/>
<path d="M1303 5153 c-8 -20 -3 -22 63 -28 124 -12 146 -17 165 -36 24 -24 24
-70 1 -100 -21 -25 -44 -28 -169 -16 -78 7 -83 6 -83 -12 0 -17 11 -19 115
-26 99 -6 119 -5 141 10 49 32 61 125 21 170 -21 25 -33 28 -136 39 -94 10
-114 10 -118 -1z"/>
<path d="M6633 4892 c-95 -11 -133 -19 -133 -28 0 -21 10 -22 135 -8 66 7 128
13 138 13 10 1 17 9 17 21 0 11 -6 19 -12 19 -7 -1 -73 -8 -145 -17z"/>
<path d="M1325 4868 c-60 -33 -75 -124 -31 -183 51 -66 172 -71 233 -10 28 28
33 40 33 83 0 52 -22 91 -61 112 -35 19 -35 -16 0 -49 44 -41 43 -89 -1 -126
-29 -24 -38 -27 -90 -23 -74 5 -108 33 -108 90 0 37 26 78 50 78 6 0 10 9 10
20 0 23 -6 24 -35 8z"/>
<path d="M6594 4786 c-17 -8 -41 -27 -53 -42 -19 -24 -22 -38 -19 -83 4 -46
10 -59 37 -83 33 -29 61 -34 68 -11 3 7 -7 17 -20 22 -61 23 -75 95 -28 142
26 25 37 29 86 29 69 0 93 -12 111 -55 16 -40 7 -75 -26 -98 -17 -12 -20 -19
-12 -33 9 -16 13 -15 41 13 38 39 44 98 15 154 -27 52 -130 75 -200 45z"/>
<path d="M1392 4548 c-185 -66 -186 -69 -3 -149 74 -33 136 -59 138 -59 2 0 3
9 3 19 0 13 -13 24 -40 35 -40 16 -40 16 -40 70 0 59 6 67 63 85 26 9 37 18
37 32 0 10 -3 19 -7 18 -5 0 -72 -24 -151 -51z m29 -74 c-1 -21 -5 -41 -7 -43
-5 -5 -114 40 -114 48 0 7 100 39 115 36 5 -1 8 -19 6 -41z"/>
<path d="M6520 4472 c0 -13 13 -21 45 -30 43 -11 45 -13 45 -49 0 -21 3 -48 6
-60 5 -18 -1 -24 -40 -42 -33 -14 -46 -26 -46 -40 0 -19 3 -19 63 8 217 100
218 100 215 122 -2 17 -27 28 -138 65 -74 24 -138 44 -142 44 -5 0 -8 -8 -8
-18z m203 -75 c26 -7 47 -14 47 -18 0 -7 -101 -49 -118 -49 -8 0 -12 16 -12
46 0 40 2 45 18 39 9 -4 38 -12 65 -18z"/>
<path d="M1266 4358 c-3 -7 -7 -50 -9 -95 l-5 -81 82 -6 c200 -14 206 -14 206
5 0 15 -11 19 -62 21 l-63 3 2 68 c2 60 0 68 -15 65 -13 -3 -18 -16 -20 -66
l-3 -62 -45 0 -45 0 2 77 c1 51 -2 78 -9 81 -7 2 -14 -2 -16 -10z"/>
<path d="M3172 1283 c-46 -90 -92 -223 -92 -263 0 -35 6 -48 34 -74 33 -32 92
-56 138 -56 14 0 40 10 59 23 28 19 45 47 92 156 32 74 57 135 55 136 -2 1
-12 5 -23 9 -19 5 -26 -7 -69 -108 -55 -132 -69 -154 -102 -166 -43 -17 -117
20 -135 69 -9 22 11 81 85 253 15 36 15 38 -4 48 -17 9 -22 5 -38 -27z"/>
<path d="M4752 1231 c-11 -6 -3 -44 39 -182 29 -96 54 -176 55 -178 6 -8 224
63 224 73 -1 32 -17 33 -98 6 -57 -18 -85 -23 -91 -16 -4 6 -28 77 -52 158
-24 81 -48 148 -54 148 -5 0 -16 -4 -23 -9z"/>
<path d="M4454 1083 c3 -43 9 -109 12 -148 l5 -70 -35 40 c-19 22 -68 83 -108
137 -61 81 -78 97 -100 98 -33 0 -31 20 -15 -210 11 -154 13 -165 32 -165 18
0 20 6 18 80 -1 44 -5 108 -8 143 -3 34 -2 62 2 61 4 0 54 -61 111 -135 86
-112 107 -134 129 -134 l26 0 -6 78 c-4 42 -10 128 -13 190 -7 111 -7 112 -32
112 -24 0 -24 0 -18 -77z"/>
<path d="M3841 1116 c-7 -9 -164 -315 -179 -348 -2 -5 8 -8 22 -8 22 0 31 9
53 55 l27 55 71 -6 c38 -4 75 -12 82 -18 6 -6 18 -33 26 -61 12 -43 18 -50 42
-53 20 -3 26 0 23 10 -3 7 -29 95 -58 195 -48 163 -55 182 -76 186 -13 2 -28
-1 -33 -7z m35 -73 c3 -16 13 -54 21 -87 8 -32 13 -59 11 -60 -10 -6 -118 8
-118 15 0 5 14 36 30 69 17 33 30 66 30 75 0 26 19 17 26 -12z"/>
<path d="M5171 1031 c-15 -10 -6 -51 12 -51 25 0 39 18 32 39 -7 22 -21 26
-44 12z"/>
<path d="M4676 871 c-11 -18 6 -41 31 -41 20 0 24 4 21 23 -3 23 -41 37 -52
18z"/>
<path d="M3497 810 c-4 -16 0 -23 16 -30 25 -9 34 -3 39 25 5 30 -47 34 -55 5z"/>
<path d="M4083 755 c0 -21 4 -25 28 -25 24 0 29 4 29 25 0 21 -5 25 -29 25
-24 0 -28 -4 -28 -25z"/>
</g>
</svg>
