<?xml version="1.0" encoding="utf-8"?>
<!DOCTYPE svg PUBLIC "-//W3C//DTD SVG 1.1//EN" "http://www.w3.org/Graphics/SVG/1.1/DTD/svg11.dtd">
<svg version="1.1" id="Layer_1" xmlns="http://www.w3.org/2000/svg" xmlns:xlink="http://www.w3.org/1999/xlink" x="0px" y="0px"
	 width="700px" height="400px" viewBox="0 0 700 400" enable-background="new 0 0 400 400" xml:space="preserve">


  <g transform="scale(1) translate(0, 0)">
    <ellipse cx="60.3" cy="198" rx="59.8" ry="14" stroke="#000" fill="#C6E2E3" opacity="0.5"></ellipse>
		<ellipse cx="61" cy="230" rx="56" ry="12" stroke="#000" fill="#32abd0" opacity="0.5"></ellipse>

    <!-- mercury -->
		<path d="M160 170
				L160 310
				A10 20 0 0 0 170 330
				A50 50 0 0 0 280 330
				A20 20 0 0 0 290 310
				L290 70
				A10 5 0 1 0 250 70
        L250 310
				A20 20 0 0 0 260 330
				A30 30 0 0 1 192 330
				A10 20 0 0 0 200 310
				L200 170
				A20 10 0 0 0 160 170
				Z" fill="#CDCDCD" stroke="none" opacity="1"/>
		 <!-- mercury tube -->
		<path d="M50 250
				A40 40 0 1 0 70 250
				L70 100
				A10 10 0 0 1 80 90
				L160 90
				A10 10 0 0 1 170 100
				L170 120
				A20 20 0 0 0 160 140
				L160 310
				A10 20 0 0 0 170 330
				A50 50 0 0 0 280 330
				A20 20 0 0 0 290 310
				L290 20
				A25 10 0 1 0 250 20
        L250 310
				A20 20 0 0 0 260 330
				A30 30 0 0 1 192 330
				A10 20 0 0 0 200 310
				L200 130
				A20 20 0 0 0 190 120
				L190 90
				A20 20 0 0 0 170 70
				L70 70
				A20 20 0 0 0 50 90
				Z" fill="#C6E2E3" stroke="#000" opacity="0.4"/>

				<ellipse cx="60" cy="250" rx="10" ry="5" stroke="#000" fill="#C6E2E3" opacity="0.2"></ellipse>
				<ellipse cx="180" cy="120" rx="10" ry="5" stroke="#000" fill="#C6E2E3" opacity="0.2"></ellipse>
				<ellipse cx="180" cy="170" rx="20" ry="10" stroke="#000" fill="#C6E2E3" opacity="0.2"></ellipse>
				<ellipse cx="270" cy="70" rx="20" ry="10" stroke="#000" fill="#C6E2E3" opacity="0.2"></ellipse>
				<ellipse cx="270" cy="14" rx="23" ry="8" stroke="#000" fill="#C6E2E3" opacity="0.5"></ellipse>
				<ellipse cx="270" cy="14" rx="25" ry="10" stroke="#000" fill="#C6E2E3" opacity="0.3"></ellipse>


		<!-- cold liquid -->
		<path d="M5 230
				L4 350
				A56 15 0 0 0 117 350
				L117 230
				A56 12 0 0 1 4 230
				Z" fill="#32abd0" stroke="#000" opacity="0.4"/>
				<ellipse cx="60.5" cy="350" rx="56" ry="15" stroke="#000" fill="#32abd0" opacity="0.5"></ellipse>
		<!-- recipient -->
		<path d="M1 200
				L1 350
				A60 21 0 0 0 120 350
				L120 200
				A60 14 0 0 1 1 200
				Z" fill="#C6E2E3" stroke="#000" opacity="0.4"/>
				<ellipse cx="60" cy="350" rx="59" ry="18" stroke="#000" fill="#C6E2E3" opacity="0.2"></ellipse>

					<text x="60" y="300" font-size="20">p</text>

        <!-- auxiliar line -273.15 tick -->
        <line x1="360" y1="240" x2="360" y2="250" stroke="black" stroke-width="1.5"></line>
				
				<!-- graph -->
        <!-- kelvin axis -->
				<line x1="350" y1="300" x2="690" y2="300" stroke="black" stroke-width="1.5"></line>
				<line x1="360" y1="295" x2="690" y2="295" stroke="black" stroke-width="10" stroke-dasharray="1 60"></line>

        <!-- Celsius axis -->
				<line x1="350" y1="250" x2="690" y2="250" stroke="black" stroke-width="1.5"></line>
				<line x1="410" y1="245" x2="690" y2="245" stroke="black" stroke-width="10" stroke-dasharray="1 60"></line>
        <line x1="533" y1="50" x2="533" y2="250" stroke="black" stroke-width="1.5"></line>

        <!-- measurements -->
				<line x1="360" y1="250" x2="690" y2="200" stroke="red" stroke-width="2" stroke-dasharray="10 10"></line>
				<line x1="360" y1="250" x2="690" y2="150" stroke="red" stroke-width="2" stroke-dasharray="10 10"></line>
				<line x1="360" y1="250" x2="690" y2="100" stroke="red" stroke-width="2" stroke-dasharray="10 10"></line>
				<line x1="435" y1="238.5" x2="690" y2="200" stroke="orange" stroke-width="2.5"></line>
				<line x1="430" y1="229" x2="690" y2="150" stroke="coral" stroke-width="2.5"></line>
				<line x1="430" y1="218" x2="690" y2="100" stroke="gold" stroke-width="2.5"></line>

				<!-- reference points celsius -->
				<circle cx="533" cy="172" r="5"/>
				<circle cx="533" cy="198" r="5"/>
				<circle cx="533" cy="224" r="5"/>
				<circle cx="594" cy="215" r="5"/>
				<circle cx="594" cy="180" r="5"/>
				<circle cx="594" cy="144" r="5"/>
        
				<!-- scale K -->
				<text x="355" y="320" font-size="20" fill="red">0</text>
				<text x="405" y="320" font-size="20">100</text>
				<text x="465" y="320" font-size="20">200</text>
				<text x="527" y="320" font-size="20">300</text>
				<text x="590" y="320" font-size="20">400</text>
				<text x="650" y="320" font-size="20">500</text>
				<text x="685" y="340" font-size="20">K</text>

        <!-- scale C -->
				<text x="320" y="270" font-size="20" fill="red">-273.15</text>
				<text x="390" y="270" font-size="20">-200</text>
				<text x="465" y="270" font-size="20">-100</text>
				<text x="527" y="270" font-size="20">0</text>
				<text x="590" y="270" font-size="20">100</text>
				<text x="650" y="270" font-size="20">200</text>
				<text x="675" y="290" font-size="20">&#x00B0;C</text>

				<text x="520" y="45" font-size="30">p</text>


				<text x="400" y="391" fill="green" font-size="40" font-family="Times new roman" font-style="italic">T<tspan baseline-shift="sub" font-size="15">K</tspan> = T<tspan baseline-shift="sub" font-size="15">C</tspan> + 273.15</text>



	</g>
</svg>
