<?xml version="1.0" encoding="UTF-8" standalone="no"?>
<svg xmlns="http://www.w3.org/2000/svg" viewBox="0 0 1000 600" height="600" width="1000" >
    <rect x="0" y="0" width="1000" height="600" fill="green" fill-opacity="0.1" stroke="#000000"  stroke-width="0.1"/>
     
    <rect x="0" y="0" width="1000" height="600" stroke="red" fill="lightblue" stroke-width="1" opacity="0.1"/>
    <rect x="0" y="0" width="900" height="600" stroke="red" fill="lightblue" stroke-width="0.2" opacity="0.1"/>
    <rect x="0" y="0" width="800" height="600" stroke="red" fill="lightblue" stroke-width="0.2" opacity="0.1"/>
    <rect x="0" y="0" width="700" height="600" stroke="red" fill="lightblue" stroke-width="0.2" opacity="0.1"/>
    <rect x="0" y="0" width="600" height="600" stroke="red" fill="lightblue" stroke-width="0.2" opacity="0.1"/>
    <rect x="0" y="0" width="500" height="600" stroke="red" fill="lightblue" stroke-width="0.2" opacity="0.1"/>
    <rect x="0" y="0" width="400" height="600" stroke="red" fill="lightblue" stroke-width="0.2" opacity="0.1"/>
    <rect x="0" y="0" width="300" height="600" stroke="red" fill="lightblue" stroke-width="0.2" opacity="0.1"/>
    <rect x="0" y="0" width="200" height="600" stroke="red" fill="lightblue" stroke-width="0.2" opacity="0.1"/>
    <rect x="0" y="0" width="100" height="600" stroke="red" fill="lightblue" stroke-width="0.2" opacity="0.1"/>
    
    <g>
      <circle cx="300" cy="275" r="50" fill="orange"/>
      <line x1="265" y1="275" x2="335" y2="275" style="stroke:rgb(0,0,0);stroke-width:7" />
      <line x1="300" y1="240" x2="300" y2="310" style="stroke:rgb(0,0,0);stroke-width:7" />
    </g>

    <g>
      <circle cx="700" cy="275" r="50" fill="lightblue"/>
      <line x1="665" y1="275" x2="735" y2="275" style="stroke:rgb(0,0,0);stroke-width:7" />
      <!-- <line x1="300" y1="240" x2="300" y2="310" style="stroke:rgb(0,0,0);stroke-width:5" /> -->
    </g>
<!-- 
 <text x="22" y="0" fill="#FFD700" font-size="120" font-family="arial" transform="translate(100 0) rotate(-5,22,0)">
    <animateTransform 
        attributeName="transform"
        type="scale"
        additive="sum"
        from="1 1"
        to="-1 1"
        dur="2s"
        repeatCount="indefinite"
    />
    <animateTransform 
        attributeName="transform"
        type="translate"
        additive="sum"
        from="-60 90"
        to="-70 90"
        dur="2s"
        repeatCount="indefinite"
    />U</text> -->
    <!-- <line x1="100" y1="0" x2="100" y2="100" stroke="black" stroke-widt="2"/>
    <line x1="90" y1="0" x2="90" y2="100" stroke="black" stroke-widt="2"/>
    <line x1="110" y1="0" x2="110" y2="100" stroke="black" stroke-widt="2"/>
    <line x1="80" y1="0" x2="80" y2="100" stroke="black" stroke-widt="2"/>
    <line x1="120" y1="0" x2="120" y2="100" stroke="black" stroke-widt="2"/>
    <line x1="30" y1="0" x2="30" y2="100" stroke="black" stroke-widt="2"/>
    <line x1="170" y1="0" x2="170" y2="100" stroke="black" stroke-widt="2"/> -->

</svg>
