<?xml version="1.0" standalone="no"?>
<!DOCTYPE svg PUBLIC "-//W3C//DTD SVG 20010904//EN"
 "http://www.w3.org/TR/2001/REC-SVG-20010904/DTD/svg10.dtd">
<svg version="1.0" xmlns="http://www.w3.org/2000/svg"
 width="200.000000pt" height="200.000000pt" viewBox="0 0 200.000000 200.000000"
 preserveAspectRatio="xMidYMid meet">
<g transform="translate(0.000000,200.000000) scale(0.100000,-0.100000)" fill="#000000" stroke="none">
<path d="M935 1984 c-66 -34 -104 -97 -105 -172 0 -115 78 -192 196 -192 70 0 131 32 166 87 35 57 33 154 -5 211 -15 23 -45 51 -67 62 -48 25 -142 27 -185 4z"/>
<path d="M795 1561 c-84 -38 -175 -180 -175 -273 0 -27 -4 -48 -9 -48 -5 0 -16 -28 -25 -62 -9 -35 -19 -74 -22 -87 l-7 -24 79 7 c116 9 138 17 144 51 3 16 11 30 18 31 7 1 8 0 2 -3 -13 -6 -13 -43 0 -43 15 0 80 61 75 71 -3 4 9 16 27 25 18 9 46 28 63 43 30 26 30 26 9 1 -11 -14 -29 -45 -39 -68 -20 -47 -85 -109 -122 -118 l-23 -6 0 -490 c0 -510 0 -515 44 -550 24 -20 96 -24 127 -8 47 26 49 43 49 460 0 340 2 390 15 390 13 0 15 -51 15 -401 l0 -401 29 -29 c25 -24 38 -29 78 -29 42 0 54 5 79 31 l29 30 5 632 c4 527 7 624 17 586 20 -74 34 -272 27 -374 -7 -91 -6 -94 19 -119 31 -31 66 -33 98 -7 24 19 24 21 24 218 -1 276 -32 412 -116 508 -57 65 -92 75 -268 75 -142 0 -153 -1 -148 -17 24 -72 47 -161 47 -178 0 -18 -5 -20 -36 -17 -24 3 -32 7 -23 13 11 6 11 17 0 61 -17 65 -48 138 -58 138 -4 0 -26 -9 -48 -19z"/>
<path d="M746 1040 c-16 -5 -68 -12 -114 -16 l-84 -7 5 -39 c11 -84 83 -148 185 -164 l42 -7 0 122 c0 66 -1 121 -2 120 -2 0 -16 -5 -32 -9z"/>
</g>
</svg>
