<?xml version="1.0" encoding="utf-8"?>
<!DOCTYPE svg PUBLIC "-//W3C//DTD SVG 1.1//EN" "http://www.w3.org/Graphics/SVG/1.1/DTD/svg11.dtd">
<svg version="1.1" id="Layer_1" xmlns="http://www.w3.org/2000/svg" xmlns:xlink="http://www.w3.org/1999/xlink" x="0px" y="0px"
	 width="700px" height="400px" viewBox="0 0 700 400" enable-background="new 0 0 64 64" xml:space="preserve">

  <!-- Axis -->
  <line fill="none" stroke="#000" stroke-width="5" x1="0" y1="200" x2="700" y2="200" stroke-linecap="round"/>
  <line fill="none" stroke="#000" stroke-width="5" x1="50" y1="0" x2="50" y2="400" stroke-linecap="round"/>

<!-- x scale -->
  <line fill="none" stroke="#000" stroke-width="1" x1="88" y1="10" x2="88" y2="390" stroke-linecap="round"/>
  <line fill="none" stroke="#000" stroke-width="1" x1="126" y1="10" x2="126" y2="390" stroke-linecap="round"/>
  <line fill="none" stroke="#000" stroke-width="1" x1="164" y1="10" x2="164" y2="390" stroke-linecap="round"/>
  <line fill="none" stroke="#000" stroke-width="1" x1="202" y1="10" x2="202" y2="390" stroke-linecap="round"/>
  <line fill="none" stroke="#000" stroke-width="3" x1="240" y1="10" x2="240" y2="390" stroke-linecap="round"/>
  <line fill="none" stroke="#000" stroke-width="1" x1="278" y1="10" x2="278" y2="390" stroke-linecap="round"/>
  <line fill="none" stroke="#000" stroke-width="1" x1="316" y1="10" x2="316" y2="390" stroke-linecap="round"/>
  <line fill="none" stroke="#000" stroke-width="1" x1="354" y1="10" x2="354" y2="390" stroke-linecap="round"/>
  <line fill="none" stroke="#000" stroke-width="1" x1="392" y1="10" x2="392" y2="390" stroke-linecap="round"/>
  <line fill="none" stroke="#000" stroke-width="3" x1="430" y1="10" x2="430" y2="390" stroke-linecap="round"/>
  <line fill="none" stroke="#000" stroke-width="1" x1="468" y1="10" x2="468" y2="390" stroke-linecap="round"/>
  <line fill="none" stroke="#000" stroke-width="1" x1="506" y1="10" x2="506" y2="390" stroke-linecap="round"/>
  <line fill="none" stroke="#000" stroke-width="1" x1="544" y1="10" x2="544" y2="390" stroke-linecap="round"/>
  <line fill="none" stroke="#000" stroke-width="1" x1="582" y1="10" x2="582" y2="390" stroke-linecap="round"/>
  <line fill="none" stroke="#000" stroke-width="3" x1="620" y1="10" x2="620" y2="390" stroke-linecap="round"/>
  <line fill="none" stroke="#000" stroke-width="1" x1="658" y1="10" x2="658" y2="390" stroke-linecap="round"/>

<!-- y scale -->
<line fill="none" stroke="#000" stroke-width="1" x1="50" y1="10" x2="660" y2="10" stroke-linecap="round"/>
<line fill="none" stroke="#000" stroke-width="1" x1="50" y1="48" x2="660" y2="48" stroke-linecap="round"/>
<line fill="none" stroke="#000" stroke-width="1" x1="50" y1="86" x2="660" y2="86" stroke-linecap="round"/>
<line fill="none" stroke="#000" stroke-width="1" x1="50" y1="124" x2="660" y2="124" stroke-linecap="round"/>
<line fill="none" stroke="#000" stroke-width="1" x1="50" y1="162" x2="660" y2="162" stroke-linecap="round"/>
<line fill="none" stroke="#000" stroke-width="1" x1="50" y1="238" x2="660" y2="238" stroke-linecap="round"/>
<line fill="none" stroke="#000" stroke-width="1" x1="50" y1="276" x2="660" y2="276" stroke-linecap="round"/>
<line fill="none" stroke="#000" stroke-width="1" x1="50" y1="314" x2="660" y2="314" stroke-linecap="round"/>
<line fill="none" stroke="#000" stroke-width="1" x1="50" y1="352" x2="660" y2="352" stroke-linecap="round"/>
<line fill="none" stroke="#000" stroke-width="1" x1="50" y1="390" x2="660" y2="390" stroke-linecap="round"/>

<!-- curve -->

<path d="M400 250
					   A25 10 0 0 1 600 250
						 L600 320
					   A25 10 0 0 0 400 320
					   Z" fill="#fff" stroke="#000" opacity="0.5"/>

</svg>
