<?xml version="1.0" encoding="UTF-8" standalone="no"?>
<svg xmlns:rdf="http://www.w3.org/1999/02/22-rdf-syntax-ns#" xmlns="http://www.w3.org/2000/svg" height="200" width="800" version="1.1" xmlns:cc="http://creativecommons.org/ns#" xmlns:dc="http://purl.org/dc/elements/1.1/" viewBox="0 0 800 200">
    <!-- <rect x="0" y="0" width="800" height="200" stroke="red" fill="none" stroke-width="0.2"/> -->
    <rect x="0" y="0" width="266" height="200" stroke="green" fill="none" stroke-width="0.1"/>
    <rect x="267" y="0" width="266" height="200" stroke="green" fill="none" stroke-width="0.1"/>
    <rect x="534" y="0" width="266" height="200" stroke="green" fill="none" stroke-width="0.1"/>
    <!-- <line x1="0" y1="0" x2="800" y2="200" style="stroke:rgb(255,0,0);stroke-width:0.2" />
    <line x1="0" y1="200" x2="800" y2="0" style="stroke:rgb(255,0,0);stroke-width:0.2" /> -->

    <path d="M230,198 265,198 265,170" stroke="green" stroke-width="1" fill="none" />
    <text x="243" y="190" stroke="green" fill="green" font-size="30px"><tspan>a</tspan></text>
    <path d="M498,198 532,198 532,170" stroke="green" stroke-width="1" fill="none" />
    <text x="510" y="190" stroke="green" fill="green" font-size="30px"><tspan>b</tspan></text>
    <path d="M763,198 798,198 798,170" stroke="green" stroke-width="1" fill="none" />
    <text x="775" y="190" stroke="green" fill="green" font-size="30px"><tspan>c</tspan></text>

    <!-- a) -->
    <g fill = "navy">
    <g transform="translate(180,0)">
      <path d="M60,55 10,55 M20,52 10,55 20 58" stroke="red" stroke-width="3" fill="none" />
      <text x="35" y="51"><tspan>v</tspan></text>
      <path d="M35,40 45,40 M41,37 46,40 41,42" stroke="black" stroke-width="1" fill="none" />
    </g>
  </g>

  <g fill = "navy">
    <g transform="translate(0,0)">
      <path d="M150,55 10,55 M20,52 10,55 20 58" stroke="red" stroke-width="3" fill="none" />
      <text x="75" y="51"><tspan>c</tspan></text>
      <path d="M75,40 85,40 M81,37 86,40 81,42" stroke="black" stroke-width="1" fill="none" />
    </g>
  </g>

    <g fill = "navy">
    <g transform="translate(20,50)">
      <path d="M200,55 10,55 M20,52 10,55 20 58" stroke="red" stroke-width="3" fill="none" />
      <text x="75" y="51"><tspan>c + v</tspan></text>
      <path d="M75,40 85,40 M81,37 86,40 81,42" stroke="black" stroke-width="1" fill="none" />
      <path d="M95,40 105,40 M101,37 106,40 101,42" stroke="black" stroke-width="1" fill="none" />
    </g>
  </g>

  <!-- b) -->
  <g fill = "navy">
    <g transform="translate(450,0)">
      <path d="M60,55 10,55 M20,52 10,55 20 58" stroke="red" stroke-width="3" fill="none" />
      <text x="35" y="51"><tspan>v</tspan></text>
      <path d="M35,40 45,40 M41,37 46,40 41,42" stroke="black" stroke-width="1" fill="none" />
    </g>
  </g>
  <g fill = "navy">
    <g transform="translate(280,0)">
      <path d="M150,55 10,55 M140,52 150,55 140 58" stroke="red" stroke-width="3" fill="none" />
      <text x="75" y="51"><tspan>c</tspan></text>
      <path d="M75,40 85,40 M81,37 86,40 81,42" stroke="black" stroke-width="1" fill="none" />
    </g>
  </g>
  <g fill = "navy">
    <g transform="translate(290,50)">
      <path d="M150,55 60,55 M140,52 150,55 140 58" stroke="red" stroke-width="3" fill="none" />
      <text x="75" y="51"><tspan>c - v</tspan></text>
      <path d="M75,40 85,40 M81,37 86,40 81,42" stroke="black" stroke-width="1" fill="none" />
      <path d="M95,40 105,40 M101,37 106,40 101,42" stroke="black" stroke-width="1" fill="none" />
    </g>
  </g>

  <!--  C)  -->
  <g fill = "navy">
    <g transform="translate(500,123)">
      <path d="M150,55 10,55 M20,52 10,55 20 58" transform="rotate(112, 150, 55)" transform-origin="0% 0%" stroke="red" stroke-width="3" fill="none" />
      <text x="180" y="0"><tspan>c</tspan></text>
      <path d="M180,-10 190,-10 M186,-13 192,-10 186,-7" stroke="black" stroke-width="1" fill="none" />
    </g>
  </g>
  <g fill = "navy">
    <g transform="translate(645,-12)">
      <path d="M60,55 10,55 M20,52 10,55 20 58" stroke="red" stroke-width="3" fill="none" />
      <text x="35" y="51"><tspan>v</tspan></text>
      <path d="M35,40 45,40 M41,37 46,40 41,42" stroke="black" stroke-width="1" fill="none" />
    </g>
  </g>

  <g fill = "navy" transform="translate(-50,8)">
    <path d="M700,170 700,40 M696,50 700,40 704 50" stroke="red" stroke-width="3" fill="none" />
    <path d="M640,120 645,120 647,125 650,95 697,95" stroke="black" stroke-width="1" fill="none" />
    <text x="650" y="120"><tspan>c<tspan baseline-shift="super">2</tspan> - v<tspan baseline-shift="super">2</tspan></tspan></text>
  </g>





</svg>
