<?xml version="1.0" encoding="UTF-8" standalone="no"?>
<svg xmlns="http://www.w3.org/2000/svg" height="200" width="800" viewBox="0 0 800 200">


  <!-- pavimento -->
    <path xmlns="http://www.w3.org/2000/svg" fill="#111111" d="M-100,100 -100,120 0,170 1705,170 1705,120 1705,100z"/>
    <!-- white lines -->
    <path xmlns="http://www.w3.org/2000/svg" fill="white" d="M0,133 0,137 195,137 195,133z"/>
    <path xmlns="http://www.w3.org/2000/svg" fill="white" transform="translate(300,0)" d="M0,133 0,137 195,137 194,133z"/>
    <path xmlns="http://www.w3.org/2000/svg" fill="white" transform="translate(600,0)" d="M0,133 0,137 195,137 194,133z"/>
    <!-- sidewalk -->
    <path xmlns="http://www.w3.org/2000/svg" fill="gray" d="M0,170 0,180 0,200 1705,200 1705,180 1705,170z"/>
    <line x1="0" y1="190" x2="705" y2="190" stroke="black" opacity="0.2"/>


  <g id="proyectil"> <!-- proyectil -->
    <path xmlns="http://www.w3.org/2000/svg" transform="scale(0.02) translate(0,-8)" fill="currentColor" d="M368.5 363.9l28.8-13.9c11.1 22.9 26 43.2 44.1 60.9 34-42.5 54.5-96.3 54.5-154.9 0-58.5-20.4-112.2-54.2-154.6-17.8 17.3-32.6 37.1-43.6 59.5l-28.7-14.1c12.8-26 30-49 50.8-69C375.6 34.7 315 8 248 8 181.1 8 120.5 34.6 75.9 77.7c20.7 19.9 37.9 42.9 50.7 68.8l-28.7 14.1c-11-22.3-25.7-42.1-43.5-59.4C20.4 143.7 0 197.4 0 256c0 58.6 20.4 112.3 54.4 154.7 18.2-17.7 33.2-38 44.3-61l28.8 13.9c-12.9 26.7-30.3 50.3-51.5 70.7 44.5 43.1 105.1 69.7 172 69.7 66.8 0 127.3-26.5 171.9-69.5-21.1-20.4-38.5-43.9-51.4-70.6zm-228.3-32l-30.5-9.8c14.9-46.4 12.7-93.8-.6-134l30.4-10c15 45.6 18 99.9.7 153.8zm216.3-153.4l30.4 10c-13.2 40.1-15.5 87.5-.6 134l-30.5 9.8c-17.3-54-14.3-108.3.7-153.8z"/>

    <animateMotion dur="5s" fill="freeze" keyPoints="0; 0.250; 0.3135; 0.384; 0.4466; 0.5025; 0.559; 0.6205; 0.693; 0.7795; 1"     keyTimes= "0; 0.265; 0.314; 0.376; 0.438; 0.500; 0.562; 0.624; 0.686; 0.748; 1" calcMode="linear" repeatCount="indefinite"     path="M0,100 140,100 160,87 170,75 180,64 190,53.8 200,44.4 210,36 220,28.4 230,21.8 240,16 250,11.1 260,7.1 270,4 280,1.8 290,0.8 300,0 310,0.8 320,1.8 330,4 340,7.1 350,11.1 360,16 370,21.8 380,28.4 390,36 400,44.4 410,53.8 420,64 430,75 440,87 450,100 600,100"
    >
    </animateMotion>
  </g>


  <g>
    <g>
      <path xmlns="http://www.w3.org/2000/svg" fill="green" transform="scale(0.08) translate(0,-0)" d="M621.3 237.3l-58.5-58.5c-12-12-28.3-18.7-45.3-18.7H480V64c0-17.7-14.3-32-32-32H32C14.3 32 0 46.3 0 64v336c0 44.2 35.8 80 80 80 26.3 0 49.4-12.9 64-32.4 14.6 19.6 37.7 32.4 64 32.4 44.2 0 80-35.8 80-80 0-5.5-.6-10.8-1.6-16h163.2c-1.1 5.2-1.6 10.5-1.6 16 0 44.2 35.8 80 80 80s80-35.8 80-80c0-5.5-.6-10.8-1.6-16H624c8.8 0 16-7.2 16-16v-85.5c0-17-6.7-33.2-18.7-45.2zM80 432c-17.6 0-32-14.4-32-32s14.4-32 32-32 32 14.4 32 32-14.4 32-32 32zm128 0c-17.6 0-32-14.4-32-32s14.4-32 32-32 32 14.4 32 32-14.4 32-32 32zm272-224h37.5c4.3 0 8.3 1.7 11.3 4.7l43.3 43.3H480v-48zm48 224c-17.6 0-32-14.4-32-32s14.4-32 32-32 32 14.4 32 32-14.4 32-32 32z"/>
      <path d="M17,135 20,130 23,135 M20,130 20,150 40,150 M35,147 40,150 35 153" stroke="red" stroke-width="2" fill="none" transform="translate(-15,-130)" />

      <g fill="navy">
        <text x="-15" y="-5"><tspan >S<tspan x="-7" y="-5" baseline-shift="sub">2</tspan></tspan></text>
      </g>
      <line x1="70" y1="30" x2="100" y2="30" stroke="green" stroke-width="2"/>
      <path d="M90,27 100,30 90,33" stroke="green" stroke-width="2" fill="none"/>
      <text x="90" y="20"><tspan style="font-style:italic; font-family: Times New Roman; font-size:2em;">v</tspan></text>
    </g>
    <animateMotion dur="5s" fill="freeze" repeatCount="indefinite" path="M0,80 600,80" />
  </g>

  <g transform="translate(200,0)"> <!-- marco 1 -->
    <path d="M17,125 20,120 23,125 M20,120 20,180 70,180 M65,177 70,180 65 183" stroke="red" stroke-width="2" fill="none" />
    <g fill = "white">
      <text x="0" y="130"><tspan>S<tspan x="10" y="127" baseline-shift="sub">1</tspan></tspan></text>
    </g>
  </g>


  <animate attributeName="viewBox" values="0 0 20 120; 600 0 20 118; 0 0 800 200; 0 0 800 200" begin="0s" dur="15s" fill="freeze" repeatCount="indefinite" />

  <!-- <line x1="0" y1="0" x2="800" y2="200" style="stroke:rgb(255,0,0);stroke-width:0.2" /> // X de referencia
  <line x1="0" y1="200" x2="800" y2="0" style="stroke:rgb(255,0,0);stroke-width:0.2" /> -->
</svg>
