<?xml version="1.0" encoding="UTF-8" standalone="no"?>
<svg xmlns:rdf="http://www.w3.org/1999/02/22-rdf-syntax-ns#" xmlns="http://www.w3.org/2000/svg" height="400" width="600" version="1.1" xmlns:cc="http://creativecommons.org/ns#" xmlns:dc="http://purl.org/dc/elements/1.1/" viewBox="0 0 600 400">
    <!-- <rect x="0" y="0" width="600" height="399" stroke="red" fill="none" stroke-width="0.2"/> -->
    <!-- <rect x="0" y="0" width="266" height="200" stroke="green" fill="none" stroke-width="0.1"/>
    <rect x="267" y="0" width="266" height="200" stroke="green" fill="none" stroke-width="0.1"/>
    <rect x="534" y="0" width="266" height="200" stroke="green" fill="none" stroke-width="0.1"/> -->
    <!-- <line x1="0" y1="0" x2="600" y2="400" style="stroke:rgb(255,0,0);stroke-width:0.2" />
    <line x1="0" y1="400" x2="600" y2="0" style="stroke:rgb(255,0,0);stroke-width:0.2" /> -->

    <!-- <filter id="blurMe">
      <feGaussianBlur in="SourceGraphic" stdDeviation="5" />
    </filter> -->

    <!-- MIrror 1 -->
    <g transform="translate(290,378)">
      <rect x="0" y="0" width="100" height="20" stroke="blue" fill="#A8CCD7" stroke-width="1"/>
      <rect x="0" y="0" width="100" height="4" stroke="blue" fill="#33DEFF" stroke-width="1"/>
      <text x="25" y="17">Mirror</text>
    </g>

    <!-- MIrror 2 -->
    <g transform="translate(480,200) rotate(-90,45, 45)">
      <rect x="0" y="0" width="100" height="20" stroke="blue" fill="#A8CCD7" stroke-width="1"/>
      <rect x="0" y="0" width="100" height="4" stroke="blue" fill="#33DEFF" stroke-width="1"/>
      <text x="25" y="17">Mirror</text>
    </g>

    <!-- Spliter -->
    <g transform="translate(320,200) rotate(45,0, 0)">
      <rect x="0" y="0" width="100" height="20" stroke="blue" fill="#DCF0EF" stroke-width="1"/>
      <!-- <rect x="0" y="0" width="100" height="4" stroke="blue" fill="#33DEFF" stroke-width="1"/> -->
      <rect x="0" y="18" width="100" height="4" stroke="blue" fill="#33DEFF" stroke-width="1"/>
      <text x="2" y="13" font-size="13px">Splitter</text>
    </g>

    <!-- <line x1="0" y1="250" x2="600" y2="250" style="stroke:rgb(255,0,0);stroke-width:1" />
    <line x1="0" y1="240" x2="600" y2="240" style="stroke:rgb(255,0,0);stroke-width:1" />
    <line x1="0" y1="230" x2="600" y2="230" style="stroke:rgb(255,0,0);stroke-width:1" />
    <line x1="340" y1="0" x2="340" y2="400" style="stroke:rgb(255,0,0);stroke-width:1" />
    <line x1="350" y1="0" x2="350" y2="400" style="stroke:rgb(255,0,0);stroke-width:1" />
    <line x1="360" y1="0" x2="360" y2="400" style="stroke:rgb(255,0,0);stroke-width:1" /> -->

    <!-- Telescope -->
    <!-- <rect x="340" y="20" width="20" height="100" stroke="blue" fill="#A8CCD7" stroke-width="1"/> -->
    <g>
      <path d="M345,20 345,60 340,65 340,120 360,120 360,65 355,60 355,20 A15 15 0 0 0 345,20 M345,27 A15 15 0 0 1 355,27 M345,60 A15 15 0 0 1 355,60 M340,65 A40 30 0 0 1 360,65 M340,115 A40 30 0 0 1 360,115" fill="#aaaaaa" stroke="#666" stroke-width="1"/>
      <ellipse cx="350" cy="120" rx="10" ry="2" stroke="#aaaaaa" fill="#eeeeee"/>
      <text x="365" y="80" font-size="13px">Telescope</text>
    </g>
    <path d="M150,250 340,250 360,240 480,240" fill="none" stroke="#39FF14" stroke-width="4" opacity="0.5"/>
    <path d="M340,377 340,250 350,230 350,120" fill="none" stroke="#39FF14" stroke-width="4" opacity="0.5"/>

    <!-- <path d="M150,250 340,250 360,240 579,240" fill="none" stroke="#39FF14" stroke-width="4"/> -->

    <g>
      <path id="flecha" d="M0,-5 10,0 0,5" fill="#39FF14" stroke="#39FF14" stroke-width="2" opacity="0.5"/>
      <animateMotion dur="5s" fill="freeze" repeatCount="indefinite" rotate="auto" begin="0s" path="M150,250 340,250 360,240 466,240 360,240 340,250 350,230 350,120" />
    </g>
    <g>
      <path id="flecha" d="M0,-5 10,0 0,5" fill="#39FF14" stroke="#39FF14" stroke-width="2" opacity="0.5"/>
      <animateMotion dur="5s" fill="freeze" repeatCount="indefinite" rotate="auto" begin="1s" path="M150,250 340,250 360,240 466,240 360,240 340,250 350,230 350,120" />
    </g>
    <g>
      <path id="flecha" d="M0,-5 10,0 0,5" fill="#39FF14" stroke="#39FF14" stroke-width="2" opacity="0.5"/>
      <animateMotion dur="5s" fill="freeze" repeatCount="indefinite" rotate="auto" begin="2s" path="M150,250 340,250 360,240 466,240 360,240 340,250 350,230 350,120" />
    </g>
    <g>
      <path id="flecha" d="M0,-5 10,0 0,5" fill="#39FF14" stroke="#39FF14" stroke-width="2" opacity="0.5"/>
      <animateMotion dur="5s" fill="freeze" repeatCount="indefinite" rotate="auto" begin="3s" path="M150,250 340,250 360,240 466,240 360,240 340,250 350,230 350,120" />
    </g>
    <g>
      <path id="flecha" d="M0,-5 10,0 0,5" fill="#39FF14" stroke="#39FF14" stroke-width="2" opacity="0.5"/>
      <animateMotion dur="5s" fill="freeze" repeatCount="indefinite" rotate="auto" begin="4s" path="M150,250 340,250 360,240 466,240 360,240 340,250 350,230 350,120" />
    </g>


    <g>
      <path id="flecha" d="M0,-5 10,0 0,5" fill="#39FF14" stroke="#39FF14" stroke-width="2" opacity="0.5"/>
      <animateMotion dur="5s" fill="freeze" repeatCount="indefinite" rotate="auto" begin="0s" path="M150,250 340,250 340,377 340,250 340,250 350,230 350,120" />
    </g>
    <g>
      <path id="flecha" d="M0,-5 10,0 0,5" fill="#39FF14" stroke="#39FF14" stroke-width="2" opacity="0.5"/>
      <animateMotion dur="5s" fill="freeze" repeatCount="indefinite" rotate="auto" begin="1s" path="M150,250 340,250 340,377 340,250 340,250 350,230 350,120" />
    </g>
    <g>
      <path id="flecha" d="M0,-5 10,0 0,5" fill="#39FF14" stroke="#39FF14" stroke-width="2" opacity="0.5"/>
      <animateMotion dur="5s" fill="freeze" repeatCount="indefinite" rotate="auto" begin="2s" path="M150,250 340,250 340,377 340,250 340,250 350,230 350,120" />
    </g>
    <g>
      <path id="flecha" d="M0,-5 10,0 0,5" fill="#39FF14" stroke="#39FF14" stroke-width="2" opacity="0.5"/>
      <animateMotion dur="5s" fill="freeze" repeatCount="indefinite" rotate="auto" begin="3s" path="M150,250 340,250 340,377 340,250 340,250 350,230 350,120" />
    </g>
    <g>
      <path id="flecha" d="M0,-5 10,0 0,5" fill="#39FF14" stroke="#39FF14" stroke-width="2" opacity="0.5"/>
      <animateMotion dur="5s" fill="freeze" repeatCount="indefinite" rotate="auto" begin="4s" path="M150,250 340,250 340,377 340,250 340,250 350,230 350,120" />
    </g>


      <!-- <rect x="0" y="0" width="300" height="200" stroke="blue" fill="#33DEFF" stroke-width="1"/> -->
    <!-- Gun -->
    <g transform="scale(.2,.2) translate(600,1210)">
      <path d="M300,30 280,30 A5 15 0 0 0 270 30 A5 15 0 0 0 260 30 A5 15 0 0 0 250 30 L200,30 200,10 A10 10 0 0 0 190 0 L100,0 A10 10 0 0 0 90 10 L90,30 70,30 70,10 60,10 50,70 70,70 70,50 90,50 90,70 A10 10 0 0 0 100 80 L190,80 A10 10 0 0 0 200 70 L200,50 250,50 A5 15 0 0 0 260 50 A5 15 0 0 0 270 50 A5 15 0 0 0 280 50 L300,50" fill="yellow" stroke="black" stroke-width="2"/>
      <path d="M90,65 A150 170 0 0 0 0 200 L100,200 A150 170 0 0 1 130 80 " fill="yellow" stroke="black" stroke-width="2"/>
      <text x="30" y="250" font-size="60px">Light gun</text>
    </g>



    <!-- eye -->
    <!-- <g>
      <circle cx="50" cy="50" r="50" stroke="black" stroke-width="1" fill="#E5C298" filter="url(#blurMe)"/>
      <ellipse cx="60" cy="60" rx="15" ry="20" style="fill:brown" />
      <ellipse cx="64" cy="60" rx="5" ry="8" style="fill:black" />
      <path d="M5,50 A70 30 0 0 1 70 30 A70 40 0 0 1 80 50 A70 30 0 0 0 5 60"  stroke="#EDCFB5" stroke-width="2" fill="#E5C298"/>
      <path d="M15,55 A70 30 0 0 0 70 80 A70 40 0 0 1 70 90"  stroke="#EDCFB5" stroke-width="2" fill="#E5C298"/>
      <path d="M25,53 A70 30 0 0 0 30 57 A70 40 0 0 1 26 53
               M30,52 A70 30 0 0 0 37 58 A70 40 0 0 1 31 52
               M35,51 A70 30 0 0 0 45 58 A70 40 0 0 1 37 51
               M38,51 A70 30 0 0 0 55 60 A70 40 0 0 1 40 51
               M41,50 A70 30 0 0 0 60 62 A70 40 0 0 1 43 50
               M42,51 A70 30 0 0 0 63 60 A70 40 0 0 1 45 51
               M44,51 A70 30 0 0 0 65 60 A70 40 0 0 1 48 51
               M46,51 A70 30 0 0 0 70 60 A70 40 0 0 1 51 51
               M50,51 A70 30 0 0 0 75 60 A70 40 0 0 1 55 5
               M80,51 A70 30 0 0 0 55 60 A70 40 0 0 1 40 51"  stroke="black" stroke-width="1" fill="black" opacity="0.7"/>
    </g> -->


</svg>
