<?xml version="1.0" encoding="utf-8"?>
<!DOCTYPE svg PUBLIC "-//W3C//DTD SVG 1.1//EN" "http://www.w3.org/Graphics/SVG/1.1/DTD/svg11.dtd">
<svg version="1.1" id="Layer_1" xmlns="http://www.w3.org/2000/svg" xmlns:xlink="http://www.w3.org/1999/xlink" x="0px" y="0px"
	 width="600px" height="300px" viewBox="0 0 600 300" enable-background="new 0 0 64 64" xml:space="preserve">

<!--  reference box -->
<!-- 
  <line fill="none" stroke="#000000" stroke-width="1" x1="0" y1="0" x2="600" y2="300"/>
  <line fill="none" stroke="#000000" stroke-width="1" x1="0" y1="300" x2="600" y2="0"/>
  <line fill="none" stroke="#000000" stroke-width="1" x1="0" y1="150" x2="600" y2="150"/>
  <line fill="none" stroke="#000000" stroke-width="1" x1="300" y1="0" x2="300" y2="300"/>
-->
<!-- Pascal principle statement -->
<text x="10" y="50" fill="black" font-size="30" font-family="Times new roman" font-style="italic">p = </text>
<line fill="000" stroke="#000" stroke-width="2" x1="60" y1="40" x2="90" y2="40"/>
<text x="65" y="30" fill="black" font-size="30" font-family="Times new roman" font-style="italic">F<tspan baseline-shift="sub" font-size="15" font-style="normal">1</tspan></text>
<text x="63" y="70" fill="black" font-size="30" font-family="Times new roman" font-style="italic">A<tspan baseline-shift="sub" font-size="15" font-style="normal">1</tspan></text>

<text x="100" y="50" fill="black" font-size="30" font-family="Times new roman" font-style="italic"> = </text>
<line fill="000" stroke="#000" stroke-width="2" x1="130" y1="40" x2="160" y2="40"/>
<text x="135" y="30" fill="black" font-size="30" font-family="Times new roman" font-style="italic">F<tspan baseline-shift="sub" font-size="15" font-style="normal">2</tspan></text>
<text x="133" y="70" fill="black" font-size="30" font-family="Times new roman" font-style="italic">A<tspan baseline-shift="sub" font-size="15" font-style="normal">2</tspan></text>

<text x="10" y="150" fill="black" font-size="30" font-family="Times new roman" font-style="normal">then</text>

<text x="10" y="230" fill="black" font-size="30" font-family="Times new roman" font-style="italic">F<tspan baseline-shift="sub" font-size="15" font-style="normal">2</tspan> = </text>
<line fill="000" stroke="#000" stroke-width="2" x1="70" y1="220" x2="100" y2="220"/>
<text x="75" y="209" fill="black" font-size="30" font-family="Times new roman" font-style="italic">A<tspan baseline-shift="sub" font-size="15" font-style="normal">2</tspan></text>
<text x="70" y="250" fill="black" font-size="30" font-family="Times new roman" font-style="italic">A<tspan baseline-shift="sub" font-size="15" font-style="normal">1</tspan></text>
<text x="110" y="230" fill="black" font-size="30" font-family="Times new roman" font-style="italic">F<tspan baseline-shift="sub" font-size="15" font-style="normal">1</tspan></text>

<!-- Hydraulic press -->
<g transform ="translate(91,100) scale(0.8)">
  <!--  fluid -->
  <path d="m205 170 L205 240 A10 10 0 0 0 215 245 L580 245 A10 10 0 0 0 585 235 L585 140 L420 140 L420 200 A10 10 0 0 1 410 210 L290 210 A10 10 0 0 1 280 200 L280 170 Z" fill="orange"/>
  <!--  container outter -->
  <path d="m200 100 L200 240 A10 10 0 0 0 210 250 L580 250 A10 10 0 0 0 590 240 L590 100 L585 100 L585 240 A10 10 0 0 1 575 245 L215 245 A10 10 0 0 1 205 235 L205 100 Z" stroke="#000" fill="gray"/>
 <!--  container inner -->
  <path d="m280 100 L280 200 A10 10 0 0 0 290 210 L410 210 A10 10 0 0 0 420 200 L420 100 L415 100 L415 200 A10 10 0 0 1 410 205 L290 205 A10 10 0 0 1 285 200 L285 100 Z" stroke="#000" fill="gray"/>
  <!-- small area piston -->
  <rect x="205" y="155" width="75" height="15" stroke="black" fill="gray"/>
  <rect x="205" y="160" width="75" height="1" stroke="black" fill="black"/>
  <rect x="205" y="165" width="75" height="1" stroke="black" fill="black"/>
  <rect x="230" y="130" width="20" height="25" stroke="black" fill="#C1C3C4"/>
  
  <!-- big area piston -->
  <rect x="420" y="125" width="165" height="15" stroke="black" fill="gray"/>
  <rect x="420" y="130" width="165" height="1" stroke="black" fill="black"/>
  <rect x="420" y="135" width="165" height="1" stroke="black" fill="black"/>
  <rect x="490" y="25" width="20" height="100" stroke="black" fill="#C1C3C4"/>

  <!-- platform -->
  <path d="m400 15 A10 10 0 0 0 410 25 L590 25 A10 10 0 0 0 600 15 L400 15 Z" stroke="#000" fill="#B2B4B5"/>

  <!-- Forces -->
  <line fill="f00" stroke="#f00" stroke-width="4" x1="500" y1="140" x2="500" y2="230"/>
	<line fill="f00" stroke="#f00" stroke-width="2" x1="500" y1="140" x2="505" y2="160"/>
	<line fill="f00" stroke="#f00" stroke-width="2" x1="500" y1="140" x2="495" y2="160"/>
 <text x="225" y="110" fill="black" font-size="30" font-family="Times new roman" font-style="italic">F<tspan baseline-shift="sub" font-size="15">1</tspan></text>

	<line fill="f00" stroke="#f00" stroke-width="4" x1="500" y1="125" x2="500" y2="35"/>
	<line fill="f00" stroke="#f00" stroke-width="2" x1="500" y1="125" x2="505" y2="110"/>
	<line fill="f00" stroke="#f00" stroke-width="2" x1="500" y1="125" x2="495" y2="110"/>
	<text x="225" y="230" fill="black" font-size="30" font-family="Times new roman" font-style="italic">pA<tspan baseline-shift="sub" font-size="15">1</tspan></text>

	<line fill="f00" stroke="#f00" stroke-width="4" x1="240" y1="170" x2="240" y2="200"/>
	<line fill="f00" stroke="#f00" stroke-width="2" x1="240" y1="170" x2="245" y2="190"/>
	<line fill="f00" stroke="#f00" stroke-width="2" x1="240" y1="170" x2="235" y2="190"/>
	<text x="515" y="90" fill="black" font-size="30" font-family="Times new roman" font-style="italic">F<tspan baseline-shift="sub" font-size="15">2</tspan></text>

  <line fill="f00" stroke="#f00" stroke-width="4" x1="240" y1="155" x2="240" y2="125"/>
	<line fill="f00" stroke="#f00" stroke-width="2" x1="240" y1="155" x2="245" y2="135"/>
	<line fill="f00" stroke="#f00" stroke-width="2" x1="240" y1="155" x2="235" y2="135"/>
	<text x="515" y="210" fill="black" font-size="30" font-family="Times new roman" font-style="italic">pA<tspan baseline-shift="sub" font-size="15">2</tspan></text>

</g>
<g transform="translate(373,-15) scale(0.7)">
  // car
  <path d="m100 145 L100 170 A10 10 0 0 0 120 170 L120 150 A60 10 0 0 0 220 150 L220 170 A10 10 0 0 0 240 170 L240 145 Z" stroke="#000" fill="#000"/>
  <path d="m95 135 A10 10 0 0 0 97 140 L243 140 A10 10 0 0 0 245 135 Z" stroke="#000" fill="#4B9DC5"/>
  <path d="m97 130 L242 130 A9 19 0 0 0 240 103 A10 10 0 0 0 230 100 L230 98 L231 98 L231 90 L230 90 L230 88 L231 88 L231 89 L232 89 L232 88 L233 88 L233 87 L232 87 L232 85 L236 84 L236 85 A2 2 0 0 0 237 87 L248 88 A2 2 0 0 0 250 86 L250 81 A2 2 0 0 0 248 79 L238 80 A2 2 0 0 0 236 82 L236 83 L231 84 L231 87 L230 87 L226 60 A40 16 0 0 0 112 60 L107 87 L106 87 L106 84 L102 83 L102 82 A2 2 0 0 0 100 80 L90 79 A2 2 0 0 0 88 81 L88 86 A2 2 0 0 0 90 88 L100 87 A2 2 0 0 0 102 85 L102 84 L103 84 L105 85 L105 87 L104 87 L104 88 L107 88 L107 89 L105 89 L107 89 L107 90 L106 90 L106 98 L107 98 L107 98 L107 100 A10 10 0 0 0 97 103 A9 19 0 0 0 95 130 Z" stroke="#000" fill="#4B9DC5" transform="scale(1) translate(-0,-0)"/>
  <!-- glass -->
  <path d="m113 80 L225 80 L220 57 A50 13 0 0 0 118 57 Z" stroke="#000" fill="#fff" transform="scale(1) translate(0,0)"/>
  <!-- seats and mirror -->
  <path d="m126 80 L127 70 L150 70 L151 80 Z" stroke="#000" fill="gray" transform="scale(1) translate(0,0)"/>
  <path d="m186 80 L187 70 L210 70 L211 80 Z" stroke="#000" fill="gray" transform="scale(1) translate(0,0)"/>
  <path d="m160 55 L180 55 L180 60 L160 60 Z" stroke="#000" fill="black" transform="scale(1) translate(0,0)"/>
  <!-- hood -->
  <path d="m112 90 A100 100 0 0 1 132 120 A50 50 0 0 0 137 130 L201 130 A50 50 0 0 0 206 120 A100 100 0 0 1 226 90 A10 5 0 0 0 222 85 A70 10 0 0 0 115 85 A10 5 0 0 0 112 90 Z" stroke="#000" fill="#9B9DC9" stroke-width=".5" transform="scale(1) translate(0,0)"/>
  <path d="m122 90 A100 100 0 0 1 142 120 A20 40 0 0 0 163 125 L163 90 A30 5 0 0 0 126 85 A30 7 0 0 0 122 90 Z" stroke="#000" fill="#9B9Dff" stroke-width=".5" transform="scale(1) translate(0,0)"/>
  <path d="m216 90 A100 100 0 0 0 195 120 A20 40 0 0 1 174 125 L174 90 A30 5 0 0 1 212 85 A30 7 0 0 1 216 90 Z" stroke="#000" fill="#9B9Dff" stroke-width=".5" transform="scale(1) translate(0,0)"/>
  <!-- Lights -->
  <circle cx="109" cy="115" r="10" fill="#C0C0C0"  transform="scale(1) translate(0,0)"/>
  <circle cx="109" cy="115" r="8" fill="#fff"  transform="scale(1) translate(0,0)"/>
  <circle cx="230" cy="115" r="10" fill="#C0C0C0"  transform="scale(1) translate(0,0)"/>
  <circle cx="230" cy="115" r="8" fill="#fff"  transform="scale(1) translate(0,0)"/>
</g>
</svg>
