<?xml version="1.0" encoding="utf-8"?>
<!DOCTYPE svg PUBLIC "-//W3C//DTD SVG 1.1//EN" "http://www.w3.org/Graphics/SVG/1.1/DTD/svg11.dtd">
<svg version="1.1" id="Layer_1" xmlns="http://www.w3.org/2000/svg" xmlns:xlink="http://www.w3.org/1999/xlink" x="0px" y="0px"
	 width="400px" height="300px" viewBox="0 0 400 300" enable-background="new 0 0 64 64" xml:space="preserve">



<g>
  // container
	<path d="m220 15
	         A75 13 0 0 1 380 15
					 L380 275
					 A75 13 0 0 1 220 275
					 L220 15
					 Z" stroke="#000" stroke-opacity="0.1" fill="#C6E2E3" fill-opacity="1"/>
  <path d="m225 15
	         A75 10 0 0 1 375 15
					 L375 275
					 A75 10 0 0 1 225 275
					 L225 15
					 Z" stroke="#000" stroke-opacity="0.1" fill="#C6E2E3" fill-opacity="1"/>

  // water
  <path d="m225 25 A75 10 0 0 1 375 25 L375 275 A75 10 0 0 1 225 275 L225 275 Z" fill="#0cafFF" fill-opacity="0.8"/>
  <ellipse cx="300" cy="25" rx="75" ry="10" stroke="black" fill="#0cafFF" fill-opacity="0" stroke-opacity="0.1"/>
	<ellipse cx="300" cy="275" rx="75" ry="10" stroke="black" fill="#0cafFF" fill-opacity="0" stroke-opacity="0.1"/>
	// container outter border
		<path d="m225 15 A75 10 0 0 0 375 15 m5 0 A75 13 0 0 1 220 15" stroke="#000" stroke-opacity="0.2" fill="#C6E2E3" fill-opacity="0.5"/>

   // volume differential
  <g transform="translate(10,0)">
  <path d="m275 125 L275 150 L250 165 L250 140 Z" fill="#0c84FF" fill-opacity="0.8" stroke="black" stroke-dasharray="4" stroke-opacity="0.3"/>
  <path d="m275 125 L275 150 L325 150 L325 125 Z" fill="#0c84FF" fill-opacity="0.8" stroke="black" stroke-dasharray="4" stroke-opacity="0.3"/>
  <path d="m275 150 L250 165 L300 165 L325 150 Z" fill="#0c84FF" fill-opacity="0.8" stroke="black" stroke-dasharray="4" stroke-opacity="0.3"/>

  <path d="m275 125 L250 140 L300 140 L325 125 Z" fill="#0c84FF" fill-opacity="0.8" stroke="black" stroke-dasharray="4" stroke-opacity="0.3"/>
  <path d="m250 140 L250 165 L300 165 L300 140 Z" fill="#0c84FF" fill-opacity="0.8" stroke="black" stroke-dasharray="4" stroke-opacity="0.3"/>
  <path d="m325 125 L325 150 L300 165 L300 140 Z" fill="#0c84FF" fill-opacity="0.8" stroke="black" stroke-dasharray="4" stroke-opacity="0.3"/>

  <text x="280" y="138" fill="black" font-size="15" font-family="Times new roman" font-style="italic" transform="rotate(5, 290, 120)">A</text>
  // cotas
  <text x="375" y="146" fill="black" font-size="15" font-family="Times new roman" font-style="italic">dy</text>
  <text x="377" y="218" fill="black" font-size="15" font-family="Times new roman" font-style="italic">y</text>
  <line fill="none" stroke="#000000" stroke-width="1" x1="320" y1="130" x2="400" y2="130"/>
  <line fill="none" stroke="#000000" stroke-width="1" x1="320" y1="155" x2="400" y2="155"/>
  <line fill="none" stroke="#000000" stroke-width="1" x1="320" y1="275" x2="400" y2="275"/>
  <line fill="none" stroke="#000000" stroke-width="1" x1="380" y1="157" x2="380" y2="200"/>
  <line fill="none" stroke="#000000" stroke-width="1" x1="380" y1="230" x2="380" y2="273"/>
  <line fill="none" stroke="#000000" stroke-width="1" x1="380" y1="110" x2="380" y2="128"/>

	

  </g>
	// forces arrows
	<g transform="translate(5,0)">
    <line fill="black" stroke="#FF0000" stroke-width="3" x1="290" y1="215" x2="290" y2="167" stroke-linecap="round"/>
		<line fill="black" stroke="#FF0000" stroke-width="2" x1="286" y1="175" x2="290" y2="165" stroke-linecap="round"/>
		<line fill="black" stroke="#FF0000" stroke-width="2" x1="294" y1="175" x2="290" y2="165" stroke-linecap="round"/>
	</g>
	// weight
   <g transform="translate(5,-5)">
    <line fill="black" stroke="#FF0000" stroke-width="3" x1="300" y1="170" x2="300" y2="198" stroke-linecap="round"/>
		<line fill="black" stroke="#FF0000" stroke-width="2" x1="296" y1="190" x2="300" y2="200" stroke-linecap="round"/>
		<line fill="black" stroke="#FF0000" stroke-width="2" x1="304" y1="190" x2="300" y2="200" stroke-linecap="round"/>
	</g>

	<g transform="translate(5,-5)">
    <line fill="black" stroke="#FF0000" stroke-width="3" x1="290" y1="80" x2="290" y2="128" stroke-linecap="round"/>
		<line fill="black" stroke="#FF0000" stroke-width="2" x1="294" y1="120" x2="290" y2="130" stroke-linecap="round"/>
		<line fill="black" stroke="#FF0000" stroke-width="2" x1="286" y1="120" x2="290" y2="130" stroke-linecap="round"/>
	</g>
	<g>
    <line fill="black" stroke="#FF0000" stroke-width="3" x1="220" y1="145" x2="258" y2="145" stroke-linecap="round"/>
		<line fill="black" stroke="#FF0000" stroke-width="2" x1="250" y1="141" x2="260" y2="145" stroke-linecap="round"/>
		<line fill="black" stroke="#FF0000" stroke-width="2" x1="250" y1="149" x2="260" y2="145" stroke-linecap="round"/>
	</g>
	<g>
    <line fill="black" stroke="#FF0000" stroke-width="3" x1="360" y1="145" x2="327" y2="145" stroke-linecap="round"/>
		<line fill="black" stroke="#FF0000" stroke-width="2" x1="335" y1="141" x2="325" y2="145" stroke-linecap="round"/>
		<line fill="black" stroke="#FF0000" stroke-width="2" x1="335" y1="149" x2="325" y2="145" stroke-linecap="round"/>
	</g>
	<g>
    <line fill="black" stroke="#FF0000" stroke-width="3" x1="250" y1="175" x2="285" y2="153" stroke-linecap="round"/>
		<line fill="black" stroke="#FF0000" stroke-width="2" x1="274" y1="155" x2="285" y2="153" stroke-linecap="round"/>
		<line fill="black" stroke="#FF0000" stroke-width="2" x1="283" y1="160" x2="285" y2="153" stroke-linecap="round"/>
	</g>
	<g>
    <line fill="black" stroke="#FF0000" stroke-width="3" x1="350" y1="110" x2="330" y2="124" stroke-linecap="round"/>
		<line fill="black" stroke="#FF0000" stroke-width="2" x1="340" y1="122" x2="330" y2="124" stroke-linecap="round"/>
		<line fill="black" stroke="#FF0000" stroke-width="2" x1="330" y1="120" x2="330" y2="124" stroke-linecap="round"/>
	</g>
	<text x="300" y="90" fill="black" font-size="15" font-family="Times new roman" font-style="italic"><tspan font-style="normal">(</tspan>p+dp<tspan font-style="normal">)</tspan>A</text>
	<text x="275" y="220" fill="black" font-size="15" font-family="Times new roman" font-style="italic">pA</text>
	<text x="310" y="200" fill="black" font-size="13" font-family="Times new roman" font-style="italic">dw = &#x03c1;gAdy</text>
	<text x="230" y="90" fill="black" font-size="10" font-family="Times new roman">horizontal</text>
	<text x="230" y="100" fill="black" font-size="10" font-family="Times new roman">forces</text>
	<text x="230" y="110" fill="black" font-size="10" font-family="Times new roman">cancel</text>
	<text x="230" y="120" fill="black" font-size="10" font-family="Times new roman">between</text>
	<text x="230" y="130" fill="black" font-size="10" font-family="Times new roman">them</text>
	<text x="260" y="235" fill="black" font-size="10" font-family="Times new roman">force by pressure</text>
	<text x="260" y="245" fill="black" font-size="10" font-family="Times new roman">surface below</text>
	<text x="280" y="60" fill="black" font-size="10" font-family="Times new roman">force by pressure</text>
	<text x="280" y="70" fill="black" font-size="10" font-family="Times new roman">surface above</text>
 </g>

  // equations
 <g>
 <text x="0" y="20" fill="black" font-size="20" font-family="Times new roman" fill-opacity="0.4">At equilibrium</text>
 <text x="50" y="50" fill="black" font-size="20" font-family="Times new roman" font-style="italic">&#x03a3;F<tspan baseline-shift="sub" font-size="15">y</tspan> = 0</text>
 <text x="0" y="90" fill="black" font-size="20" font-family="Times new roman" fill-opacity="0.4">then</text>
 <text x="2" y="130" fill="black" font-size="20" font-family="Times new roman" font-style="italic">pA -<tspan font-style="normal">(</tspan>p+dp<tspan font-style="normal">)</tspan>A -&#x03c1;gAdy =0</text>
 <text x="0" y="170" fill="black" font-size="20" font-family="Times new roman" fill-opacity="0.4">simplifiying</text>
 <text x="30" y="210" fill="black" font-size="25" font-family="Times new roman" font-style="italic">dp/dy = -&#x03c1;g</text>
 </g>
</svg>
