<?xml version="1.0" standalone="no"?>
<!DOCTYPE svg PUBLIC "-//W3C//DTD SVG 20010904//EN"
 "http://www.w3.org/TR/2001/REC-SVG-20010904/DTD/svg10.dtd">
<svg version="1.0" xmlns="http://www.w3.org/2000/svg"
 width="400.000000pt" height="300.000000pt" viewBox="0 0 400.000000 300.000000"
 preserveAspectRatio="xMidYMid meet">
<metadata>
Created by potrace 1.16, written by Peter Selinger 2001-2019
</metadata>
<g transform="translate(0.000000,300.000000) scale(0.100000,-0.100000)"
fill="#000000" stroke="none">
<path d="M2195 2582 c-44 -16 -101 -42 -126 -59 l-45 -31 -54 16 c-91 26 -293
21 -411 -11 -109 -29 -251 -85 -244 -97 2 -4 32 -18 65 -30 33 -12 60 -25 60
-29 0 -3 -20 -18 -44 -32 -28 -17 -63 -55 -101 -110 -32 -46 -82 -114 -112
-151 -29 -37 -53 -69 -53 -71 0 -3 27 -8 60 -12 34 -4 59 -10 57 -14 -16 -29
-49 -109 -71 -173 -15 -42 -47 -106 -72 -142 -24 -37 -44 -71 -44 -76 0 -5 31
-12 69 -16 94 -9 95 -10 77 -75 -8 -30 -18 -79 -21 -109 -4 -30 -13 -80 -21
-111 -8 -31 -14 -61 -14 -67 0 -6 31 -2 76 10 42 10 78 17 81 14 3 -3 1 -37
-3 -77 l-9 -72 -74 -24 c-114 -37 -186 -94 -231 -183 -25 -48 -72 -234 -64
-253 8 -22 32 -29 54 -17 19 10 25 27 51 135 25 105 90 193 164 222 85 34 278
85 284 75 3 -6 24 -74 45 -152 34 -119 44 -144 63 -153 20 -9 28 -7 50 16 l26
26 46 -41 c25 -22 75 -55 111 -72 61 -29 72 -31 180 -31 108 0 119 2 180 31
36 17 86 50 111 72 l46 41 26 -26 c22 -23 30 -25 50 -16 19 9 29 34 63 153 21
78 42 146 45 152 6 9 205 -43 284 -75 74 -29 139 -117 164 -222 26 -108 32
-125 51 -135 22 -12 46 -5 54 17 8 19 -40 205 -65 255 -46 90 -125 149 -251
188 l-64 20 -16 82 c-9 46 -15 84 -13 86 1 1 31 -4 66 -12 35 -9 65 -13 67
-11 2 2 -1 19 -7 37 -13 39 -17 99 -13 208 l2 75 65 19 c36 10 68 23 71 27 3
5 -3 21 -14 37 -15 20 -80 142 -120 223 -1 3 22 22 53 42 30 21 55 42 55 48 0
6 -22 35 -48 64 -27 29 -68 86 -92 126 -23 41 -63 93 -87 116 l-45 42 71 36
c39 19 71 39 71 44 0 20 -246 96 -392 121 -38 7 -68 16 -68 20 0 4 7 27 15 50
8 23 15 49 15 56 0 21 -45 16 -135 -14z m11 -104 c-23 -80 -24 -78 36 -78 64
0 199 -22 278 -46 l55 -16 -79 -32 c-43 -17 -79 -35 -80 -41 0 -5 33 -22 74
-38 89 -34 132 -65 167 -120 14 -23 46 -73 71 -110 24 -37 43 -69 41 -71 -2
-1 -26 -18 -54 -36 -27 -18 -51 -34 -53 -36 -2 -1 13 -24 33 -50 35 -45 110
-183 103 -189 -2 -1 -25 -9 -53 -17 l-50 -14 -1 -132 c0 -72 -3 -134 -6 -138
-3 -3 -32 2 -64 10 -32 8 -60 13 -63 11 -2 -3 7 -59 20 -125 14 -66 23 -120
21 -120 -2 0 -34 9 -71 20 -63 20 -68 24 -100 76 l-33 56 16 57 c9 32 16 66
16 77 0 12 17 35 41 54 56 45 69 81 69 192 0 109 -17 155 -67 178 l-33 15 0
93 c0 107 -19 156 -71 190 l-32 20 39 11 c21 6 47 11 57 11 39 0 12 19 -63 44
-116 38 -141 35 -239 -32 -50 -35 -58 -37 -131 -37 -73 0 -81 2 -131 37 -98
67 -123 70 -239 32 -75 -25 -102 -44 -62 -44 9 0 35 -5 56 -11 l39 -11 -32
-20 c-52 -34 -71 -83 -71 -190 l0 -93 -33 -15 c-50 -23 -67 -69 -67 -178 0
-111 13 -147 69 -192 24 -19 41 -42 41 -54 0 -11 7 -46 16 -77 l16 -58 -31
-54 c-30 -53 -34 -56 -100 -76 -91 -28 -93 -27 -87 12 12 69 26 190 23 193 -1
2 -35 -5 -75 -15 -83 -22 -79 -28 -61 79 5 36 25 100 43 142 l33 77 -56 6
c-75 9 -93 15 -87 28 12 27 54 135 70 179 10 27 40 82 67 123 27 42 49 77 49
79 0 2 -25 7 -55 11 l-55 6 61 90 c70 104 110 137 217 175 42 15 88 32 102 37
23 8 18 12 -55 40 l-80 31 45 15 c32 11 90 15 205 15 136 0 169 -3 221 -20
l61 -21 26 32 c23 29 97 75 121 75 4 0 5 -10 2 -22z m-373 -402 c88 -65 246
-65 335 1 l32 24 62 -33 c94 -50 98 -61 98 -265 0 -95 3 -173 7 -173 3 0 22
18 40 40 19 22 39 38 44 34 13 -7 11 -134 -2 -173 -8 -21 -23 -38 -48 -49 -34
-16 -37 -21 -54 -102 -21 -104 -52 -151 -133 -206 -33 -22 -70 -50 -83 -63
-31 -31 -67 -43 -131 -43 -64 0 -100 12 -131 43 -13 13 -50 41 -83 63 -82 56
-112 102 -134 206 -17 82 -19 86 -54 102 -24 11 -39 28 -47 49 -13 39 -15 166
-2 173 5 4 25 -12 44 -34 18 -22 37 -40 40 -40 4 0 7 78 7 173 0 203 4 215 96
264 32 18 60 33 62 33 2 0 18 -11 35 -24z m-143 -1068 l23 -57 -43 -55 c-23
-31 -45 -56 -49 -56 -6 0 -52 155 -51 174 0 5 14 33 32 64 l31 55 17 -34 c9
-19 27 -60 40 -91z m726 40 c16 -35 16 -40 -7 -122 -13 -48 -27 -86 -30 -86
-8 0 -89 104 -89 114 0 4 16 46 37 93 l36 85 18 -23 c10 -13 26 -41 35 -61z
m-608 8 c63 -54 107 -70 192 -70 81 0 132 17 179 59 35 31 81 60 81 51 0 -2
-13 -33 -29 -68 -23 -51 -46 -79 -124 -151 l-96 -88 -107 88 c-94 78 -110 95
-135 151 -16 35 -29 66 -29 68 0 12 22 -1 68 -40z m47 -242 c44 -36 83 -69 87
-72 4 -4 -1 -18 -11 -31 l-19 -25 -46 18 c-46 18 -146 99 -146 119 0 11 39 57
50 57 3 0 42 -30 85 -66z m402 44 c13 -12 23 -27 23 -33 0 -20 -88 -95 -134
-115 -23 -11 -62 -22 -86 -25 l-45 -6 105 100 c58 55 107 101 109 101 3 0 15
-10 28 -22z"/>
<path d="M1843 1364 c-7 -3 -29 -28 -49 -56 -36 -48 -37 -51 -19 -64 10 -7 54
-25 98 -40 66 -22 92 -26 151 -22 67 5 198 47 212 69 7 12 -52 96 -77 110 -13
6 -40 8 -68 4 -55 -8 -118 -8 -186 -1 -27 3 -55 3 -62 0z"/>
</g>
</svg>
